<svg width="283" height="70" viewBox="0 0 283 70" fill="none" xmlns="http://www.w3.org/2000/svg">
<path d="M23 3.5H14.9733C12.0753 3.5 9.26131 4.47326 6.98259 6.26368C4.72521 8.03734 3.12209 10.5116 2.42581 13.2967L2.39665 13.4134C2.13321 14.4672 2 15.5492 2 16.6354V51.6822C2 53.5507 2.27277 55.4092 2.80969 57.199L2.95073 57.6691C3.31549 58.885 3.83037 60.0506 4.48346 61.1391L4.75983 61.5997C5.90146 63.5024 7.50489 65.0862 9.42154 66.2042C11.4377 67.3803 13.7299 68 16.0639 68H40H50.3798C53.4049 68 56.3749 67.1912 58.9823 65.6575C61.9255 63.9262 64.2778 61.3472 65.7317 58.2576L65.8207 58.0685C66.9266 55.7185 67.5 53.1533 67.5 50.5561V20.6409C67.5 16.9705 66.3636 13.3902 64.247 10.3916L63.769 9.71442C62.2826 7.60863 60.2679 5.93133 57.9276 4.85118C55.9988 3.961 53.8999 3.5 51.7757 3.5H37.5H23Z" stroke="#C00046" stroke-width="3"/>
<path d="M130 2H121.973C119.075 2 116.261 2.97326 113.983 4.76368C111.725 6.53734 110.122 9.01164 109.426 11.7967L109.397 11.9134C109.133 12.9672 109 14.0492 109 15.1354V50.1822C109 52.0507 109.273 53.9092 109.81 55.699L109.951 56.1691C110.315 57.385 110.83 58.5506 111.483 59.6391L111.76 60.0997C112.901 62.0024 114.505 63.5862 116.422 64.7042C118.438 65.8803 120.73 66.5 123.064 66.5H147H157.801C160.559 66.5 163.276 65.8315 165.719 64.5517L166.768 64.0023C170.414 62.0924 173.071 58.7159 174.069 54.7228C174.355 53.5786 174.5 52.4036 174.5 51.2242V16.7739C174.5 14.6179 174.024 12.4885 173.106 10.5377C171.439 6.99439 168.421 4.2664 164.729 2.96305L164.471 2.87219C162.836 2.29493 161.114 2 159.379 2H144.5H130Z" stroke="#C00046" stroke-width="3"/>
<path d="M237 2H228.973C226.075 2 223.261 2.97326 220.983 4.76368C218.725 6.53734 217.122 9.01164 216.426 11.7967L216.397 11.9134C216.133 12.9672 216 14.0492 216 15.1354V50.1822C216 52.0507 216.273 53.9092 216.81 55.699L216.951 56.1691C217.315 57.385 217.83 58.5506 218.483 59.6391L218.76 60.0997C219.901 62.0024 221.505 63.5862 223.422 64.7042C225.438 65.8803 227.73 66.5 230.064 66.5H254H264.38C267.405 66.5 270.375 65.6912 272.982 64.1575C275.925 62.4262 278.278 59.8472 279.732 56.7576L279.821 56.5685C280.927 54.2185 281.5 51.6533 281.5 49.0561V19.1409C281.5 15.4705 280.364 11.8902 278.247 8.89157L277.769 8.21442C276.283 6.10863 274.268 4.43133 271.928 3.35118C269.999 2.461 267.9 2 265.776 2H251.5H237Z" stroke="#C00046" stroke-width="3"/>
<path d="M31.5 26.5L31.625 27M31.625 27L31.9166 28.1666C31.972 28.388 32 28.6154 32 28.8437V29.2929C32 29.7456 31.8201 30.1799 31.5 30.5V30.5L30.5 31.5V31.5C30.1936 31.8064 30.0866 32.2597 30.2236 32.6708L30.411 33.2329C30.4701 33.4102 30.5525 33.5788 30.6562 33.7343L31.0749 34.3624C31.3576 34.7864 31.6815 35.1815 32.0419 35.5419L32.9975 36.4975C33.3321 36.8321 33.69 37.1425 34.0685 37.4264L35.5 38.5L36.7077 39.2246C37.5126 39.7076 38.5084 39.7458 39.3479 39.326L39.6163 39.1919C39.8677 39.0661 40.082 38.877 40.238 38.643V38.643C40.6773 37.984 41.5296 37.7407 42.2506 38.0685L45.3536 39.4789C46.0518 39.7963 46.5 40.4924 46.5 41.2593V41.2593C46.5 41.4191 46.4804 41.5784 46.4416 41.7336L46.2756 42.3978C46.0982 43.107 45.6629 43.7247 45.0546 44.1302V44.1302C44.6895 44.3737 44.2745 44.5322 43.8401 44.5943L42.5059 44.7849C41.5092 44.9273 40.4956 44.8991 39.5084 44.7017L39.4823 44.6965C38.8294 44.5659 38.193 44.3636 37.5846 44.0932L35.0337 42.9594C34.3468 42.6541 33.6964 42.2723 33.0951 41.8213L31.2379 40.4284C30.4175 39.8131 29.6966 39.0753 29.1006 38.2408L27.5 36L25.3242 32.9539C25.1084 32.6518 24.9166 32.3332 24.7505 32.0011L24.6708 31.8416C24.2297 30.9593 24 29.9864 24 29V28.618C24 27.8828 24.1712 27.1576 24.5 26.5V26.5C24.8288 25.8424 25.3062 25.2703 25.8944 24.8292L26.9194 24.0605C26.9731 24.0202 27.0238 23.9762 27.0713 23.9287V23.9287C27.5953 23.4047 28.4345 23.3724 28.9972 23.8548L30.7348 25.3441C31.2272 25.7662 31.5446 26.3565 31.625 27V27Z" stroke="#C00046" stroke-width="3"/>
<path d="M18 44.5L16.7482 39.8059C16.2515 37.9433 16 36.0238 16 34.0961V33.0988C16 31.3775 16.2775 29.6675 16.8218 28.0346V28.0346C17.2719 26.6842 17.9001 25.3999 18.6896 24.2156L19.0482 23.6777C20.0121 22.2319 21.1574 20.9156 22.4562 19.7612L22.5183 19.706C24.1613 18.2455 26.0358 17.0684 28.065 16.2229V16.2229C30.0092 15.4128 32.0702 14.9177 34.1702 14.7561L34.2832 14.7474C36.4138 14.5836 38.5569 14.7642 40.6299 15.2825V15.2825C42.5328 15.7582 44.3549 16.5129 46.0368 17.5221L46.7981 17.9789C47.9284 18.6571 48.9713 19.4713 49.9034 20.4034V20.4034C50.9626 21.4626 51.8691 22.6643 52.5966 23.9738L52.9239 24.5631C53.6392 25.8506 54.2135 27.2115 54.6367 28.6223V28.6223C55.2092 30.5305 55.5 32.5121 55.5 34.5044V36L55.4939 36.0552C55.1672 38.9952 54.3229 41.8542 53 44.5V44.5L52.4109 45.4425C51.1514 47.4577 49.4773 49.1818 47.5 50.5V50.5L45.3656 51.6858C43.7942 52.5588 42.1234 53.2391 40.3893 53.712L39.681 53.9052C38.2335 54.3 36.7398 54.5 35.2394 54.5V54.5C33.425 54.5 31.6225 54.2075 29.9012 53.6337L29.5 53.5L28.2103 53.0701C27.0752 52.6917 25.9956 52.1637 25 51.5V51.5L23.5 50.5" stroke="#C00046" stroke-width="3"/>
<path d="M18.0002 43.4996L14.0012 56.9974" stroke="#C00046" stroke-width="3"/>
<path d="M24.9973 50.4936L14.5 56" stroke="#C00046" stroke-width="3"/>
<rect x="122" y="14" width="40" height="40" rx="8" stroke="#C00046" stroke-width="4"/>
<path d="M157 22C157 23.6569 155.657 25 154 25C152.343 25 151 23.6569 151 22C151 20.3431 152.343 19 154 19C155.657 19 157 20.3431 157 22Z" fill="#C00046"/>
<circle cx="141.5" cy="34.5" r="9.5" stroke="#C00046" stroke-width="4"/>
<circle cx="249" cy="33" r="22.5" stroke="#C00046" stroke-width="3"/>
<path d="M236.5 31L256.855 22.56C256.952 22.5201 257.051 22.4897 257.154 22.4693V22.4693C258.27 22.246 259.254 23.2302 259.031 24.3465L258.5 27L255.544 43.2607C255.515 43.4194 255.463 43.5733 255.391 43.7176V43.7176C254.923 44.6535 253.73 44.9499 252.878 44.3417L247.5 40.5" stroke="#C00046" stroke-width="3"/>
<path d="M236.5 31L234.702 31.8989C234.064 32.2181 233.85 33.0245 234.246 33.6183V33.6183C234.409 33.8639 234.659 34.0397 234.945 34.1113L238.621 35.0302C240.853 35.5884 242.346 37.6903 242.138 39.9822L242.057 40.8776C242.02 41.282 242.113 41.6877 242.322 42.0359V42.0359C242.935 43.0591 244.326 43.2775 245.224 42.4917L247.5 40.5L248.5 39.5" stroke="#C00046" stroke-width="3"/>
<path d="M255.5 26.5L244.5 37.5L244 42L239.5 36L255.5 26.5Z" fill="#C00046"/>
</svg>
