<svg width="230" height="32" viewBox="0 0 230 32" fill="none" xmlns="http://www.w3.org/2000/svg">
<path d="M17 0L20.8167 11.0557H33.168L23.1756 17.8885L26.9923 28.9443L17 22.1115L7.00765 28.9443L10.8244 17.8885L0.832039 11.0557H13.1833L17 0Z" fill="#C00046"/>
<path d="M213 1.5322L216.344 11.2189L216.46 11.5557H216.817H227.551L218.893 17.4758L218.579 17.6911L218.703 18.0517L222.026 27.6779L213.282 21.6987L213 21.5057L212.718 21.6987L203.974 27.6779L207.297 18.0517L207.421 17.6911L207.107 17.4758L198.449 11.5557H209.183H209.54L209.656 11.2189L213 1.5322Z" fill="white" stroke="#C00046"/>
<path d="M164 0L167.817 11.0557H180.168L170.176 17.8885L173.992 28.9443L164 22.1115L154.008 28.9443L157.824 17.8885L147.832 11.0557H160.183L164 0Z" fill="#C00046"/>
<path d="M115 0L118.817 11.0557H131.168L121.176 17.8885L124.992 28.9443L115 22.1115L105.008 28.9443L108.824 17.8885L98.832 11.0557H111.183L115 0Z" fill="#C00046"/>
<path d="M66 0L69.8167 11.0557H82.168L72.1756 17.8885L75.9923 28.9443L66 22.1115L56.0077 28.9443L59.8244 17.8885L49.832 11.0557H62.1833L66 0Z" fill="#C00046"/>
</svg>
