<svg width="721" height="214" viewBox="0 0 721 214" fill="none" xmlns="http://www.w3.org/2000/svg">
<rect x="2" y="2" width="717" height="210" rx="28" fill="white" stroke="#C00046" stroke-width="4"/>
<path d="M117.5 58C117.5 75.3622 102.314 89.5 83.5 89.5C64.6862 89.5 49.5 75.3622 49.5 58C49.5 40.6378 64.6862 26.5 83.5 26.5C102.314 26.5 117.5 40.6378 117.5 58Z" fill="#E9E9E9" stroke="#C00046"/>
<path d="M166.885 99.3622H164.229C164.153 98.9266 164.013 98.5407 163.81 98.2045C163.606 97.8636 163.353 97.5748 163.05 97.3381C162.747 97.1013 162.401 96.9238 162.013 96.8054C161.629 96.6823 161.215 96.6207 160.77 96.6207C159.979 96.6207 159.278 96.8196 158.668 97.2173C158.057 97.6103 157.579 98.188 157.233 98.9503C156.887 99.7079 156.714 100.634 156.714 101.727C156.714 102.84 156.887 103.777 157.233 104.54C157.583 105.297 158.062 105.87 158.668 106.259C159.278 106.642 159.977 106.834 160.763 106.834C161.198 106.834 161.606 106.777 161.984 106.663C162.368 106.545 162.711 106.372 163.014 106.145C163.322 105.918 163.58 105.638 163.788 105.307C164.001 104.975 164.148 104.597 164.229 104.17L166.885 104.185C166.786 104.876 166.57 105.525 166.239 106.131C165.912 106.737 165.483 107.272 164.953 107.736C164.423 108.195 163.803 108.555 163.092 108.815C162.382 109.071 161.594 109.199 160.727 109.199C159.449 109.199 158.308 108.903 157.304 108.311C156.3 107.719 155.509 106.865 154.932 105.747C154.354 104.63 154.065 103.29 154.065 101.727C154.065 100.16 154.357 98.8201 154.939 97.7074C155.521 96.59 156.314 95.7353 157.318 95.1435C158.322 94.5516 159.458 94.2557 160.727 94.2557C161.537 94.2557 162.29 94.3693 162.986 94.5966C163.682 94.8239 164.302 95.1577 164.847 95.598C165.391 96.0336 165.839 96.5687 166.189 97.2031C166.544 97.8329 166.776 98.5526 166.885 99.3622ZM169.184 109V98.0909H178.396V109H175.917V100.2H171.642V109H169.184ZM184.179 109.22C183.488 109.22 182.865 109.097 182.311 108.851C181.762 108.6 181.326 108.231 181.004 107.743C180.687 107.255 180.528 106.654 180.528 105.939C180.528 105.323 180.642 104.814 180.869 104.412C181.097 104.009 181.407 103.688 181.8 103.446C182.193 103.205 182.635 103.022 183.128 102.899C183.625 102.771 184.139 102.679 184.669 102.622C185.308 102.556 185.827 102.497 186.224 102.445C186.622 102.388 186.911 102.303 187.091 102.189C187.276 102.071 187.368 101.888 187.368 101.642V101.599C187.368 101.064 187.209 100.65 186.892 100.357C186.575 100.063 186.118 99.9162 185.521 99.9162C184.892 99.9162 184.392 100.054 184.023 100.328C183.658 100.603 183.412 100.927 183.284 101.301L180.884 100.96C181.073 100.297 181.385 99.7434 181.821 99.2983C182.257 98.8485 182.789 98.5123 183.419 98.2898C184.049 98.0625 184.745 97.9489 185.507 97.9489C186.033 97.9489 186.556 98.0104 187.077 98.1335C187.598 98.2566 188.073 98.4602 188.504 98.7443C188.935 99.0237 189.281 99.4048 189.541 99.8878C189.806 100.371 189.939 100.974 189.939 101.699V109H187.467V107.501H187.382C187.226 107.804 187.006 108.089 186.722 108.354C186.442 108.614 186.089 108.825 185.663 108.986C185.242 109.142 184.747 109.22 184.179 109.22ZM184.847 107.331C185.363 107.331 185.81 107.229 186.189 107.026C186.568 106.817 186.859 106.543 187.062 106.202C187.271 105.861 187.375 105.489 187.375 105.087V103.801C187.295 103.867 187.157 103.929 186.963 103.986C186.774 104.043 186.561 104.092 186.324 104.135C186.087 104.178 185.853 104.215 185.621 104.249C185.389 104.282 185.188 104.31 185.017 104.334C184.634 104.386 184.29 104.471 183.987 104.589C183.684 104.708 183.445 104.874 183.27 105.087C183.095 105.295 183.007 105.565 183.007 105.896C183.007 106.37 183.18 106.727 183.526 106.969C183.871 107.21 184.312 107.331 184.847 107.331ZM197.283 109.213C196.194 109.213 195.259 108.974 194.477 108.496C193.701 108.018 193.102 107.357 192.68 106.514C192.264 105.667 192.055 104.691 192.055 103.588C192.055 102.48 192.268 101.502 192.695 100.655C193.121 99.8026 193.722 99.1397 194.499 98.6662C195.28 98.188 196.203 97.9489 197.268 97.9489C198.154 97.9489 198.938 98.1122 199.619 98.4389C200.306 98.7609 200.853 99.2178 201.26 99.8097C201.667 100.397 201.899 101.083 201.956 101.869H199.499C199.399 101.344 199.162 100.906 198.788 100.555C198.419 100.2 197.924 100.023 197.304 100.023C196.778 100.023 196.317 100.165 195.919 100.449C195.521 100.728 195.211 101.131 194.989 101.656C194.771 102.182 194.662 102.812 194.662 103.545C194.662 104.289 194.771 104.928 194.989 105.463C195.206 105.993 195.512 106.403 195.905 106.692C196.303 106.976 196.769 107.118 197.304 107.118C197.683 107.118 198.021 107.047 198.32 106.905C198.623 106.758 198.876 106.547 199.08 106.273C199.283 105.998 199.423 105.664 199.499 105.271H201.956C201.894 106.043 201.667 106.727 201.274 107.324C200.881 107.916 200.346 108.38 199.669 108.716C198.992 109.047 198.196 109.213 197.283 109.213ZM206.546 105.52L210.914 98.0909H213.556V109H211.07V101.564L206.716 109H204.067V98.0909H206.546V105.52ZM224.939 94.0568L225.834 95.7188C225.517 95.9934 225.161 96.1922 224.768 96.3153C224.375 96.4384 223.914 96.5189 223.384 96.5568C222.858 96.59 222.233 96.6136 221.509 96.6278C220.694 96.6468 220.029 96.8007 219.513 97.0895C218.997 97.3783 218.601 97.8163 218.327 98.4034C218.052 98.9858 217.872 99.7292 217.787 100.634H217.908C218.249 99.9659 218.727 99.4569 219.342 99.1065C219.958 98.7562 220.68 98.581 221.509 98.581C222.413 98.581 223.211 98.7846 223.902 99.1918C224.598 99.5942 225.14 100.179 225.528 100.946C225.921 101.713 226.118 102.641 226.118 103.73C226.118 104.852 225.907 105.825 225.486 106.649C225.064 107.468 224.465 108.1 223.689 108.545C222.917 108.991 222.001 109.213 220.94 109.213C219.884 109.213 218.966 108.983 218.185 108.524C217.408 108.06 216.807 107.376 216.381 106.472C215.959 105.562 215.749 104.443 215.749 103.112V102.132C215.749 99.5658 216.227 97.6506 217.183 96.3864C218.14 95.1222 219.558 94.4782 221.438 94.4545C221.996 94.4451 222.496 94.4427 222.936 94.4474C223.381 94.4522 223.769 94.4309 224.101 94.3835C224.432 94.3362 224.712 94.2273 224.939 94.0568ZM220.955 107.153C221.48 107.153 221.935 107.018 222.318 106.749C222.702 106.474 222.995 106.086 223.199 105.584C223.407 105.082 223.511 104.488 223.511 103.801C223.511 103.124 223.407 102.549 223.199 102.075C222.991 101.597 222.695 101.232 222.311 100.982C221.928 100.731 221.471 100.605 220.94 100.605C220.543 100.605 220.185 100.676 219.868 100.818C219.551 100.96 219.281 101.169 219.058 101.443C218.836 101.718 218.665 102.052 218.547 102.445C218.429 102.838 218.365 103.29 218.355 103.801C218.355 104.829 218.587 105.645 219.051 106.251C219.515 106.853 220.15 107.153 220.955 107.153ZM233.064 109.213C231.999 109.213 231.075 108.979 230.294 108.51C229.513 108.041 228.907 107.385 228.476 106.543C228.05 105.7 227.837 104.715 227.837 103.588C227.837 102.461 228.05 101.474 228.476 100.626C228.907 99.7789 229.513 99.1207 230.294 98.652C231.075 98.1832 231.999 97.9489 233.064 97.9489C234.129 97.9489 235.053 98.1832 235.834 98.652C236.615 99.1207 237.219 99.7789 237.645 100.626C238.076 101.474 238.291 102.461 238.291 103.588C238.291 104.715 238.076 105.7 237.645 106.543C237.219 107.385 236.615 108.041 235.834 108.51C235.053 108.979 234.129 109.213 233.064 109.213ZM233.078 107.153C233.656 107.153 234.139 106.995 234.527 106.678C234.915 106.356 235.204 105.925 235.393 105.385C235.588 104.845 235.685 104.244 235.685 103.581C235.685 102.913 235.588 102.31 235.393 101.77C235.204 101.225 234.915 100.792 234.527 100.47C234.139 100.148 233.656 99.9872 233.078 99.9872C232.486 99.9872 231.994 100.148 231.601 100.47C231.213 100.792 230.921 101.225 230.727 101.77C230.538 102.31 230.443 102.913 230.443 103.581C230.443 104.244 230.538 104.845 230.727 105.385C230.921 105.925 231.213 106.356 231.601 106.678C231.994 106.995 232.486 107.153 233.078 107.153ZM245.434 109V98.0909H250.015C251.308 98.0909 252.328 98.349 253.076 98.8651C253.829 99.3812 254.206 100.101 254.206 101.024C254.206 101.635 253.993 102.134 253.566 102.523C253.145 102.906 252.57 103.164 251.841 103.297C252.413 103.344 252.915 103.489 253.346 103.73C253.782 103.972 254.123 104.289 254.369 104.682C254.615 105.075 254.738 105.527 254.738 106.038C254.738 106.64 254.58 107.163 254.262 107.608C253.95 108.048 253.493 108.392 252.892 108.638C252.295 108.879 251.571 109 250.718 109H245.434ZM247.842 106.976H250.718C251.192 106.976 251.564 106.865 251.833 106.642C252.103 106.415 252.238 106.107 252.238 105.719C252.238 105.269 252.103 104.916 251.833 104.661C251.564 104.4 251.192 104.27 250.718 104.27H247.842V106.976ZM247.842 102.608H250.065C250.415 102.608 250.716 102.558 250.967 102.459C251.218 102.355 251.41 102.21 251.542 102.026C251.675 101.836 251.741 101.611 251.741 101.351C251.741 100.977 251.587 100.683 251.279 100.47C250.976 100.257 250.555 100.151 250.015 100.151H247.842V102.608ZM259.999 109.22C259.308 109.22 258.685 109.097 258.131 108.851C257.582 108.6 257.147 108.231 256.825 107.743C256.507 107.255 256.349 106.654 256.349 105.939C256.349 105.323 256.462 104.814 256.69 104.412C256.917 104.009 257.227 103.688 257.62 103.446C258.013 103.205 258.456 103.022 258.948 102.899C259.445 102.771 259.959 102.679 260.489 102.622C261.129 102.556 261.647 102.497 262.045 102.445C262.442 102.388 262.731 102.303 262.911 102.189C263.096 102.071 263.188 101.888 263.188 101.642V101.599C263.188 101.064 263.03 100.65 262.712 100.357C262.395 100.063 261.938 99.9162 261.342 99.9162C260.712 99.9162 260.212 100.054 259.843 100.328C259.478 100.603 259.232 100.927 259.104 101.301L256.704 100.96C256.893 100.297 257.206 99.7434 257.641 99.2983C258.077 98.8485 258.61 98.5123 259.239 98.2898C259.869 98.0625 260.565 97.9489 261.327 97.9489C261.853 97.9489 262.376 98.0104 262.897 98.1335C263.418 98.2566 263.894 98.4602 264.325 98.7443C264.755 99.0237 265.101 99.4048 265.362 99.8878C265.627 100.371 265.759 100.974 265.759 101.699V109H263.288V107.501H263.202C263.046 107.804 262.826 108.089 262.542 108.354C262.263 108.614 261.91 108.825 261.484 108.986C261.062 109.142 260.567 109.22 259.999 109.22ZM260.667 107.331C261.183 107.331 261.63 107.229 262.009 107.026C262.388 106.817 262.679 106.543 262.883 106.202C263.091 105.861 263.195 105.489 263.195 105.087V103.801C263.115 103.867 262.978 103.929 262.783 103.986C262.594 104.043 262.381 104.092 262.144 104.135C261.907 104.178 261.673 104.215 261.441 104.249C261.209 104.282 261.008 104.31 260.837 104.334C260.454 104.386 260.111 104.471 259.808 104.589C259.504 104.708 259.265 104.874 259.09 105.087C258.915 105.295 258.827 105.565 258.827 105.896C258.827 106.37 259 106.727 259.346 106.969C259.692 107.21 260.132 107.331 260.667 107.331ZM274.623 106.01L277.862 98.0909H279.935L275.525 109H273.728L269.417 98.0909H271.469L274.623 106.01ZM270.823 98.0909V109H268.344V98.0909H270.823ZM278.529 109V98.0909H280.987V109H278.529ZM287.936 106.01H290.486C290.509 106.417 290.692 106.732 291.033 106.955C291.374 107.177 291.816 107.288 292.361 107.288C292.915 107.288 293.381 107.168 293.76 106.926C294.143 106.68 294.335 106.308 294.335 105.811C294.335 105.518 294.262 105.259 294.115 105.037C293.968 104.81 293.762 104.634 293.497 104.511C293.232 104.388 292.92 104.327 292.56 104.327H290.891V102.501H292.56C293.095 102.501 293.5 102.378 293.774 102.132C294.054 101.886 294.193 101.576 294.193 101.202C294.193 100.799 294.046 100.473 293.753 100.222C293.464 99.9706 293.064 99.8452 292.553 99.8452C292.041 99.8452 291.615 99.9612 291.274 100.193C290.938 100.425 290.763 100.723 290.749 101.088H288.213C288.223 100.454 288.412 99.902 288.781 99.4332C289.155 98.9645 289.657 98.5999 290.287 98.3395C290.921 98.0791 291.636 97.9489 292.432 97.9489C293.284 97.9489 294.02 98.0767 294.641 98.3324C295.261 98.5881 295.739 98.9455 296.075 99.4048C296.411 99.8594 296.58 100.394 296.58 101.01C296.58 101.602 296.395 102.092 296.026 102.48C295.656 102.864 295.159 103.138 294.534 103.304V103.418C294.965 103.441 295.353 103.564 295.699 103.787C296.045 104.005 296.319 104.301 296.523 104.675C296.726 105.049 296.828 105.482 296.828 105.974C296.828 106.642 296.636 107.22 296.253 107.707C295.869 108.19 295.341 108.562 294.669 108.822C294.001 109.083 293.237 109.213 292.375 109.213C291.537 109.213 290.786 109.088 290.124 108.837C289.465 108.581 288.942 108.214 288.554 107.736C288.166 107.258 287.96 106.682 287.936 106.01ZM301.991 109.22C301.3 109.22 300.678 109.097 300.124 108.851C299.574 108.6 299.139 108.231 298.817 107.743C298.5 107.255 298.341 106.654 298.341 105.939C298.341 105.323 298.455 104.814 298.682 104.412C298.909 104.009 299.219 103.688 299.612 103.446C300.005 103.205 300.448 103.022 300.94 102.899C301.438 102.771 301.951 102.679 302.482 102.622C303.121 102.556 303.639 102.497 304.037 102.445C304.435 102.388 304.723 102.303 304.903 102.189C305.088 102.071 305.18 101.888 305.18 101.642V101.599C305.18 101.064 305.022 100.65 304.705 100.357C304.387 100.063 303.93 99.9162 303.334 99.9162C302.704 99.9162 302.205 100.054 301.835 100.328C301.471 100.603 301.224 100.927 301.097 101.301L298.696 100.96C298.885 100.297 299.198 99.7434 299.634 99.2983C300.069 98.8485 300.602 98.5123 301.232 98.2898C301.861 98.0625 302.557 97.9489 303.32 97.9489C303.845 97.9489 304.368 98.0104 304.889 98.1335C305.41 98.2566 305.886 98.4602 306.317 98.7443C306.748 99.0237 307.093 99.4048 307.354 99.8878C307.619 100.371 307.751 100.974 307.751 101.699V109H305.28V107.501H305.195C305.038 107.804 304.818 108.089 304.534 108.354C304.255 108.614 303.902 108.825 303.476 108.986C303.054 109.142 302.56 109.22 301.991 109.22ZM302.659 107.331C303.175 107.331 303.623 107.229 304.001 107.026C304.38 106.817 304.671 106.543 304.875 106.202C305.083 105.861 305.188 105.489 305.188 105.087V103.801C305.107 103.867 304.97 103.929 304.776 103.986C304.586 104.043 304.373 104.092 304.136 104.135C303.9 104.178 303.665 104.215 303.433 104.249C303.201 104.282 303 104.31 302.83 104.334C302.446 104.386 302.103 104.471 301.8 104.589C301.497 104.708 301.258 104.874 301.082 105.087C300.907 105.295 300.82 105.565 300.82 105.896C300.82 106.37 300.992 106.727 301.338 106.969C301.684 107.21 302.124 107.331 302.659 107.331ZM314.701 100.2V98.0909H324.246V100.2H320.717V109H318.231V100.2H314.701ZM330.603 109.213C329.538 109.213 328.614 108.979 327.833 108.51C327.052 108.041 326.446 107.385 326.015 106.543C325.589 105.7 325.376 104.715 325.376 103.588C325.376 102.461 325.589 101.474 326.015 100.626C326.446 99.7789 327.052 99.1207 327.833 98.652C328.614 98.1832 329.538 97.9489 330.603 97.9489C331.668 97.9489 332.592 98.1832 333.373 98.652C334.154 99.1207 334.758 99.7789 335.184 100.626C335.615 101.474 335.83 102.461 335.83 103.588C335.83 104.715 335.615 105.7 335.184 106.543C334.758 107.385 334.154 108.041 333.373 108.51C332.592 108.979 331.668 109.213 330.603 109.213ZM330.617 107.153C331.195 107.153 331.678 106.995 332.066 106.678C332.454 106.356 332.743 105.925 332.933 105.385C333.127 104.845 333.224 104.244 333.224 103.581C333.224 102.913 333.127 102.31 332.933 101.77C332.743 101.225 332.454 100.792 332.066 100.47C331.678 100.148 331.195 99.9872 330.617 99.9872C330.025 99.9872 329.533 100.148 329.14 100.47C328.752 100.792 328.46 101.225 328.266 101.77C328.077 102.31 327.982 102.913 327.982 103.581C327.982 104.244 328.077 104.845 328.266 105.385C328.46 105.925 328.752 106.356 329.14 106.678C329.533 106.995 330.025 107.153 330.617 107.153ZM338.012 113.091V98.0909H340.541V99.8949H340.69C340.823 99.6297 341.01 99.348 341.251 99.0497C341.493 98.7467 341.819 98.4886 342.231 98.2756C342.643 98.0578 343.169 97.9489 343.808 97.9489C344.651 97.9489 345.411 98.1643 346.088 98.5952C346.77 99.0213 347.309 99.6534 347.707 100.491C348.109 101.325 348.311 102.348 348.311 103.56C348.311 104.758 348.114 105.776 347.721 106.614C347.328 107.452 346.793 108.091 346.116 108.531C345.439 108.972 344.672 109.192 343.815 109.192C343.19 109.192 342.672 109.088 342.26 108.879C341.848 108.671 341.516 108.42 341.265 108.126C341.019 107.828 340.827 107.546 340.69 107.281H340.583V113.091H338.012ZM340.534 103.545C340.534 104.251 340.633 104.869 340.832 105.399C341.036 105.929 341.327 106.344 341.706 106.642C342.089 106.936 342.553 107.082 343.098 107.082C343.666 107.082 344.142 106.931 344.525 106.628C344.909 106.32 345.198 105.901 345.392 105.371C345.591 104.836 345.69 104.227 345.69 103.545C345.69 102.868 345.593 102.267 345.399 101.741C345.205 101.216 344.916 100.804 344.532 100.506C344.149 100.207 343.671 100.058 343.098 100.058C342.548 100.058 342.082 100.203 341.699 100.491C341.315 100.78 341.024 101.185 340.825 101.706C340.631 102.227 340.534 102.84 340.534 103.545ZM349.31 100.2V98.0909H358.856V100.2H355.326V109H352.84V100.2H349.31ZM364.049 94.4545L363.815 104.724H361.528L361.301 94.4545H364.049ZM362.672 109.156C362.241 109.156 361.871 109.005 361.564 108.702C361.261 108.399 361.109 108.029 361.109 107.594C361.109 107.168 361.261 106.803 361.564 106.5C361.871 106.197 362.241 106.045 362.672 106.045C363.093 106.045 363.458 106.197 363.765 106.5C364.078 106.803 364.234 107.168 364.234 107.594C364.234 107.883 364.161 108.145 364.014 108.382C363.872 108.619 363.682 108.808 363.446 108.95C363.214 109.088 362.956 109.156 362.672 109.156ZM385.147 101.727C385.147 103.295 384.853 104.637 384.266 105.754C383.684 106.867 382.888 107.719 381.88 108.311C380.876 108.903 379.737 109.199 378.463 109.199C377.19 109.199 376.049 108.903 375.04 108.311C374.036 107.714 373.241 106.86 372.654 105.747C372.071 104.63 371.78 103.29 371.78 101.727C371.78 100.16 372.071 98.8201 372.654 97.7074C373.241 96.59 374.036 95.7353 375.04 95.1435C376.049 94.5516 377.19 94.2557 378.463 94.2557C379.737 94.2557 380.876 94.5516 381.88 95.1435C382.888 95.7353 383.684 96.59 384.266 97.7074C384.853 98.8201 385.147 100.16 385.147 101.727ZM382.498 101.727C382.498 100.624 382.325 99.6937 381.979 98.9361C381.638 98.1738 381.165 97.5985 380.559 97.2102C379.953 96.8172 379.254 96.6207 378.463 96.6207C377.673 96.6207 376.974 96.8172 376.368 97.2102C375.762 97.5985 375.286 98.1738 374.941 98.9361C374.6 99.6937 374.429 100.624 374.429 101.727C374.429 102.83 374.6 103.763 374.941 104.526C375.286 105.283 375.762 105.858 376.368 106.251C376.974 106.64 377.673 106.834 378.463 106.834C379.254 106.834 379.953 106.64 380.559 106.251C381.165 105.858 381.638 105.283 381.979 104.526C382.325 103.763 382.498 102.83 382.498 101.727ZM395.017 102.48V104.589H389.207V102.48H395.017ZM390.003 98.0909V109H387.524V98.0909H390.003ZM396.7 98.0909V109H394.229V98.0909H396.7ZM409.021 109.213C407.932 109.213 406.997 108.974 406.216 108.496C405.439 108.018 404.84 107.357 404.419 106.514C404.002 105.667 403.794 104.691 403.794 103.588C403.794 102.48 404.007 101.502 404.433 100.655C404.859 99.8026 405.46 99.1397 406.237 98.6662C407.018 98.188 407.941 97.9489 409.007 97.9489C409.892 97.9489 410.676 98.1122 411.358 98.4389C412.044 98.7609 412.591 99.2178 412.998 99.8097C413.405 100.397 413.637 101.083 413.694 101.869H411.237C411.137 101.344 410.901 100.906 410.527 100.555C410.157 100.2 409.663 100.023 409.042 100.023C408.517 100.023 408.055 100.165 407.657 100.449C407.26 100.728 406.949 101.131 406.727 101.656C406.509 102.182 406.4 102.812 406.4 103.545C406.4 104.289 406.509 104.928 406.727 105.463C406.945 105.993 407.25 106.403 407.643 106.692C408.041 106.976 408.507 107.118 409.042 107.118C409.421 107.118 409.76 107.047 410.058 106.905C410.361 106.758 410.614 106.547 410.818 106.273C411.021 105.998 411.161 105.664 411.237 105.271H413.694C413.633 106.043 413.405 106.727 413.012 107.324C412.619 107.916 412.084 108.38 411.407 108.716C410.73 109.047 409.935 109.213 409.021 109.213ZM415.013 100.2V98.0909H424.559V100.2H421.029V109H418.543V100.2H415.013ZM429.296 109.22C428.605 109.22 427.982 109.097 427.428 108.851C426.879 108.6 426.443 108.231 426.121 107.743C425.804 107.255 425.646 106.654 425.646 105.939C425.646 105.323 425.759 104.814 425.987 104.412C426.214 104.009 426.524 103.688 426.917 103.446C427.31 103.205 427.753 103.022 428.245 102.899C428.742 102.771 429.256 102.679 429.786 102.622C430.425 102.556 430.944 102.497 431.342 102.445C431.739 102.388 432.028 102.303 432.208 102.189C432.393 102.071 432.485 101.888 432.485 101.642V101.599C432.485 101.064 432.326 100.65 432.009 100.357C431.692 100.063 431.235 99.9162 430.638 99.9162C430.009 99.9162 429.509 100.054 429.14 100.328C428.775 100.603 428.529 100.927 428.401 101.301L426.001 100.96C426.19 100.297 426.503 99.7434 426.938 99.2983C427.374 98.8485 427.906 98.5123 428.536 98.2898C429.166 98.0625 429.862 97.9489 430.624 97.9489C431.15 97.9489 431.673 98.0104 432.194 98.1335C432.715 98.2566 433.191 98.4602 433.621 98.7443C434.052 99.0237 434.398 99.4048 434.658 99.8878C434.924 100.371 435.056 100.974 435.056 101.699V109H432.585V107.501H432.499C432.343 107.804 432.123 108.089 431.839 108.354C431.559 108.614 431.207 108.825 430.781 108.986C430.359 109.142 429.864 109.22 429.296 109.22ZM429.964 107.331C430.48 107.331 430.927 107.229 431.306 107.026C431.685 106.817 431.976 106.543 432.18 106.202C432.388 105.861 432.492 105.489 432.492 105.087V103.801C432.412 103.867 432.274 103.929 432.08 103.986C431.891 104.043 431.678 104.092 431.441 104.135C431.204 104.178 430.97 104.215 430.738 104.249C430.506 104.282 430.305 104.31 430.134 104.334C429.751 104.386 429.407 104.471 429.104 104.589C428.801 104.708 428.562 104.874 428.387 105.087C428.212 105.295 428.124 105.565 428.124 105.896C428.124 106.37 428.297 106.727 428.643 106.969C428.988 107.21 429.429 107.331 429.964 107.331ZM436.888 109L436.874 106.884H437.251C437.535 106.884 437.774 106.82 437.968 106.692C438.162 106.564 438.323 106.351 438.451 106.053C438.579 105.75 438.678 105.342 438.749 104.831C438.82 104.32 438.87 103.683 438.898 102.92L439.09 98.0909H447.045V109H444.559V100.2H441.427L441.256 103.716C441.214 104.625 441.112 105.413 440.951 106.081C440.795 106.744 440.572 107.291 440.283 107.722C439.999 108.152 439.642 108.474 439.211 108.688C438.78 108.896 438.271 109 437.684 109H436.888ZM161.814 126.48V128.589H156.004V126.48H161.814ZM156.8 122.091V133H154.321V122.091H156.8ZM163.497 122.091V133H161.026V122.091H163.497ZM169.238 133.22C168.546 133.22 167.924 133.097 167.37 132.851C166.82 132.6 166.385 132.231 166.063 131.743C165.746 131.255 165.587 130.654 165.587 129.939C165.587 129.323 165.701 128.814 165.928 128.412C166.155 128.009 166.465 127.688 166.858 127.446C167.251 127.205 167.694 127.022 168.186 126.899C168.684 126.771 169.197 126.679 169.728 126.622C170.367 126.556 170.885 126.497 171.283 126.445C171.681 126.388 171.97 126.303 172.15 126.189C172.334 126.071 172.426 125.888 172.426 125.642V125.599C172.426 125.064 172.268 124.65 171.951 124.357C171.633 124.063 171.176 123.916 170.58 123.916C169.95 123.916 169.451 124.054 169.081 124.328C168.717 124.603 168.471 124.927 168.343 125.301L165.942 124.96C166.132 124.297 166.444 123.743 166.88 123.298C167.315 122.848 167.848 122.512 168.478 122.29C169.107 122.062 169.803 121.949 170.566 121.949C171.091 121.949 171.614 122.01 172.135 122.134C172.656 122.257 173.132 122.46 173.563 122.744C173.994 123.024 174.339 123.405 174.6 123.888C174.865 124.371 174.998 124.974 174.998 125.699V133H172.526V131.501H172.441C172.284 131.804 172.064 132.089 171.78 132.354C171.501 132.614 171.148 132.825 170.722 132.986C170.301 133.142 169.806 133.22 169.238 133.22ZM169.905 131.331C170.421 131.331 170.869 131.229 171.248 131.026C171.626 130.817 171.917 130.543 172.121 130.202C172.329 129.861 172.434 129.489 172.434 129.087V127.801C172.353 127.867 172.216 127.929 172.022 127.986C171.832 128.043 171.619 128.092 171.382 128.135C171.146 128.178 170.911 128.215 170.679 128.249C170.447 128.282 170.246 128.31 170.076 128.334C169.692 128.386 169.349 128.471 169.046 128.589C168.743 128.708 168.504 128.874 168.328 129.087C168.153 129.295 168.066 129.565 168.066 129.896C168.066 130.37 168.239 130.727 168.584 130.969C168.93 131.21 169.37 131.331 169.905 131.331ZM182.341 133.213C181.252 133.213 180.317 132.974 179.536 132.496C178.759 132.018 178.16 131.357 177.739 130.514C177.322 129.667 177.114 128.691 177.114 127.588C177.114 126.48 177.327 125.502 177.753 124.655C178.179 123.803 178.781 123.14 179.557 122.666C180.338 122.188 181.262 121.949 182.327 121.949C183.212 121.949 183.996 122.112 184.678 122.439C185.364 122.761 185.911 123.218 186.319 123.81C186.726 124.397 186.958 125.083 187.015 125.869H184.557C184.458 125.344 184.221 124.906 183.847 124.555C183.478 124.2 182.983 124.023 182.363 124.023C181.837 124.023 181.375 124.165 180.978 124.449C180.58 124.728 180.27 125.131 180.047 125.656C179.829 126.182 179.721 126.812 179.721 127.545C179.721 128.289 179.829 128.928 180.047 129.463C180.265 129.993 180.57 130.403 180.963 130.692C181.361 130.976 181.828 131.118 182.363 131.118C182.741 131.118 183.08 131.047 183.378 130.905C183.681 130.758 183.935 130.547 184.138 130.273C184.342 129.998 184.481 129.664 184.557 129.271H187.015C186.953 130.043 186.726 130.727 186.333 131.324C185.94 131.916 185.405 132.38 184.728 132.716C184.051 133.047 183.255 133.213 182.341 133.213ZM188.334 124.2V122.091H197.879V124.2H194.349V133H191.864V124.2H188.334ZM204.236 133.213C203.17 133.213 202.247 132.979 201.466 132.51C200.685 132.041 200.079 131.385 199.648 130.543C199.222 129.7 199.009 128.715 199.009 127.588C199.009 126.461 199.222 125.474 199.648 124.626C200.079 123.779 200.685 123.121 201.466 122.652C202.247 122.183 203.17 121.949 204.236 121.949C205.301 121.949 206.224 122.183 207.006 122.652C207.787 123.121 208.391 123.779 208.817 124.626C209.248 125.474 209.463 126.461 209.463 127.588C209.463 128.715 209.248 129.7 208.817 130.543C208.391 131.385 207.787 132.041 207.006 132.51C206.224 132.979 205.301 133.213 204.236 133.213ZM204.25 131.153C204.828 131.153 205.311 130.995 205.699 130.678C206.087 130.356 206.376 129.925 206.565 129.385C206.759 128.845 206.857 128.244 206.857 127.581C206.857 126.913 206.759 126.31 206.565 125.77C206.376 125.225 206.087 124.792 205.699 124.47C205.311 124.148 204.828 123.987 204.25 123.987C203.658 123.987 203.166 124.148 202.773 124.47C202.384 124.792 202.093 125.225 201.899 125.77C201.71 126.31 201.615 126.913 201.615 127.581C201.615 128.244 201.71 128.845 201.899 129.385C202.093 129.925 202.384 130.356 202.773 130.678C203.166 130.995 203.658 131.153 204.25 131.153ZM218.094 133V124.179H215.765C215.173 124.179 214.718 124.316 214.401 124.591C214.084 124.866 213.927 125.206 213.932 125.614C213.927 126.021 214.077 126.357 214.38 126.622C214.683 126.887 215.116 127.02 215.679 127.02H218.904V128.895H215.679C214.808 128.895 214.055 128.758 213.421 128.483C212.786 128.208 212.299 127.82 211.958 127.318C211.617 126.816 211.446 126.229 211.446 125.557C211.446 124.856 211.619 124.248 211.965 123.732C212.315 123.211 212.812 122.808 213.456 122.524C214.105 122.235 214.874 122.091 215.765 122.091H220.502V133H218.094ZM211.049 133L214.096 127.403H216.631L213.577 133H211.049ZM239.475 130.891L239.262 136.125H236.841V133H235.555V130.891H239.475ZM223.091 122.091H225.569V130.884H229V122.091H231.478V130.884H234.909V122.091H237.387V133H223.091V122.091ZM243.987 129.52L248.355 122.091H250.997V133H248.511V125.564L244.158 133H241.509V122.091H243.987V129.52ZM259.916 130.01L263.154 122.091H265.228L260.818 133H259.021L254.71 122.091H256.762L259.916 130.01ZM256.116 122.091V133H253.637V122.091H256.116ZM263.822 133V122.091H266.279V133H263.822ZM275.431 137.091C275.08 137.091 274.756 137.063 274.458 137.006C274.164 136.954 273.93 136.892 273.755 136.821L274.351 134.818C274.725 134.927 275.059 134.979 275.353 134.974C275.646 134.97 275.904 134.877 276.127 134.697C276.354 134.522 276.546 134.229 276.702 133.817L276.922 133.227L272.966 122.091H275.694L278.208 130.33H278.321L280.843 122.091H283.577L279.209 134.321C279.006 134.899 278.736 135.393 278.4 135.805C278.063 136.222 277.651 136.539 277.164 136.757C276.681 136.98 276.103 137.091 275.431 137.091ZM285.356 133V122.091H287.927V126.494H288.865L292.146 122.091H295.243L291.201 127.446L295.285 133H292.174L289.184 128.888H287.927V133H285.356ZM296.743 137.091V122.091H299.271V123.895H299.42C299.553 123.63 299.74 123.348 299.982 123.05C300.223 122.747 300.55 122.489 300.962 122.276C301.374 122.058 301.899 121.949 302.538 121.949C303.381 121.949 304.141 122.164 304.818 122.595C305.5 123.021 306.04 123.653 306.438 124.491C306.84 125.325 307.041 126.348 307.041 127.56C307.041 128.758 306.845 129.776 306.452 130.614C306.059 131.452 305.524 132.091 304.847 132.531C304.17 132.972 303.402 133.192 302.545 133.192C301.92 133.192 301.402 133.088 300.99 132.879C300.578 132.671 300.247 132.42 299.996 132.126C299.75 131.828 299.558 131.546 299.42 131.281H299.314V137.091H296.743ZM299.264 127.545C299.264 128.251 299.364 128.869 299.562 129.399C299.766 129.929 300.057 130.344 300.436 130.642C300.82 130.936 301.284 131.082 301.828 131.082C302.396 131.082 302.872 130.931 303.256 130.628C303.639 130.32 303.928 129.901 304.122 129.371C304.321 128.836 304.42 128.227 304.42 127.545C304.42 126.868 304.323 126.267 304.129 125.741C303.935 125.216 303.646 124.804 303.263 124.506C302.879 124.207 302.401 124.058 301.828 124.058C301.279 124.058 300.812 124.203 300.429 124.491C300.045 124.78 299.754 125.185 299.555 125.706C299.361 126.227 299.264 126.84 299.264 127.545ZM312.382 133.22C311.691 133.22 311.068 133.097 310.514 132.851C309.965 132.6 309.529 132.231 309.207 131.743C308.89 131.255 308.732 130.654 308.732 129.939C308.732 129.323 308.845 128.814 309.072 128.412C309.3 128.009 309.61 127.688 310.003 127.446C310.396 127.205 310.839 127.022 311.331 126.899C311.828 126.771 312.342 126.679 312.872 126.622C313.511 126.556 314.03 126.497 314.428 126.445C314.825 126.388 315.114 126.303 315.294 126.189C315.479 126.071 315.571 125.888 315.571 125.642V125.599C315.571 125.064 315.412 124.65 315.095 124.357C314.778 124.063 314.321 123.916 313.724 123.916C313.095 123.916 312.595 124.054 312.226 124.328C311.861 124.603 311.615 124.927 311.487 125.301L309.087 124.96C309.276 124.297 309.589 123.743 310.024 123.298C310.46 122.848 310.992 122.512 311.622 122.29C312.252 122.062 312.948 121.949 313.71 121.949C314.236 121.949 314.759 122.01 315.28 122.134C315.801 122.257 316.277 122.46 316.707 122.744C317.138 123.024 317.484 123.405 317.744 123.888C318.009 124.371 318.142 124.974 318.142 125.699V133H315.67V131.501H315.585C315.429 131.804 315.209 132.089 314.925 132.354C314.645 132.614 314.293 132.825 313.866 132.986C313.445 133.142 312.95 133.22 312.382 133.22ZM313.05 131.331C313.566 131.331 314.013 131.229 314.392 131.026C314.771 130.817 315.062 130.543 315.266 130.202C315.474 129.861 315.578 129.489 315.578 129.087V127.801C315.498 127.867 315.36 127.929 315.166 127.986C314.977 128.043 314.764 128.092 314.527 128.135C314.29 128.178 314.056 128.215 313.824 128.249C313.592 128.282 313.391 128.31 313.22 128.334C312.837 128.386 312.493 128.471 312.19 128.589C311.887 128.708 311.648 128.874 311.473 129.087C311.298 129.295 311.21 129.565 311.21 129.896C311.21 130.37 311.383 130.727 311.729 130.969C312.074 131.21 312.515 131.331 313.05 131.331ZM320.727 122.091H323.206V130.884H326.636V122.091H329.115V130.884H332.545V122.091H335.024V133H320.727V122.091ZM342.451 133.213C341.358 133.213 340.413 132.986 339.618 132.531C338.827 132.072 338.218 131.423 337.792 130.585C337.366 129.742 337.153 128.75 337.153 127.609C337.153 126.487 337.366 125.502 337.792 124.655C338.223 123.803 338.824 123.14 339.596 122.666C340.368 122.188 341.275 121.949 342.316 121.949C342.989 121.949 343.623 122.058 344.22 122.276C344.821 122.489 345.351 122.82 345.811 123.27C346.275 123.72 346.639 124.293 346.904 124.989C347.17 125.68 347.302 126.504 347.302 127.46V128.249H338.36V126.516H344.838C344.833 126.023 344.726 125.585 344.518 125.202C344.31 124.813 344.019 124.508 343.645 124.286C343.275 124.063 342.844 123.952 342.352 123.952C341.826 123.952 341.365 124.08 340.967 124.335C340.569 124.586 340.259 124.918 340.037 125.33C339.819 125.737 339.708 126.184 339.703 126.672V128.185C339.703 128.819 339.819 129.364 340.051 129.818C340.283 130.268 340.607 130.614 341.024 130.855C341.44 131.092 341.928 131.21 342.487 131.21C342.861 131.21 343.199 131.158 343.502 131.054C343.806 130.945 344.068 130.786 344.291 130.578C344.513 130.37 344.681 130.112 344.795 129.804L347.196 130.074C347.044 130.708 346.755 131.262 346.329 131.736C345.908 132.205 345.368 132.569 344.71 132.83C344.052 133.085 343.299 133.213 342.451 133.213ZM356.97 126.48V128.589H351.161V126.48H356.97ZM351.956 122.091V133H349.477V122.091H351.956ZM358.653 122.091V133H356.182V122.091H358.653ZM363.733 129.52L368.101 122.091H370.743V133H368.257V125.564L363.904 133H361.255V122.091H363.733V129.52ZM378.213 133.213C377.119 133.213 376.175 132.986 375.379 132.531C374.589 132.072 373.98 131.423 373.554 130.585C373.128 129.742 372.915 128.75 372.915 127.609C372.915 126.487 373.128 125.502 373.554 124.655C373.985 123.803 374.586 123.14 375.358 122.666C376.13 122.188 377.036 121.949 378.078 121.949C378.75 121.949 379.385 122.058 379.982 122.276C380.583 122.489 381.113 122.82 381.572 123.27C382.036 123.72 382.401 124.293 382.666 124.989C382.931 125.68 383.064 126.504 383.064 127.46V128.249H374.122V126.516H380.599C380.595 126.023 380.488 125.585 380.28 125.202C380.071 124.813 379.78 124.508 379.406 124.286C379.037 124.063 378.606 123.952 378.114 123.952C377.588 123.952 377.126 124.08 376.729 124.335C376.331 124.586 376.021 124.918 375.798 125.33C375.58 125.737 375.469 126.184 375.464 126.672V128.185C375.464 128.819 375.58 129.364 375.812 129.818C376.045 130.268 376.369 130.614 376.786 130.855C377.202 131.092 377.69 131.21 378.249 131.21C378.623 131.21 378.961 131.158 379.264 131.054C379.567 130.945 379.83 130.786 380.053 130.578C380.275 130.37 380.443 130.112 380.557 129.804L382.957 130.074C382.806 130.708 382.517 131.262 382.091 131.736C381.67 132.205 381.13 132.569 380.472 132.83C379.813 133.085 379.061 133.213 378.213 133.213ZM391.517 130.01L394.756 122.091H396.83L392.419 133H390.623L386.311 122.091H388.364L391.517 130.01ZM387.718 122.091V133H385.239V122.091H387.718ZM395.424 133V122.091H397.881V133H395.424ZM404.468 136.168V130.884H405.335C405.567 130.704 405.761 130.46 405.917 130.152C406.074 129.839 406.201 129.473 406.301 129.051C406.405 128.625 406.49 128.149 406.556 127.624C406.623 127.093 406.682 126.523 406.734 125.912L407.047 122.091H414.93V130.884H416.62V136.168H414.135V133H406.997V136.168H404.468ZM407.977 130.884H412.473V124.165H409.277L409.106 125.912C409.011 127.067 408.886 128.057 408.73 128.881C408.574 129.705 408.323 130.372 407.977 130.884ZM417.787 133L417.773 130.884H418.149C418.433 130.884 418.672 130.82 418.866 130.692C419.061 130.564 419.222 130.351 419.349 130.053C419.477 129.75 419.577 129.342 419.648 128.831C419.719 128.32 419.768 127.683 419.797 126.92L419.989 122.091H427.943V133H425.457V124.2H422.325L422.155 127.716C422.112 128.625 422.01 129.413 421.849 130.081C421.693 130.744 421.471 131.291 421.182 131.722C420.898 132.152 420.54 132.474 420.109 132.688C419.679 132.896 419.17 133 418.582 133H417.787ZM436.981 133V124.179H434.651C434.059 124.179 433.605 124.316 433.288 124.591C432.97 124.866 432.814 125.206 432.819 125.614C432.814 126.021 432.963 126.357 433.266 126.622C433.569 126.887 434.003 127.02 434.566 127.02H437.79V128.895H434.566C433.695 128.895 432.942 128.758 432.308 128.483C431.673 128.208 431.185 127.82 430.844 127.318C430.504 126.816 430.333 126.229 430.333 125.557C430.333 124.856 430.506 124.248 430.852 123.732C431.202 123.211 431.699 122.808 432.343 122.524C432.992 122.235 433.761 122.091 434.651 122.091H439.388V133H436.981ZM429.935 133L432.982 127.403H435.518L432.464 133H429.935ZM154.321 157V146.091H163.533V157H161.054V148.2H156.778V157H154.321ZM166.176 161.091V146.091H168.705V147.895H168.854C168.987 147.63 169.174 147.348 169.415 147.05C169.657 146.747 169.983 146.489 170.395 146.276C170.807 146.058 171.333 145.949 171.972 145.949C172.815 145.949 173.575 146.164 174.252 146.595C174.934 147.021 175.473 147.653 175.871 148.491C176.274 149.325 176.475 150.348 176.475 151.56C176.475 152.758 176.278 153.776 175.885 154.614C175.492 155.452 174.957 156.091 174.28 156.531C173.603 156.972 172.836 157.192 171.979 157.192C171.354 157.192 170.836 157.088 170.424 156.879C170.012 156.671 169.68 156.42 169.429 156.126C169.183 155.828 168.991 155.546 168.854 155.281H168.748V161.091H166.176ZM168.698 151.545C168.698 152.251 168.797 152.869 168.996 153.399C169.2 153.929 169.491 154.344 169.87 154.642C170.253 154.936 170.717 155.082 171.262 155.082C171.83 155.082 172.306 154.931 172.689 154.628C173.073 154.32 173.362 153.901 173.556 153.371C173.755 152.836 173.854 152.227 173.854 151.545C173.854 150.868 173.757 150.267 173.563 149.741C173.369 149.216 173.08 148.804 172.696 148.506C172.313 148.207 171.835 148.058 171.262 148.058C170.712 148.058 170.246 148.203 169.863 148.491C169.479 148.78 169.188 149.185 168.989 149.706C168.795 150.227 168.698 150.84 168.698 151.545ZM181.816 157.22C181.124 157.22 180.502 157.097 179.948 156.851C179.399 156.6 178.963 156.231 178.641 155.743C178.324 155.255 178.165 154.654 178.165 153.939C178.165 153.323 178.279 152.814 178.506 152.412C178.733 152.009 179.043 151.688 179.436 151.446C179.829 151.205 180.272 151.022 180.765 150.899C181.262 150.771 181.775 150.679 182.306 150.622C182.945 150.556 183.463 150.497 183.861 150.445C184.259 150.388 184.548 150.303 184.728 150.189C184.912 150.071 185.005 149.888 185.005 149.642V149.599C185.005 149.064 184.846 148.65 184.529 148.357C184.212 148.063 183.755 147.916 183.158 147.916C182.528 147.916 182.029 148.054 181.659 148.328C181.295 148.603 181.049 148.927 180.921 149.301L178.52 148.96C178.71 148.297 179.022 147.743 179.458 147.298C179.893 146.848 180.426 146.512 181.056 146.29C181.685 146.062 182.382 145.949 183.144 145.949C183.669 145.949 184.193 146.01 184.713 146.134C185.234 146.257 185.71 146.46 186.141 146.744C186.572 147.024 186.917 147.405 187.178 147.888C187.443 148.371 187.576 148.974 187.576 149.699V157H185.104V155.501H185.019C184.863 155.804 184.642 156.089 184.358 156.354C184.079 156.614 183.726 156.825 183.3 156.986C182.879 157.142 182.384 157.22 181.816 157.22ZM182.483 155.331C182.999 155.331 183.447 155.229 183.826 155.026C184.204 154.817 184.496 154.543 184.699 154.202C184.908 153.861 185.012 153.489 185.012 153.087V151.801C184.931 151.867 184.794 151.929 184.6 151.986C184.41 152.043 184.197 152.092 183.961 152.135C183.724 152.178 183.489 152.215 183.257 152.249C183.025 152.282 182.824 152.31 182.654 152.334C182.27 152.386 181.927 152.471 181.624 152.589C181.321 152.708 181.082 152.874 180.907 153.087C180.731 153.295 180.644 153.565 180.644 153.896C180.644 154.37 180.817 154.727 181.162 154.969C181.508 155.21 181.948 155.331 182.483 155.331ZM189.557 154.01H192.107C192.131 154.417 192.313 154.732 192.654 154.955C192.995 155.177 193.437 155.288 193.982 155.288C194.536 155.288 195.002 155.168 195.381 154.926C195.765 154.68 195.956 154.308 195.956 153.811C195.956 153.518 195.883 153.259 195.736 153.037C195.589 152.81 195.383 152.634 195.118 152.511C194.853 152.388 194.541 152.327 194.181 152.327H192.512V150.501H194.181C194.716 150.501 195.121 150.378 195.395 150.132C195.675 149.886 195.814 149.576 195.814 149.202C195.814 148.799 195.667 148.473 195.374 148.222C195.085 147.971 194.685 147.845 194.174 147.845C193.662 147.845 193.236 147.961 192.895 148.193C192.559 148.425 192.384 148.723 192.37 149.088H189.834C189.844 148.454 190.033 147.902 190.402 147.433C190.776 146.964 191.278 146.6 191.908 146.339C192.542 146.079 193.257 145.949 194.053 145.949C194.905 145.949 195.641 146.077 196.262 146.332C196.882 146.588 197.36 146.946 197.696 147.405C198.033 147.859 198.201 148.394 198.201 149.01C198.201 149.602 198.016 150.092 197.647 150.48C197.277 150.864 196.78 151.138 196.155 151.304V151.418C196.586 151.441 196.974 151.564 197.32 151.787C197.666 152.005 197.94 152.301 198.144 152.675C198.347 153.049 198.449 153.482 198.449 153.974C198.449 154.642 198.257 155.22 197.874 155.707C197.49 156.19 196.962 156.562 196.29 156.822C195.623 157.083 194.858 157.213 193.996 157.213C193.158 157.213 192.408 157.088 191.745 156.837C191.087 156.581 190.563 156.214 190.175 155.736C189.787 155.258 189.581 154.682 189.557 154.01ZM199.507 160.168V154.884H200.374C200.606 154.704 200.8 154.46 200.956 154.152C201.113 153.839 201.24 153.473 201.34 153.051C201.444 152.625 201.529 152.149 201.596 151.624C201.662 151.093 201.721 150.523 201.773 149.912L202.086 146.091H209.969V154.884H211.659V160.168H209.174V157H202.036V160.168H199.507ZM203.016 154.884H207.512V148.165H204.316L204.145 149.912C204.051 151.067 203.925 152.057 203.769 152.881C203.613 153.705 203.362 154.372 203.016 154.884ZM221.072 150.48V152.589H215.262V150.48H221.072ZM216.058 146.091V157H213.579V146.091H216.058ZM222.755 146.091V157H220.283V146.091H222.755ZM227.835 153.52L232.203 146.091H234.845V157H232.359V149.564L228.005 157H225.356V146.091H227.835V153.52ZM237.485 157V146.091H240.056V150.494H240.994L244.275 146.091H247.371L243.33 151.446L247.414 157H244.303L241.313 152.888H240.056V157H237.485ZM252.011 157.22C251.32 157.22 250.697 157.097 250.143 156.851C249.594 156.6 249.158 156.231 248.836 155.743C248.519 155.255 248.36 154.654 248.36 153.939C248.36 153.323 248.474 152.814 248.701 152.412C248.929 152.009 249.239 151.688 249.632 151.446C250.025 151.205 250.467 151.022 250.96 150.899C251.457 150.771 251.971 150.679 252.501 150.622C253.14 150.556 253.659 150.497 254.056 150.445C254.454 150.388 254.743 150.303 254.923 150.189C255.108 150.071 255.2 149.888 255.2 149.642V149.599C255.2 149.064 255.041 148.65 254.724 148.357C254.407 148.063 253.95 147.916 253.353 147.916C252.724 147.916 252.224 148.054 251.855 148.328C251.49 148.603 251.244 148.927 251.116 149.301L248.716 148.96C248.905 148.297 249.217 147.743 249.653 147.298C250.089 146.848 250.621 146.512 251.251 146.29C251.881 146.062 252.577 145.949 253.339 145.949C253.865 145.949 254.388 146.01 254.909 146.134C255.43 146.257 255.905 146.46 256.336 146.744C256.767 147.024 257.113 147.405 257.373 147.888C257.638 148.371 257.771 148.974 257.771 149.699V157H255.299V155.501H255.214C255.058 155.804 254.838 156.089 254.554 156.354C254.274 156.614 253.922 156.825 253.495 156.986C253.074 157.142 252.579 157.22 252.011 157.22ZM252.679 155.331C253.195 155.331 253.642 155.229 254.021 155.026C254.4 154.817 254.691 154.543 254.895 154.202C255.103 153.861 255.207 153.489 255.207 153.087V151.801C255.127 151.867 254.989 151.929 254.795 151.986C254.606 152.043 254.393 152.092 254.156 152.135C253.919 152.178 253.685 152.215 253.453 152.249C253.221 152.282 253.02 152.31 252.849 152.334C252.466 152.386 252.122 152.471 251.819 152.589C251.516 152.708 251.277 152.874 251.102 153.087C250.927 153.295 250.839 153.565 250.839 153.896C250.839 154.37 251.012 154.727 251.358 154.969C251.703 155.21 252.144 155.331 252.679 155.331ZM263.502 142.455L263.268 152.724H260.981L260.754 142.455H263.502ZM262.125 157.156C261.694 157.156 261.324 157.005 261.017 156.702C260.714 156.399 260.562 156.029 260.562 155.594C260.562 155.168 260.714 154.803 261.017 154.5C261.324 154.197 261.694 154.045 262.125 154.045C262.546 154.045 262.911 154.197 263.218 154.5C263.531 154.803 263.687 155.168 263.687 155.594C263.687 155.883 263.614 156.145 263.467 156.382C263.325 156.619 263.136 156.808 262.899 156.95C262.667 157.088 262.409 157.156 262.125 157.156Z" fill="#C00045"/>
<path d="M169.662 37.4347H166.474C166.384 36.9119 166.216 36.4489 165.972 36.0455C165.727 35.6364 165.423 35.2898 165.06 35.0057C164.696 34.7216 164.281 34.5085 163.815 34.3665C163.355 34.2188 162.858 34.1449 162.324 34.1449C161.375 34.1449 160.534 34.3835 159.801 34.8608C159.068 35.3324 158.494 36.0256 158.08 36.9403C157.665 37.8494 157.457 38.9602 157.457 40.2727C157.457 41.608 157.665 42.733 158.08 43.6477C158.5 44.5568 159.074 45.2443 159.801 45.7102C160.534 46.1705 161.372 46.4006 162.315 46.4006C162.838 46.4006 163.327 46.3324 163.781 46.196C164.241 46.054 164.653 45.8466 165.017 45.5739C165.386 45.3011 165.696 44.9659 165.946 44.5682C166.202 44.1705 166.378 43.7159 166.474 43.2045L169.662 43.2216C169.543 44.0511 169.284 44.8295 168.886 45.5568C168.494 46.2841 167.98 46.9261 167.344 47.483C166.707 48.0341 165.963 48.4659 165.111 48.7784C164.259 49.0852 163.313 49.2386 162.273 49.2386C160.739 49.2386 159.369 48.8835 158.165 48.1733C156.96 47.4631 156.011 46.4375 155.318 45.0966C154.625 43.7557 154.278 42.1477 154.278 40.2727C154.278 38.392 154.628 36.7841 155.327 35.4489C156.026 34.108 156.977 33.0824 158.182 32.3722C159.386 31.6619 160.75 31.3068 162.273 31.3068C163.244 31.3068 164.148 31.4432 164.983 31.7159C165.818 31.9886 166.563 32.3892 167.216 32.9176C167.869 33.4403 168.406 34.0824 168.827 34.8438C169.253 35.5994 169.531 36.4631 169.662 37.4347ZM178.217 49.2557C176.904 49.2557 175.771 48.983 174.816 48.4375C173.867 47.8864 173.137 47.108 172.626 46.1023C172.114 45.0909 171.859 43.9006 171.859 42.5312C171.859 41.1847 172.114 40.0028 172.626 38.9858C173.143 37.9631 173.864 37.1676 174.79 36.5994C175.717 36.0256 176.805 35.7386 178.055 35.7386C178.862 35.7386 179.623 35.8693 180.339 36.1307C181.06 36.3864 181.697 36.7841 182.248 37.3239C182.805 37.8636 183.242 38.5511 183.56 39.3864C183.879 40.2159 184.038 41.2045 184.038 42.3523V43.2983H173.308V41.2188H181.08C181.075 40.6278 180.947 40.1023 180.697 39.642C180.447 39.1761 180.097 38.8097 179.648 38.5426C179.205 38.2756 178.688 38.142 178.097 38.142C177.467 38.142 176.913 38.2955 176.435 38.6023C175.958 38.9034 175.586 39.3011 175.319 39.7955C175.058 40.2841 174.924 40.821 174.918 41.4062V43.2216C174.918 43.983 175.058 44.6364 175.336 45.1818C175.614 45.7216 176.004 46.1364 176.504 46.4261C177.004 46.7102 177.589 46.8523 178.259 46.8523C178.708 46.8523 179.114 46.7898 179.478 46.6648C179.842 46.5341 180.157 46.3438 180.424 46.0938C180.691 45.8438 180.893 45.5341 181.029 45.1648L183.91 45.4886C183.728 46.25 183.381 46.9148 182.87 47.483C182.364 48.0455 181.717 48.483 180.927 48.7955C180.137 49.1023 179.234 49.2557 178.217 49.2557ZM186.648 53.9091V35.9091H189.682V38.0739H189.861C190.02 37.7557 190.244 37.4176 190.534 37.0597C190.824 36.696 191.216 36.3864 191.71 36.1307C192.205 35.8693 192.835 35.7386 193.602 35.7386C194.614 35.7386 195.526 35.9972 196.338 36.5142C197.156 37.0256 197.804 37.7841 198.281 38.7898C198.764 39.7898 199.006 41.017 199.006 42.4716C199.006 43.9091 198.77 45.1307 198.298 46.1364C197.827 47.142 197.185 47.9091 196.372 48.4375C195.56 48.9659 194.639 49.2301 193.611 49.2301C192.861 49.2301 192.239 49.1051 191.744 48.8551C191.25 48.6051 190.852 48.304 190.551 47.9517C190.256 47.5937 190.026 47.2557 189.861 46.9375H189.733V53.9091H186.648ZM189.673 42.4545C189.673 43.3011 189.793 44.0426 190.031 44.679C190.276 45.3153 190.625 45.8125 191.08 46.1705C191.54 46.5227 192.097 46.6989 192.75 46.6989C193.432 46.6989 194.003 46.517 194.463 46.1534C194.923 45.7841 195.27 45.2812 195.503 44.6449C195.741 44.0028 195.861 43.2727 195.861 42.4545C195.861 41.642 195.744 40.9205 195.511 40.2898C195.278 39.6591 194.932 39.1648 194.472 38.8068C194.011 38.4489 193.438 38.2699 192.75 38.2699C192.091 38.2699 191.531 38.4432 191.071 38.7898C190.611 39.1364 190.261 39.6222 190.023 40.2472C189.79 40.8722 189.673 41.608 189.673 42.4545ZM210.307 35.9091V38.4403H204.665V49H201.648V35.9091H210.307ZM218.037 49.2557C216.724 49.2557 215.591 48.983 214.636 48.4375C213.688 47.8864 212.957 47.108 212.446 46.1023C211.935 45.0909 211.679 43.9006 211.679 42.5312C211.679 41.1847 211.935 40.0028 212.446 38.9858C212.963 37.9631 213.685 37.1676 214.611 36.5994C215.537 36.0256 216.625 35.7386 217.875 35.7386C218.682 35.7386 219.443 35.8693 220.159 36.1307C220.881 36.3864 221.517 36.7841 222.068 37.3239C222.625 37.8636 223.063 38.5511 223.381 39.3864C223.699 40.2159 223.858 41.2045 223.858 42.3523V43.2983H213.128V41.2188H220.901C220.895 40.6278 220.767 40.1023 220.517 39.642C220.267 39.1761 219.918 38.8097 219.469 38.5426C219.026 38.2756 218.509 38.142 217.918 38.142C217.287 38.142 216.733 38.2955 216.256 38.6023C215.778 38.9034 215.406 39.3011 215.139 39.7955C214.878 40.2841 214.744 40.821 214.739 41.4062V43.2216C214.739 43.983 214.878 44.6364 215.156 45.1818C215.435 45.7216 215.824 46.1364 216.324 46.4261C216.824 46.7102 217.409 46.8523 218.08 46.8523C218.528 46.8523 218.935 46.7898 219.298 46.6648C219.662 46.5341 219.977 46.3438 220.244 46.0938C220.511 45.8438 220.713 45.5341 220.849 45.1648L223.73 45.4886C223.548 46.25 223.202 46.9148 222.69 47.483C222.185 48.0455 221.537 48.483 220.747 48.7955C219.957 49.1023 219.054 49.2557 218.037 49.2557ZM232.263 49.2557C230.951 49.2557 229.817 48.983 228.863 48.4375C227.914 47.8864 227.184 47.108 226.673 46.1023C226.161 45.0909 225.906 43.9006 225.906 42.5312C225.906 41.1847 226.161 40.0028 226.673 38.9858C227.19 37.9631 227.911 37.1676 228.837 36.5994C229.763 36.0256 230.852 35.7386 232.102 35.7386C232.908 35.7386 233.67 35.8693 234.386 36.1307C235.107 36.3864 235.744 36.7841 236.295 37.3239C236.852 37.8636 237.289 38.5511 237.607 39.3864C237.925 40.2159 238.085 41.2045 238.085 42.3523V43.2983H227.354V41.2188H235.127C235.121 40.6278 234.994 40.1023 234.744 39.642C234.494 39.1761 234.144 38.8097 233.695 38.5426C233.252 38.2756 232.735 38.142 232.144 38.142C231.513 38.142 230.96 38.2955 230.482 38.6023C230.005 38.9034 229.633 39.3011 229.366 39.7955C229.104 40.2841 228.971 40.821 228.965 41.4062V43.2216C228.965 43.983 229.104 44.6364 229.383 45.1818C229.661 45.7216 230.05 46.1364 230.55 46.4261C231.05 46.7102 231.636 46.8523 232.306 46.8523C232.755 46.8523 233.161 46.7898 233.525 46.6648C233.888 46.5341 234.204 46.3438 234.471 46.0938C234.738 45.8438 234.94 45.5341 235.076 45.1648L237.957 45.4886C237.775 46.25 237.428 46.9148 236.917 47.483C236.411 48.0455 235.763 48.483 234.974 48.7955C234.184 49.1023 233.281 49.2557 232.263 49.2557ZM240.695 49V35.9091H246.192C247.743 35.9091 248.967 36.2187 249.865 36.8381C250.768 37.4574 251.22 38.321 251.22 39.429C251.22 40.1619 250.964 40.7614 250.453 41.2273C249.947 41.6875 249.257 41.9972 248.382 42.1562C249.07 42.2131 249.672 42.3864 250.189 42.6761C250.712 42.9659 251.121 43.3466 251.416 43.8182C251.712 44.2898 251.859 44.8324 251.859 45.446C251.859 46.1676 251.669 46.7955 251.288 47.3295C250.913 47.858 250.365 48.2699 249.643 48.5653C248.928 48.8551 248.058 49 247.036 49H240.695ZM243.584 46.571H247.036C247.604 46.571 248.05 46.4375 248.374 46.1705C248.697 45.8977 248.859 45.5284 248.859 45.0625C248.859 44.5227 248.697 44.0994 248.374 43.7926C248.05 43.4801 247.604 43.3239 247.036 43.3239H243.584V46.571ZM243.584 41.3295H246.251C246.672 41.3295 247.033 41.2699 247.334 41.1506C247.635 41.0256 247.865 40.8523 248.024 40.6307C248.183 40.4034 248.263 40.1335 248.263 39.821C248.263 39.3722 248.078 39.0199 247.709 38.7642C247.345 38.5085 246.839 38.3807 246.192 38.3807H243.584V41.3295ZM258.173 49.2642C257.343 49.2642 256.596 49.1165 255.931 48.821C255.272 48.5199 254.749 48.0767 254.363 47.4915C253.982 46.9062 253.792 46.1847 253.792 45.3267C253.792 44.5881 253.928 43.9773 254.201 43.4943C254.474 43.0114 254.846 42.625 255.317 42.3352C255.789 42.0455 256.32 41.8267 256.911 41.679C257.508 41.5256 258.124 41.4148 258.761 41.3466C259.528 41.267 260.15 41.196 260.627 41.1335C261.104 41.0653 261.451 40.9631 261.667 40.8267C261.888 40.6847 261.999 40.4659 261.999 40.1705V40.1193C261.999 39.4773 261.809 38.9801 261.428 38.6278C261.048 38.2756 260.499 38.0994 259.783 38.0994C259.028 38.0994 258.428 38.2642 257.985 38.5938C257.548 38.9233 257.252 39.3125 257.099 39.7614L254.218 39.3523C254.445 38.5568 254.82 37.892 255.343 37.358C255.866 36.8182 256.505 36.4148 257.261 36.1477C258.016 35.875 258.852 35.7386 259.766 35.7386C260.397 35.7386 261.025 35.8125 261.65 35.9602C262.275 36.108 262.846 36.3523 263.363 36.6932C263.88 37.0284 264.295 37.4858 264.607 38.0653C264.925 38.6449 265.085 39.3693 265.085 40.2386V49H262.119V47.2017H262.016C261.829 47.5653 261.565 47.9062 261.224 48.2244C260.888 48.5369 260.465 48.7898 259.954 48.983C259.448 49.1705 258.854 49.2642 258.173 49.2642ZM258.974 46.9972C259.593 46.9972 260.13 46.875 260.585 46.6307C261.039 46.3807 261.388 46.0511 261.633 45.642C261.883 45.233 262.008 44.7869 262.008 44.304V42.7614C261.911 42.8409 261.746 42.9148 261.513 42.983C261.286 43.0511 261.031 43.1108 260.746 43.1619C260.462 43.2131 260.181 43.2585 259.903 43.2983C259.624 43.3381 259.383 43.3722 259.178 43.4006C258.718 43.4631 258.306 43.5653 257.942 43.7074C257.579 43.8494 257.292 44.0483 257.082 44.304C256.871 44.554 256.766 44.8778 256.766 45.2756C256.766 45.8438 256.974 46.2727 257.388 46.5625C257.803 46.8523 258.332 46.9972 258.974 46.9972ZM274.276 49V31.5455H277.438V38.9347H285.526V31.5455H288.697V49H285.526V41.5852H277.438V49H274.276ZM295.766 49.2642C294.937 49.2642 294.19 49.1165 293.525 48.821C292.866 48.5199 292.343 48.0767 291.957 47.4915C291.576 46.9062 291.386 46.1847 291.386 45.3267C291.386 44.5881 291.522 43.9773 291.795 43.4943C292.067 43.0114 292.44 42.625 292.911 42.3352C293.383 42.0455 293.914 41.8267 294.505 41.679C295.102 41.5256 295.718 41.4148 296.354 41.3466C297.121 41.267 297.744 41.196 298.221 41.1335C298.698 41.0653 299.045 40.9631 299.261 40.8267C299.482 40.6847 299.593 40.4659 299.593 40.1705V40.1193C299.593 39.4773 299.403 38.9801 299.022 38.6278C298.641 38.2756 298.093 38.0994 297.377 38.0994C296.621 38.0994 296.022 38.2642 295.579 38.5938C295.141 38.9233 294.846 39.3125 294.692 39.7614L291.812 39.3523C292.039 38.5568 292.414 37.892 292.937 37.358C293.46 36.8182 294.099 36.4148 294.854 36.1477C295.61 35.875 296.445 35.7386 297.36 35.7386C297.991 35.7386 298.619 35.8125 299.244 35.9602C299.869 36.108 300.44 36.3523 300.957 36.6932C301.474 37.0284 301.888 37.4858 302.201 38.0653C302.519 38.6449 302.678 39.3693 302.678 40.2386V49H299.712V47.2017H299.61C299.423 47.5653 299.158 47.9062 298.817 48.2244C298.482 48.5369 298.059 48.7898 297.548 48.983C297.042 49.1705 296.448 49.2642 295.766 49.2642ZM296.567 46.9972C297.187 46.9972 297.724 46.875 298.178 46.6307C298.633 46.3807 298.982 46.0511 299.227 45.642C299.477 45.233 299.602 44.7869 299.602 44.304V42.7614C299.505 42.8409 299.34 42.9148 299.107 42.983C298.88 43.0511 298.624 43.1108 298.34 43.1619C298.056 43.2131 297.775 43.2585 297.496 43.2983C297.218 43.3381 296.977 43.3722 296.772 43.4006C296.312 43.4631 295.9 43.5653 295.536 43.7074C295.173 43.8494 294.886 44.0483 294.675 44.304C294.465 44.554 294.36 44.8778 294.36 45.2756C294.36 45.8438 294.567 46.2727 294.982 46.5625C295.397 46.8523 295.925 46.9972 296.567 46.9972ZM304.315 38.4403V35.9091H315.769V38.4403H311.533V49H308.55V38.4403H304.315ZM321.454 49.2642C320.624 49.2642 319.877 49.1165 319.212 48.821C318.553 48.5199 318.031 48.0767 317.644 47.4915C317.263 46.9062 317.073 46.1847 317.073 45.3267C317.073 44.5881 317.21 43.9773 317.482 43.4943C317.755 43.0114 318.127 42.625 318.599 42.3352C319.07 42.0455 319.602 41.8267 320.192 41.679C320.789 41.5256 321.406 41.4148 322.042 41.3466C322.809 41.267 323.431 41.196 323.908 41.1335C324.386 41.0653 324.732 40.9631 324.948 40.8267C325.17 40.6847 325.281 40.4659 325.281 40.1705V40.1193C325.281 39.4773 325.09 38.9801 324.71 38.6278C324.329 38.2756 323.781 38.0994 323.065 38.0994C322.309 38.0994 321.71 38.2642 321.266 38.5938C320.829 38.9233 320.533 39.3125 320.38 39.7614L317.499 39.3523C317.727 38.5568 318.102 37.892 318.624 37.358C319.147 36.8182 319.786 36.4148 320.542 36.1477C321.298 35.875 322.133 35.7386 323.048 35.7386C323.678 35.7386 324.306 35.8125 324.931 35.9602C325.556 36.108 326.127 36.3523 326.644 36.6932C327.161 37.0284 327.576 37.4858 327.888 38.0653C328.207 38.6449 328.366 39.3693 328.366 40.2386V49H325.4V47.2017H325.298C325.11 47.5653 324.846 47.9062 324.505 48.2244C324.17 48.5369 323.746 48.7898 323.235 48.983C322.729 49.1705 322.136 49.2642 321.454 49.2642ZM322.255 46.9972C322.874 46.9972 323.411 46.875 323.866 46.6307C324.32 46.3807 324.67 46.0511 324.914 45.642C325.164 45.233 325.289 44.7869 325.289 44.304V42.7614C325.192 42.8409 325.028 42.9148 324.795 42.983C324.567 43.0511 324.312 43.1108 324.028 43.1619C323.744 43.2131 323.462 43.2585 323.184 43.2983C322.906 43.3381 322.664 43.3722 322.46 43.4006C321.999 43.4631 321.587 43.5653 321.224 43.7074C320.86 43.8494 320.573 44.0483 320.363 44.304C320.153 44.554 320.048 44.8778 320.048 45.2756C320.048 45.8438 320.255 46.2727 320.67 46.5625C321.085 46.8523 321.613 46.9972 322.255 46.9972ZM330.565 49L330.548 46.4602H330.999C331.34 46.4602 331.627 46.3835 331.86 46.2301C332.093 46.0767 332.286 45.821 332.44 45.4631C332.593 45.0994 332.712 44.6108 332.798 43.9972C332.883 43.3835 332.942 42.6193 332.977 41.7045L333.207 35.9091H342.752V49H339.769V38.4403H336.011L335.806 42.6591C335.755 43.75 335.633 44.696 335.44 45.4972C335.252 46.2926 334.985 46.9489 334.638 47.4659C334.298 47.983 333.869 48.3693 333.352 48.625C332.835 48.875 332.224 49 331.519 49H330.565ZM347.947 40.1705H351.808C353.478 40.1705 354.771 40.5767 355.685 41.3892C356.6 42.2017 357.06 43.267 357.066 44.5852C357.06 45.4432 356.85 46.2045 356.435 46.8693C356.026 47.5341 355.43 48.0568 354.646 48.4375C353.867 48.8125 352.921 49 351.808 49H345.859V35.9091H348.833V46.4688H351.808C352.478 46.4688 353.029 46.2983 353.461 45.9574C353.893 45.6108 354.109 45.1676 354.109 44.6278C354.109 44.0597 353.893 43.5966 353.461 43.2386C353.029 42.8807 352.478 42.7017 351.808 42.7017H347.947V40.1705ZM367.449 49V38.4148H364.653C363.943 38.4148 363.398 38.5795 363.017 38.9091C362.636 39.2386 362.449 39.6477 362.455 40.1364C362.449 40.625 362.628 41.0284 362.991 41.3466C363.355 41.6648 363.875 41.8239 364.551 41.8239H368.42V44.0739H364.551C363.506 44.0739 362.602 43.9091 361.841 43.5795C361.08 43.25 360.494 42.7841 360.085 42.1818C359.676 41.5795 359.472 40.875 359.472 40.0682C359.472 39.2273 359.679 38.4972 360.094 37.8778C360.514 37.2528 361.111 36.7699 361.884 36.429C362.662 36.0824 363.585 35.9091 364.653 35.9091H370.338V49H367.449ZM358.994 49L362.651 42.2841H365.693L362.028 49H358.994Z" fill="#C00045"/>
<path d="M467 26L470.817 37.0557H483.168L473.176 43.8885L476.992 54.9443L467 48.1115L457.008 54.9443L460.824 43.8885L450.832 37.0557H463.183L467 26Z" fill="#C00046"/>
<path d="M663 27.5322L666.344 37.2189L666.46 37.5557H666.817H677.551L668.893 43.4758L668.579 43.6911L668.703 44.0517L672.026 53.6779L663.282 47.6987L663 47.5057L662.718 47.6987L653.974 53.6779L657.297 44.0517L657.421 43.6911L657.107 43.4758L648.449 37.5557H659.183H659.54L659.656 37.2189L663 27.5322Z" fill="white" stroke="#C00046"/>
<path d="M614 26L617.817 37.0557H630.168L620.176 43.8885L623.992 54.9443L614 48.1115L604.008 54.9443L607.824 43.8885L597.832 37.0557H610.183L614 26Z" fill="#C00046"/>
<path d="M565 26L568.817 37.0557H581.168L571.176 43.8885L574.992 54.9443L565 48.1115L555.008 54.9443L558.824 43.8885L548.832 37.0557H561.183L565 26Z" fill="#C00046"/>
<path d="M516 26L519.817 37.0557H532.168L522.176 43.8885L525.992 54.9443L516 48.1115L506.008 54.9443L509.824 43.8885L499.832 37.0557H512.183L516 26Z" fill="#C00046"/>
</svg>
