<svg width="721" height="214" viewBox="0 0 721 214" fill="none" xmlns="http://www.w3.org/2000/svg">
<rect x="2" y="2" width="717" height="210" rx="28" fill="white" stroke="#C00046" stroke-width="4"/>
<path d="M117.5 58C117.5 75.3622 102.314 89.5 83.5 89.5C64.6862 89.5 49.5 75.3622 49.5 58C49.5 40.6378 64.6862 26.5 83.5 26.5C102.314 26.5 117.5 40.6378 117.5 58Z" fill="#E9E9E9" stroke="#C00046"/>
<path d="M167.432 113.727C167.432 115.295 167.138 116.637 166.551 117.754C165.969 118.867 165.173 119.719 164.165 120.311C163.161 120.903 162.022 121.199 160.749 121.199C159.475 121.199 158.334 120.903 157.325 120.311C156.321 119.714 155.526 118.86 154.939 117.747C154.357 116.63 154.065 115.29 154.065 113.727C154.065 112.16 154.357 110.82 154.939 109.707C155.526 108.59 156.321 107.735 157.325 107.143C158.334 106.552 159.475 106.256 160.749 106.256C162.022 106.256 163.161 106.552 164.165 107.143C165.173 107.735 165.969 108.59 166.551 109.707C167.138 110.82 167.432 112.16 167.432 113.727ZM164.783 113.727C164.783 112.624 164.61 111.694 164.264 110.936C163.923 110.174 163.45 109.598 162.844 109.21C162.238 108.817 161.539 108.621 160.749 108.621C159.958 108.621 159.259 108.817 158.653 109.21C158.047 109.598 157.571 110.174 157.226 110.936C156.885 111.694 156.714 112.624 156.714 113.727C156.714 114.83 156.885 115.763 157.226 116.526C157.571 117.283 158.047 117.858 158.653 118.251C159.259 118.64 159.958 118.834 160.749 118.834C161.539 118.834 162.238 118.64 162.844 118.251C163.45 117.858 163.923 117.283 164.264 116.526C164.61 115.763 164.783 114.83 164.783 113.727ZM178.922 110.091V121H176.45V110.091H178.922ZM177.764 115.02V117.122C177.484 117.245 177.167 117.357 176.812 117.456C176.462 117.551 176.09 117.626 175.697 117.683C175.309 117.74 174.921 117.768 174.532 117.768C173.074 117.768 171.921 117.442 171.074 116.788C170.231 116.13 169.809 115.105 169.809 113.713V110.077H172.267V113.713C172.267 114.182 172.35 114.558 172.515 114.842C172.681 115.126 172.932 115.335 173.268 115.467C173.604 115.595 174.026 115.659 174.532 115.659C175.1 115.659 175.64 115.602 176.152 115.489C176.663 115.375 177.2 115.219 177.764 115.02ZM186.338 121.213C185.244 121.213 184.3 120.986 183.504 120.531C182.714 120.072 182.105 119.423 181.679 118.585C181.253 117.742 181.04 116.75 181.04 115.609C181.04 114.487 181.253 113.502 181.679 112.655C182.11 111.803 182.711 111.14 183.483 110.666C184.255 110.188 185.161 109.949 186.203 109.949C186.875 109.949 187.51 110.058 188.107 110.276C188.708 110.489 189.238 110.82 189.697 111.27C190.161 111.72 190.526 112.293 190.791 112.989C191.056 113.68 191.189 114.504 191.189 115.46V116.249H182.247V114.516H188.724C188.72 114.023 188.613 113.585 188.405 113.202C188.196 112.813 187.905 112.508 187.531 112.286C187.162 112.063 186.731 111.952 186.239 111.952C185.713 111.952 185.251 112.08 184.854 112.335C184.456 112.586 184.146 112.918 183.923 113.33C183.705 113.737 183.594 114.184 183.589 114.672V116.185C183.589 116.819 183.705 117.364 183.938 117.818C184.17 118.268 184.494 118.614 184.911 118.855C185.327 119.092 185.815 119.21 186.374 119.21C186.748 119.21 187.086 119.158 187.389 119.054C187.692 118.945 187.955 118.786 188.178 118.578C188.4 118.37 188.568 118.112 188.682 117.804L191.082 118.074C190.931 118.708 190.642 119.262 190.216 119.736C189.795 120.205 189.255 120.569 188.597 120.83C187.938 121.085 187.186 121.213 186.338 121.213ZM200.857 114.48V116.589H195.047V114.48H200.857ZM195.843 110.091V121H193.364V110.091H195.843ZM202.54 110.091V121H200.069V110.091H202.54ZM206.881 113.642H210.099C211.491 113.642 212.568 113.981 213.33 114.658C214.093 115.335 214.476 116.223 214.481 117.321C214.476 118.036 214.301 118.67 213.955 119.224C213.614 119.778 213.117 120.214 212.464 120.531C211.815 120.844 211.027 121 210.099 121H205.141V110.091H207.62V118.891H210.099C210.657 118.891 211.117 118.749 211.477 118.464C211.836 118.176 212.016 117.806 212.016 117.357C212.016 116.883 211.836 116.497 211.477 116.199C211.117 115.901 210.657 115.751 210.099 115.751H206.881V113.642ZM221.645 121V110.091H226.226C227.519 110.091 228.539 110.349 229.287 110.865C230.04 111.381 230.417 112.101 230.417 113.024C230.417 113.635 230.203 114.134 229.777 114.523C229.356 114.906 228.781 115.164 228.051 115.297C228.624 115.344 229.126 115.489 229.557 115.73C229.993 115.972 230.334 116.289 230.58 116.682C230.826 117.075 230.949 117.527 230.949 118.038C230.949 118.64 230.791 119.163 230.473 119.608C230.161 120.048 229.704 120.392 229.103 120.638C228.506 120.879 227.782 121 226.929 121H221.645ZM224.053 118.976H226.929C227.403 118.976 227.775 118.865 228.044 118.642C228.314 118.415 228.449 118.107 228.449 117.719C228.449 117.269 228.314 116.916 228.044 116.661C227.775 116.4 227.403 116.27 226.929 116.27H224.053V118.976ZM224.053 114.608H226.276C226.626 114.608 226.927 114.558 227.178 114.459C227.429 114.355 227.621 114.21 227.753 114.026C227.886 113.836 227.952 113.611 227.952 113.351C227.952 112.977 227.798 112.683 227.49 112.47C227.187 112.257 226.766 112.151 226.226 112.151H224.053V114.608ZM233.071 121V110.091H235.642V114.494H236.58L239.861 110.091H242.957L238.916 115.446L243 121H239.889L236.899 116.888H235.642V121H233.071ZM246.173 125.091C245.823 125.091 245.498 125.063 245.2 125.006C244.906 124.954 244.672 124.892 244.497 124.821L245.093 122.818C245.467 122.927 245.801 122.979 246.095 122.974C246.388 122.97 246.646 122.877 246.869 122.697C247.096 122.522 247.288 122.229 247.444 121.817L247.664 121.227L243.708 110.091H246.436L248.95 118.33H249.064L251.585 110.091H254.319L249.951 122.321C249.748 122.899 249.478 123.393 249.142 123.805C248.806 124.222 248.394 124.539 247.906 124.757C247.423 124.98 246.845 125.091 246.173 125.091ZM260.486 121.213C259.397 121.213 258.462 120.974 257.68 120.496C256.904 120.018 256.305 119.357 255.884 118.514C255.467 117.667 255.259 116.691 255.259 115.588C255.259 114.48 255.472 113.502 255.898 112.655C256.324 111.803 256.925 111.14 257.702 110.666C258.483 110.188 259.406 109.949 260.472 109.949C261.357 109.949 262.141 110.112 262.822 110.439C263.509 110.761 264.056 111.218 264.463 111.81C264.87 112.397 265.102 113.083 265.159 113.869H262.702C262.602 113.344 262.366 112.906 261.991 112.555C261.622 112.2 261.127 112.023 260.507 112.023C259.982 112.023 259.52 112.165 259.122 112.449C258.724 112.728 258.414 113.131 258.192 113.656C257.974 114.182 257.865 114.812 257.865 115.545C257.865 116.289 257.974 116.928 258.192 117.463C258.41 117.993 258.715 118.403 259.108 118.692C259.506 118.976 259.972 119.118 260.507 119.118C260.886 119.118 261.224 119.047 261.523 118.905C261.826 118.758 262.079 118.547 262.283 118.273C262.486 117.998 262.626 117.664 262.702 117.271H265.159C265.098 118.043 264.87 118.727 264.477 119.324C264.084 119.916 263.549 120.38 262.872 120.716C262.195 121.047 261.4 121.213 260.486 121.213ZM274.763 114.48V116.589H268.953V114.48H274.763ZM269.749 110.091V121H267.27V110.091H269.749ZM276.446 110.091V121H273.975V110.091H276.446ZM280.788 113.642H284.005C285.397 113.642 286.474 113.981 287.237 114.658C287.999 115.335 288.382 116.223 288.387 117.321C288.382 118.036 288.207 118.67 287.862 119.224C287.521 119.778 287.023 120.214 286.37 120.531C285.721 120.844 284.933 121 284.005 121H279.048V110.091H281.526V118.891H284.005C284.564 118.891 285.023 118.749 285.383 118.464C285.743 118.176 285.923 117.806 285.923 117.357C285.923 116.883 285.743 116.497 285.383 116.199C285.023 115.901 284.564 115.751 284.005 115.751H280.788V113.642ZM289.744 121V110.091H292.315V121H289.744ZM299.795 121.213C298.701 121.213 297.757 120.986 296.961 120.531C296.171 120.072 295.562 119.423 295.136 118.585C294.71 117.742 294.497 116.75 294.497 115.609C294.497 114.487 294.71 113.502 295.136 112.655C295.567 111.803 296.168 111.14 296.94 110.666C297.712 110.188 298.618 109.949 299.66 109.949C300.333 109.949 300.967 110.058 301.564 110.276C302.165 110.489 302.695 110.82 303.154 111.27C303.618 111.72 303.983 112.293 304.248 112.989C304.513 113.68 304.646 114.504 304.646 115.46V116.249H295.704V114.516H302.181C302.177 114.023 302.07 113.585 301.862 113.202C301.654 112.813 301.362 112.508 300.988 112.286C300.619 112.063 300.188 111.952 299.696 111.952C299.17 111.952 298.708 112.08 298.311 112.335C297.913 112.586 297.603 112.918 297.38 113.33C297.163 113.737 297.051 114.184 297.047 114.672V116.185C297.047 116.819 297.163 117.364 297.395 117.818C297.627 118.268 297.951 118.614 298.368 118.855C298.784 119.092 299.272 119.21 299.831 119.21C300.205 119.21 300.543 119.158 300.846 119.054C301.149 118.945 301.412 118.786 301.635 118.578C301.857 118.37 302.025 118.112 302.139 117.804L304.539 118.074C304.388 118.708 304.099 119.262 303.673 119.736C303.252 120.205 302.712 120.569 302.054 120.83C301.395 121.085 300.643 121.213 299.795 121.213ZM311.185 112.2V110.091H320.731V112.2H317.201V121H314.715V112.2H311.185ZM327.087 121.213C326.022 121.213 325.099 120.979 324.317 120.51C323.536 120.041 322.93 119.385 322.499 118.543C322.073 117.7 321.86 116.715 321.86 115.588C321.86 114.461 322.073 113.474 322.499 112.626C322.93 111.779 323.536 111.121 324.317 110.652C325.099 110.183 326.022 109.949 327.087 109.949C328.153 109.949 329.076 110.183 329.857 110.652C330.638 111.121 331.242 111.779 331.668 112.626C332.099 113.474 332.315 114.461 332.315 115.588C332.315 116.715 332.099 117.7 331.668 118.543C331.242 119.385 330.638 120.041 329.857 120.51C329.076 120.979 328.153 121.213 327.087 121.213ZM327.102 119.153C327.679 119.153 328.162 118.995 328.55 118.678C328.939 118.356 329.228 117.925 329.417 117.385C329.611 116.845 329.708 116.244 329.708 115.581C329.708 114.913 329.611 114.31 329.417 113.77C329.228 113.225 328.939 112.792 328.55 112.47C328.162 112.148 327.679 111.987 327.102 111.987C326.51 111.987 326.017 112.148 325.624 112.47C325.236 112.792 324.945 113.225 324.751 113.77C324.561 114.31 324.467 114.913 324.467 115.581C324.467 116.244 324.561 116.845 324.751 117.385C324.945 117.925 325.236 118.356 325.624 118.678C326.017 118.995 326.51 119.153 327.102 119.153ZM334.497 125.091V110.091H337.025V111.895H337.174C337.307 111.63 337.494 111.348 337.735 111.05C337.977 110.747 338.304 110.489 338.716 110.276C339.127 110.058 339.653 109.949 340.292 109.949C341.135 109.949 341.895 110.164 342.572 110.595C343.254 111.021 343.794 111.653 344.191 112.491C344.594 113.325 344.795 114.348 344.795 115.56C344.795 116.758 344.599 117.776 344.206 118.614C343.813 119.452 343.278 120.091 342.6 120.531C341.923 120.972 341.156 121.192 340.299 121.192C339.674 121.192 339.156 121.088 338.744 120.879C338.332 120.671 338.001 120.42 337.75 120.126C337.503 119.828 337.312 119.546 337.174 119.281H337.068V125.091H334.497ZM337.018 115.545C337.018 116.251 337.118 116.869 337.316 117.399C337.52 117.929 337.811 118.344 338.19 118.642C338.574 118.936 339.038 119.082 339.582 119.082C340.15 119.082 340.626 118.931 341.01 118.628C341.393 118.32 341.682 117.901 341.876 117.371C342.075 116.836 342.174 116.227 342.174 115.545C342.174 114.868 342.077 114.267 341.883 113.741C341.689 113.216 341.4 112.804 341.017 112.506C340.633 112.207 340.155 112.058 339.582 112.058C339.033 112.058 338.566 112.203 338.183 112.491C337.799 112.78 337.508 113.185 337.309 113.706C337.115 114.227 337.018 114.84 337.018 115.545ZM345.795 112.2V110.091H355.34V112.2H351.81V121H349.325V112.2H345.795ZM359.127 113.642H362.345C363.737 113.642 364.814 113.981 365.576 114.658C366.339 115.335 366.722 116.223 366.727 117.321C366.722 118.036 366.547 118.67 366.201 119.224C365.86 119.778 365.363 120.214 364.71 120.531C364.061 120.844 363.273 121 362.345 121H357.387V110.091H359.866V118.891H362.345C362.904 118.891 363.363 118.749 363.723 118.464C364.083 118.176 364.262 117.806 364.262 117.357C364.262 116.883 364.083 116.497 363.723 116.199C363.363 115.901 362.904 115.751 362.345 115.751H359.127V113.642ZM368.083 121V110.091H370.654V121H368.083ZM376.452 106.455L376.217 116.724H373.93L373.703 106.455H376.452ZM375.074 121.156C374.643 121.156 374.274 121.005 373.966 120.702C373.663 120.399 373.511 120.029 373.511 119.594C373.511 119.168 373.663 118.803 373.966 118.5C374.274 118.197 374.643 118.045 375.074 118.045C375.495 118.045 375.86 118.197 376.168 118.5C376.48 118.803 376.636 119.168 376.636 119.594C376.636 119.883 376.563 120.145 376.416 120.382C376.274 120.619 376.085 120.808 375.848 120.95C375.616 121.088 375.358 121.156 375.074 121.156ZM154.435 145V130.455H163.788V132.663H157.07V136.072H159.875C160.988 136.072 161.942 136.255 162.737 136.619C163.537 136.979 164.151 137.488 164.577 138.146C165.003 138.804 165.216 139.579 165.216 140.469C165.216 141.364 165.003 142.152 164.577 142.834C164.151 143.511 163.537 144.041 162.737 144.425C161.942 144.808 160.988 145 159.875 145H154.435ZM157.07 142.841H159.875C160.462 142.841 160.959 142.73 161.366 142.507C161.774 142.285 162.081 141.991 162.29 141.626C162.503 141.262 162.609 140.866 162.609 140.44C162.609 139.825 162.373 139.302 161.899 138.871C161.43 138.435 160.756 138.217 159.875 138.217H157.07V142.841ZM169.005 149.091C168.655 149.091 168.33 149.063 168.032 149.006C167.738 148.954 167.504 148.892 167.329 148.821L167.925 146.818C168.299 146.927 168.633 146.979 168.927 146.974C169.22 146.97 169.478 146.877 169.701 146.697C169.928 146.522 170.12 146.229 170.276 145.817L170.496 145.227L166.54 134.091H169.268L171.782 142.33H171.896L174.417 134.091H177.151L172.783 146.321C172.58 146.899 172.31 147.393 171.974 147.805C171.638 148.222 171.226 148.539 170.738 148.757C170.255 148.98 169.677 149.091 169.005 149.091ZM177.066 148.168V142.884H177.933C178.165 142.704 178.359 142.46 178.515 142.152C178.671 141.839 178.799 141.473 178.898 141.051C179.003 140.625 179.088 140.149 179.154 139.624C179.22 139.093 179.28 138.523 179.332 137.912L179.644 134.091H187.528V142.884H189.218V148.168H186.732V145H179.594V148.168H177.066ZM180.575 142.884H185.07V136.165H181.874L181.704 137.912C181.609 139.067 181.484 140.057 181.327 140.881C181.171 141.705 180.92 142.372 180.575 142.884ZM192.735 149.091C192.385 149.091 192.061 149.063 191.762 149.006C191.469 148.954 191.234 148.892 191.059 148.821L191.656 146.818C192.03 146.927 192.364 146.979 192.657 146.974C192.951 146.97 193.209 146.877 193.431 146.697C193.659 146.522 193.85 146.229 194.007 145.817L194.227 145.227L190.271 134.091H192.998L195.512 142.33H195.626L198.147 134.091H200.882L196.514 146.321C196.31 146.899 196.04 147.393 195.704 147.805C195.368 148.222 194.956 148.539 194.468 148.757C193.985 148.98 193.408 149.091 192.735 149.091ZM207.018 142.01H209.568C209.592 142.417 209.774 142.732 210.115 142.955C210.456 143.177 210.898 143.288 211.443 143.288C211.997 143.288 212.463 143.168 212.842 142.926C213.225 142.68 213.417 142.308 213.417 141.811C213.417 141.518 213.344 141.259 213.197 141.037C213.05 140.81 212.844 140.634 212.579 140.511C212.314 140.388 212.002 140.327 211.642 140.327H209.973V138.501H211.642C212.177 138.501 212.582 138.378 212.856 138.132C213.136 137.886 213.275 137.576 213.275 137.202C213.275 136.799 213.128 136.473 212.835 136.222C212.546 135.971 212.146 135.845 211.635 135.845C211.123 135.845 210.697 135.961 210.356 136.193C210.02 136.425 209.845 136.723 209.831 137.088H207.295C207.305 136.454 207.494 135.902 207.863 135.433C208.237 134.964 208.739 134.6 209.369 134.339C210.003 134.079 210.718 133.949 211.514 133.949C212.366 133.949 213.102 134.077 213.723 134.332C214.343 134.588 214.821 134.946 215.157 135.405C215.493 135.859 215.662 136.394 215.662 137.01C215.662 137.602 215.477 138.092 215.108 138.48C214.738 138.864 214.241 139.138 213.616 139.304V139.418C214.047 139.441 214.435 139.564 214.781 139.787C215.127 140.005 215.401 140.301 215.605 140.675C215.808 141.049 215.91 141.482 215.91 141.974C215.91 142.642 215.718 143.22 215.335 143.707C214.951 144.19 214.423 144.562 213.751 144.822C213.083 145.083 212.319 145.213 211.457 145.213C210.619 145.213 209.868 145.088 209.206 144.837C208.547 144.581 208.024 144.214 207.636 143.736C207.248 143.258 207.042 142.682 207.018 142.01ZM221.074 145.22C220.382 145.22 219.76 145.097 219.206 144.851C218.656 144.6 218.221 144.231 217.899 143.743C217.582 143.255 217.423 142.654 217.423 141.939C217.423 141.323 217.537 140.814 217.764 140.412C217.991 140.009 218.301 139.688 218.694 139.446C219.087 139.205 219.53 139.022 220.022 138.899C220.52 138.771 221.033 138.679 221.564 138.622C222.203 138.556 222.721 138.497 223.119 138.445C223.517 138.388 223.806 138.303 223.985 138.189C224.17 138.071 224.262 137.888 224.262 137.642V137.599C224.262 137.064 224.104 136.65 223.787 136.357C223.469 136.063 223.012 135.916 222.416 135.916C221.786 135.916 221.287 136.054 220.917 136.328C220.553 136.603 220.306 136.927 220.179 137.301L217.778 136.96C217.967 136.297 218.28 135.743 218.716 135.298C219.151 134.848 219.684 134.512 220.314 134.29C220.943 134.062 221.639 133.949 222.402 133.949C222.927 133.949 223.45 134.01 223.971 134.134C224.492 134.257 224.968 134.46 225.399 134.744C225.83 135.024 226.175 135.405 226.436 135.888C226.701 136.371 226.833 136.974 226.833 137.699V145H224.362V143.501H224.277C224.12 143.804 223.9 144.089 223.616 144.354C223.337 144.614 222.984 144.825 222.558 144.986C222.136 145.142 221.642 145.22 221.074 145.22ZM221.741 143.331C222.257 143.331 222.705 143.229 223.083 143.026C223.462 142.817 223.753 142.543 223.957 142.202C224.165 141.861 224.27 141.489 224.27 141.087V139.801C224.189 139.867 224.052 139.929 223.858 139.986C223.668 140.043 223.455 140.092 223.218 140.135C222.982 140.178 222.747 140.215 222.515 140.249C222.283 140.282 222.082 140.31 221.912 140.334C221.528 140.386 221.185 140.471 220.882 140.589C220.579 140.708 220.34 140.874 220.164 141.087C219.989 141.295 219.902 141.565 219.902 141.896C219.902 142.37 220.074 142.727 220.42 142.969C220.766 143.21 221.206 143.331 221.741 143.331ZM229.419 145V134.091H231.99V138.494H232.927L236.208 134.091H239.305L235.264 139.446L239.348 145H236.237L233.247 140.888H231.99V145H229.419ZM243.945 145.22C243.253 145.22 242.631 145.097 242.077 144.851C241.527 144.6 241.092 144.231 240.77 143.743C240.453 143.255 240.294 142.654 240.294 141.939C240.294 141.323 240.408 140.814 240.635 140.412C240.862 140.009 241.172 139.688 241.565 139.446C241.958 139.205 242.401 139.022 242.893 138.899C243.391 138.771 243.904 138.679 244.435 138.622C245.074 138.556 245.592 138.497 245.99 138.445C246.388 138.388 246.677 138.303 246.857 138.189C247.041 138.071 247.134 137.888 247.134 137.642V137.599C247.134 137.064 246.975 136.65 246.658 136.357C246.34 136.063 245.884 135.916 245.287 135.916C244.657 135.916 244.158 136.054 243.788 136.328C243.424 136.603 243.178 136.927 243.05 137.301L240.649 136.96C240.839 136.297 241.151 135.743 241.587 135.298C242.022 134.848 242.555 134.512 243.185 134.29C243.814 134.062 244.51 133.949 245.273 133.949C245.798 133.949 246.321 134.01 246.842 134.134C247.363 134.257 247.839 134.46 248.27 134.744C248.701 135.024 249.046 135.405 249.307 135.888C249.572 136.371 249.705 136.974 249.705 137.699V145H247.233V143.501H247.148C246.991 143.804 246.771 144.089 246.487 144.354C246.208 144.614 245.855 144.825 245.429 144.986C245.008 145.142 244.513 145.22 243.945 145.22ZM244.612 143.331C245.128 143.331 245.576 143.229 245.955 143.026C246.333 142.817 246.625 142.543 246.828 142.202C247.036 141.861 247.141 141.489 247.141 141.087V139.801C247.06 139.867 246.923 139.929 246.729 139.986C246.539 140.043 246.326 140.092 246.089 140.135C245.853 140.178 245.618 140.215 245.386 140.249C245.154 140.282 244.953 140.31 244.783 140.334C244.399 140.386 244.056 140.471 243.753 140.589C243.45 140.708 243.211 140.874 243.036 141.087C242.86 141.295 242.773 141.565 242.773 141.896C242.773 142.37 242.946 142.727 243.291 142.969C243.637 143.21 244.077 143.331 244.612 143.331ZM251.686 142.01H254.236C254.259 142.417 254.442 142.732 254.783 142.955C255.124 143.177 255.566 143.288 256.111 143.288C256.665 143.288 257.131 143.168 257.51 142.926C257.893 142.68 258.085 142.308 258.085 141.811C258.085 141.518 258.012 141.259 257.865 141.037C257.718 140.81 257.512 140.634 257.247 140.511C256.982 140.388 256.67 140.327 256.31 140.327H254.641V138.501H256.31C256.845 138.501 257.25 138.378 257.524 138.132C257.804 137.886 257.943 137.576 257.943 137.202C257.943 136.799 257.796 136.473 257.503 136.222C257.214 135.971 256.814 135.845 256.303 135.845C255.791 135.845 255.365 135.961 255.024 136.193C254.688 136.425 254.513 136.723 254.499 137.088H251.963C251.973 136.454 252.162 135.902 252.531 135.433C252.905 134.964 253.407 134.6 254.037 134.339C254.671 134.079 255.386 133.949 256.182 133.949C257.034 133.949 257.77 134.077 258.391 134.332C259.011 134.588 259.489 134.946 259.825 135.405C260.161 135.859 260.33 136.394 260.33 137.01C260.33 137.602 260.145 138.092 259.776 138.48C259.406 138.864 258.909 139.138 258.284 139.304V139.418C258.715 139.441 259.103 139.564 259.449 139.787C259.795 140.005 260.069 140.301 260.273 140.675C260.476 141.049 260.578 141.482 260.578 141.974C260.578 142.642 260.386 143.22 260.003 143.707C259.619 144.19 259.091 144.562 258.419 144.822C257.751 145.083 256.987 145.213 256.125 145.213C255.287 145.213 254.536 145.088 253.874 144.837C253.215 144.581 252.692 144.214 252.304 143.736C251.916 143.258 251.71 142.682 251.686 142.01ZM264.342 137.642H267.56C268.952 137.642 270.029 137.981 270.791 138.658C271.554 139.335 271.937 140.223 271.942 141.321C271.937 142.036 271.762 142.67 271.416 143.224C271.075 143.778 270.578 144.214 269.925 144.531C269.276 144.844 268.488 145 267.56 145H262.602V134.091H265.081V142.891H267.56C268.118 142.891 268.578 142.749 268.938 142.464C269.297 142.176 269.477 141.806 269.477 141.357C269.477 140.883 269.297 140.497 268.938 140.199C268.578 139.901 268.118 139.751 267.56 139.751H264.342V137.642ZM273.298 145V134.091H275.869V145H273.298ZM278.52 145V134.091H283.101C284.394 134.091 285.414 134.349 286.162 134.865C286.915 135.381 287.292 136.101 287.292 137.024C287.292 137.635 287.078 138.134 286.652 138.523C286.231 138.906 285.656 139.164 284.926 139.297C285.499 139.344 286.001 139.489 286.432 139.73C286.868 139.972 287.209 140.289 287.455 140.682C287.701 141.075 287.824 141.527 287.824 142.038C287.824 142.64 287.666 143.163 287.348 143.608C287.036 144.048 286.579 144.392 285.978 144.638C285.381 144.879 284.657 145 283.804 145H278.52ZM280.928 142.976H283.804C284.278 142.976 284.65 142.865 284.919 142.642C285.189 142.415 285.324 142.107 285.324 141.719C285.324 141.269 285.189 140.916 284.919 140.661C284.65 140.4 284.278 140.27 283.804 140.27H280.928V142.976ZM280.928 138.608H283.151C283.501 138.608 283.802 138.558 284.053 138.459C284.304 138.355 284.496 138.21 284.628 138.026C284.761 137.836 284.827 137.611 284.827 137.351C284.827 136.977 284.673 136.683 284.365 136.47C284.062 136.257 283.641 136.151 283.101 136.151H280.928V138.608ZM293.085 145.22C292.394 145.22 291.771 145.097 291.217 144.851C290.668 144.6 290.232 144.231 289.911 143.743C289.593 143.255 289.435 142.654 289.435 141.939C289.435 141.323 289.548 140.814 289.776 140.412C290.003 140.009 290.313 139.688 290.706 139.446C291.099 139.205 291.542 139.022 292.034 138.899C292.531 138.771 293.045 138.679 293.575 138.622C294.214 138.556 294.733 138.497 295.131 138.445C295.528 138.388 295.817 138.303 295.997 138.189C296.182 138.071 296.274 137.888 296.274 137.642V137.599C296.274 137.064 296.116 136.65 295.798 136.357C295.481 136.063 295.024 135.916 294.428 135.916C293.798 135.916 293.298 136.054 292.929 136.328C292.564 136.603 292.318 136.927 292.19 137.301L289.79 136.96C289.979 136.297 290.292 135.743 290.727 135.298C291.163 134.848 291.696 134.512 292.325 134.29C292.955 134.062 293.651 133.949 294.413 133.949C294.939 133.949 295.462 134.01 295.983 134.134C296.504 134.257 296.98 134.46 297.411 134.744C297.841 135.024 298.187 135.405 298.447 135.888C298.713 136.371 298.845 136.974 298.845 137.699V145H296.374V143.501H296.288C296.132 143.804 295.912 144.089 295.628 144.354C295.348 144.614 294.996 144.825 294.57 144.986C294.148 145.142 293.653 145.22 293.085 145.22ZM293.753 143.331C294.269 143.331 294.716 143.229 295.095 143.026C295.474 142.817 295.765 142.543 295.969 142.202C296.177 141.861 296.281 141.489 296.281 141.087V139.801C296.201 139.867 296.063 139.929 295.869 139.986C295.68 140.043 295.467 140.092 295.23 140.135C294.993 140.178 294.759 140.215 294.527 140.249C294.295 140.282 294.094 140.31 293.923 140.334C293.54 140.386 293.196 140.471 292.893 140.589C292.59 140.708 292.351 140.874 292.176 141.087C292.001 141.295 291.913 141.565 291.913 141.896C291.913 142.37 292.086 142.727 292.432 142.969C292.777 143.21 293.218 143.331 293.753 143.331ZM300.209 136.2V134.091H309.754V136.2H306.224V145H303.739V136.2H300.209ZM313.542 137.642H316.759C318.151 137.642 319.228 137.981 319.99 138.658C320.753 139.335 321.136 140.223 321.141 141.321C321.136 142.036 320.961 142.67 320.615 143.224C320.275 143.778 319.777 144.214 319.124 144.531C318.475 144.844 317.687 145 316.759 145H311.801V134.091H314.28V142.891H316.759C317.318 142.891 317.777 142.749 318.137 142.464C318.497 142.176 318.676 141.806 318.676 141.357C318.676 140.883 318.497 140.497 318.137 140.199C317.777 139.901 317.318 139.751 316.759 139.751H313.542V137.642ZM333.135 145.213C332.041 145.213 331.097 144.986 330.301 144.531C329.51 144.072 328.902 143.423 328.476 142.585C328.05 141.742 327.837 140.75 327.837 139.609C327.837 138.487 328.05 137.502 328.476 136.655C328.907 135.803 329.508 135.14 330.28 134.666C331.052 134.188 331.958 133.949 333 133.949C333.672 133.949 334.307 134.058 334.903 134.276C335.505 134.489 336.035 134.82 336.494 135.27C336.958 135.72 337.323 136.293 337.588 136.989C337.853 137.68 337.986 138.504 337.986 139.46V140.249H329.044V138.516H335.521C335.517 138.023 335.41 137.585 335.202 137.202C334.993 136.813 334.702 136.508 334.328 136.286C333.959 136.063 333.528 135.952 333.036 135.952C332.51 135.952 332.048 136.08 331.651 136.335C331.253 136.586 330.943 136.918 330.72 137.33C330.502 137.737 330.391 138.184 330.386 138.672V140.185C330.386 140.819 330.502 141.364 330.734 141.818C330.966 142.268 331.291 142.614 331.707 142.855C332.124 143.092 332.612 143.21 333.17 143.21C333.545 143.21 333.883 143.158 334.186 143.054C334.489 142.945 334.752 142.786 334.974 142.578C335.197 142.37 335.365 142.112 335.479 141.804L337.879 142.074C337.728 142.708 337.439 143.262 337.013 143.736C336.591 144.205 336.052 144.569 335.393 144.83C334.735 145.085 333.982 145.213 333.135 145.213ZM356.546 142.891L356.333 148.125H353.911V145H352.625V142.891H356.546ZM340.161 134.091H342.64V142.884H346.07V134.091H348.549V142.884H351.979V134.091H354.458V145H340.161V134.091ZM363.291 145.213C362.197 145.213 361.253 144.986 360.457 144.531C359.667 144.072 359.058 143.423 358.632 142.585C358.206 141.742 357.993 140.75 357.993 139.609C357.993 138.487 358.206 137.502 358.632 136.655C359.063 135.803 359.664 135.14 360.436 134.666C361.208 134.188 362.115 133.949 363.156 133.949C363.829 133.949 364.463 134.058 365.06 134.276C365.661 134.489 366.191 134.82 366.651 135.27C367.115 135.72 367.479 136.293 367.744 136.989C368.009 137.68 368.142 138.504 368.142 139.46V140.249H359.2V138.516H365.678C365.673 138.023 365.566 137.585 365.358 137.202C365.15 136.813 364.858 136.508 364.484 136.286C364.115 136.063 363.684 135.952 363.192 135.952C362.666 135.952 362.205 136.08 361.807 136.335C361.409 136.586 361.099 136.918 360.876 137.33C360.659 137.737 360.547 138.184 360.543 138.672V140.185C360.543 140.819 360.659 141.364 360.891 141.818C361.123 142.268 361.447 142.614 361.864 142.855C362.28 143.092 362.768 143.21 363.327 143.21C363.701 143.21 364.039 143.158 364.342 143.054C364.645 142.945 364.908 142.786 365.131 142.578C365.353 142.37 365.521 142.112 365.635 141.804L368.036 142.074C367.884 142.708 367.595 143.262 367.169 143.736C366.748 144.205 366.208 144.569 365.55 144.83C364.892 145.085 364.139 145.213 363.291 145.213ZM360.962 132.486C360.588 132.486 360.263 132.353 359.989 132.088C359.719 131.823 359.584 131.51 359.584 131.151C359.584 130.772 359.719 130.455 359.989 130.199C360.263 129.938 360.588 129.808 360.962 129.808C361.345 129.808 361.667 129.938 361.928 130.199C362.193 130.455 362.325 130.772 362.325 131.151C362.325 131.51 362.193 131.823 361.928 132.088C361.667 132.353 361.345 132.486 360.962 132.486ZM365.223 132.486C364.849 132.486 364.525 132.353 364.25 132.088C363.98 131.823 363.845 131.51 363.845 131.151C363.845 130.772 363.98 130.455 364.25 130.199C364.525 129.938 364.849 129.808 365.223 129.808C365.607 129.808 365.929 129.938 366.189 130.199C366.454 130.455 366.587 130.772 366.587 131.151C366.587 131.51 366.454 131.823 366.189 132.088C365.929 132.353 365.607 132.486 365.223 132.486Z" fill="#C00045"/>
<path d="M154.722 31.5455H158.591L163.773 44.1932H163.977L169.159 31.5455H173.028V49H169.994V37.0085H169.832L165.009 48.9489H162.741L157.918 36.983H157.756V49H154.722V31.5455ZM179.31 44.8239L184.551 35.9091H187.722V49H184.739V40.0767L179.514 49H176.335V35.9091H179.31V44.8239ZM193.413 35.9091L196.055 40.7415L198.739 35.9091H202.004L198.058 42.4545L202.072 49H198.825L196.055 44.2869L193.31 49H190.038L194.026 42.4545L190.14 35.9091H193.413ZM208.11 49.2642C207.281 49.2642 206.533 49.1165 205.869 48.821C205.21 48.5199 204.687 48.0767 204.3 47.4915C203.92 46.9062 203.729 46.1847 203.729 45.3267C203.729 44.5881 203.866 43.9773 204.138 43.4943C204.411 43.0114 204.783 42.625 205.255 42.3352C205.727 42.0455 206.258 41.8267 206.849 41.679C207.445 41.5256 208.062 41.4148 208.698 41.3466C209.465 41.267 210.087 41.196 210.565 41.1335C211.042 41.0653 211.388 40.9631 211.604 40.8267C211.826 40.6847 211.937 40.4659 211.937 40.1705V40.1193C211.937 39.4773 211.746 38.9801 211.366 38.6278C210.985 38.2756 210.437 38.0994 209.721 38.0994C208.965 38.0994 208.366 38.2642 207.923 38.5938C207.485 38.9233 207.19 39.3125 207.036 39.7614L204.156 39.3523C204.383 38.5568 204.758 37.892 205.281 37.358C205.803 36.8182 206.442 36.4148 207.198 36.1477C207.954 35.875 208.789 35.7386 209.704 35.7386C210.335 35.7386 210.962 35.8125 211.587 35.9602C212.212 36.108 212.783 36.3523 213.3 36.6932C213.817 37.0284 214.232 37.4858 214.545 38.0653C214.863 38.6449 215.022 39.3693 215.022 40.2386V49H212.056V47.2017H211.954C211.766 47.5653 211.502 47.9062 211.161 48.2244C210.826 48.5369 210.403 48.7898 209.891 48.983C209.386 49.1705 208.792 49.2642 208.11 49.2642ZM208.911 46.9972C209.531 46.9972 210.067 46.875 210.522 46.6307C210.977 46.3807 211.326 46.0511 211.57 45.642C211.82 45.233 211.945 44.7869 211.945 44.304V42.7614C211.849 42.8409 211.684 42.9148 211.451 42.983C211.224 43.0511 210.968 43.1108 210.684 43.1619C210.4 43.2131 210.119 43.2585 209.84 43.2983C209.562 43.3381 209.32 43.3722 209.116 43.4006C208.656 43.4631 208.244 43.5653 207.88 43.7074C207.516 43.8494 207.229 44.0483 207.019 44.304C206.809 44.554 206.704 44.8778 206.704 45.2756C206.704 45.8438 206.911 46.2727 207.326 46.5625C207.741 46.8523 208.269 46.9972 208.911 46.9972ZM221.099 44.8239L226.34 35.9091H229.511V49H226.528V40.0767L221.303 49H218.124V35.9091H221.099V44.8239ZM225.496 31.4091H227.806C227.806 32.4034 227.445 33.2102 226.724 33.8295C226.008 34.4432 225.036 34.75 223.809 34.75C222.593 34.75 221.624 34.4432 220.903 33.8295C220.187 33.2102 219.832 32.4034 219.837 31.4091H222.13C222.13 31.8182 222.255 32.1847 222.505 32.5085C222.761 32.8267 223.195 32.9858 223.809 32.9858C224.411 32.9858 224.84 32.8267 225.096 32.5085C225.357 32.1903 225.491 31.8239 225.496 31.4091ZM231.776 49L231.759 46.4602H232.21C232.551 46.4602 232.838 46.3835 233.071 46.2301C233.304 46.0767 233.497 45.821 233.651 45.4631C233.804 45.0994 233.923 44.6108 234.009 43.9972C234.094 43.3835 234.153 42.6193 234.188 41.7045L234.418 35.9091H243.963V49H240.98V38.4403H237.222L237.017 42.6591C236.966 43.75 236.844 44.696 236.651 45.4972C236.463 46.2926 236.196 46.9489 235.849 47.4659C235.509 47.983 235.08 48.3693 234.562 48.625C234.045 48.875 233.435 49 232.73 49H231.776ZM252.78 49.2557C251.501 49.2557 250.393 48.9744 249.456 48.4119C248.518 47.8494 247.791 47.0625 247.274 46.0511C246.763 45.0398 246.507 43.858 246.507 42.5057C246.507 41.1534 246.763 39.9687 247.274 38.9517C247.791 37.9347 248.518 37.1449 249.456 36.5824C250.393 36.0199 251.501 35.7386 252.78 35.7386C254.058 35.7386 255.166 36.0199 256.104 36.5824C257.041 37.1449 257.766 37.9347 258.277 38.9517C258.794 39.9687 259.053 41.1534 259.053 42.5057C259.053 43.858 258.794 45.0398 258.277 46.0511C257.766 47.0625 257.041 47.8494 256.104 48.4119C255.166 48.9744 254.058 49.2557 252.78 49.2557ZM252.797 46.7841C253.49 46.7841 254.07 46.5937 254.536 46.2131C255.001 45.8267 255.348 45.3097 255.575 44.6619C255.808 44.0142 255.925 43.2926 255.925 42.4972C255.925 41.696 255.808 40.9716 255.575 40.3239C255.348 39.6705 255.001 39.1506 254.536 38.7642C254.07 38.3778 253.49 38.1847 252.797 38.1847C252.087 38.1847 251.496 38.3778 251.024 38.7642C250.558 39.1506 250.209 39.6705 249.976 40.3239C249.749 40.9716 249.635 41.696 249.635 42.4972C249.635 43.2926 249.749 44.0142 249.976 44.6619C250.209 45.3097 250.558 45.8267 251.024 46.2131C251.496 46.5937 252.087 46.7841 252.797 46.7841ZM261.671 49V35.9091H267.168C268.719 35.9091 269.944 36.2187 270.842 36.8381C271.745 37.4574 272.197 38.321 272.197 39.429C272.197 40.1619 271.941 40.7614 271.43 41.2273C270.924 41.6875 270.234 41.9972 269.359 42.1562C270.046 42.2131 270.648 42.3864 271.165 42.6761C271.688 42.9659 272.097 43.3466 272.393 43.8182C272.688 44.2898 272.836 44.8324 272.836 45.446C272.836 46.1676 272.646 46.7955 272.265 47.3295C271.89 47.858 271.342 48.2699 270.62 48.5653C269.904 48.8551 269.035 49 268.012 49H261.671ZM264.56 46.571H268.012C268.58 46.571 269.026 46.4375 269.35 46.1705C269.674 45.8977 269.836 45.5284 269.836 45.0625C269.836 44.5227 269.674 44.0994 269.35 43.7926C269.026 43.4801 268.58 43.3239 268.012 43.3239H264.56V46.571ZM264.56 41.3295H267.228C267.648 41.3295 268.009 41.2699 268.31 41.1506C268.612 41.0256 268.842 40.8523 269.001 40.6307C269.16 40.4034 269.239 40.1335 269.239 39.821C269.239 39.3722 269.055 39.0199 268.685 38.7642C268.322 38.5085 267.816 38.3807 267.168 38.3807H264.56V41.3295ZM279.149 49.2642C278.32 49.2642 277.572 49.1165 276.908 48.821C276.249 48.5199 275.726 48.0767 275.339 47.4915C274.959 46.9062 274.768 46.1847 274.768 45.3267C274.768 44.5881 274.905 43.9773 275.178 43.4943C275.45 43.0114 275.822 42.625 276.294 42.3352C276.766 42.0455 277.297 41.8267 277.888 41.679C278.484 41.5256 279.101 41.4148 279.737 41.3466C280.504 41.267 281.126 41.196 281.604 41.1335C282.081 41.0653 282.428 40.9631 282.643 40.8267C282.865 40.6847 282.976 40.4659 282.976 40.1705V40.1193C282.976 39.4773 282.786 38.9801 282.405 38.6278C282.024 38.2756 281.476 38.0994 280.76 38.0994C280.004 38.0994 279.405 38.2642 278.962 38.5938C278.524 38.9233 278.229 39.3125 278.075 39.7614L275.195 39.3523C275.422 38.5568 275.797 37.892 276.32 37.358C276.842 36.8182 277.482 36.4148 278.237 36.1477C278.993 35.875 279.828 35.7386 280.743 35.7386C281.374 35.7386 282.001 35.8125 282.626 35.9602C283.251 36.108 283.822 36.3523 284.339 36.6932C284.857 37.0284 285.271 37.4858 285.584 38.0653C285.902 38.6449 286.061 39.3693 286.061 40.2386V49H283.095V47.2017H282.993C282.805 47.5653 282.541 47.9062 282.2 48.2244C281.865 48.5369 281.442 48.7898 280.93 48.983C280.425 49.1705 279.831 49.2642 279.149 49.2642ZM279.95 46.9972C280.57 46.9972 281.107 46.875 281.561 46.6307C282.016 46.3807 282.365 46.0511 282.609 45.642C282.859 45.233 282.984 44.7869 282.984 44.304V42.7614C282.888 42.8409 282.723 42.9148 282.49 42.983C282.263 43.0511 282.007 43.1108 281.723 43.1619C281.439 43.2131 281.158 43.2585 280.879 43.2983C280.601 43.3381 280.359 43.3722 280.155 43.4006C279.695 43.4631 279.283 43.5653 278.919 43.7074C278.555 43.8494 278.268 44.0483 278.058 44.304C277.848 44.554 277.743 44.8778 277.743 45.2756C277.743 45.8438 277.95 46.2727 278.365 46.5625C278.78 46.8523 279.308 46.9972 279.95 46.9972ZM294.486 34.196V31.5455H308.412V34.196H303.017V49H299.881V34.196H294.486ZM312.946 49.2642C312.116 49.2642 311.369 49.1165 310.705 48.821C310.045 48.5199 309.523 48.0767 309.136 47.4915C308.756 46.9062 308.565 46.1847 308.565 45.3267C308.565 44.5881 308.702 43.9773 308.974 43.4943C309.247 43.0114 309.619 42.625 310.091 42.3352C310.563 42.0455 311.094 41.8267 311.685 41.679C312.281 41.5256 312.898 41.4148 313.534 41.3466C314.301 41.267 314.923 41.196 315.401 41.1335C315.878 41.0653 316.224 40.9631 316.44 40.8267C316.662 40.6847 316.773 40.4659 316.773 40.1705V40.1193C316.773 39.4773 316.582 38.9801 316.202 38.6278C315.821 38.2756 315.273 38.0994 314.557 38.0994C313.801 38.0994 313.202 38.2642 312.759 38.5938C312.321 38.9233 312.026 39.3125 311.872 39.7614L308.991 39.3523C309.219 38.5568 309.594 37.892 310.116 37.358C310.639 36.8182 311.278 36.4148 312.034 36.1477C312.79 35.875 313.625 35.7386 314.54 35.7386C315.17 35.7386 315.798 35.8125 316.423 35.9602C317.048 36.108 317.619 36.3523 318.136 36.6932C318.653 37.0284 319.068 37.4858 319.381 38.0653C319.699 38.6449 319.858 39.3693 319.858 40.2386V49H316.892V47.2017H316.79C316.602 47.5653 316.338 47.9062 315.997 48.2244C315.662 48.5369 315.239 48.7898 314.727 48.983C314.222 49.1705 313.628 49.2642 312.946 49.2642ZM313.747 46.9972C314.366 46.9972 314.903 46.875 315.358 46.6307C315.813 46.3807 316.162 46.0511 316.406 45.642C316.656 45.233 316.781 44.7869 316.781 44.304V42.7614C316.685 42.8409 316.52 42.9148 316.287 42.983C316.06 43.0511 315.804 43.1108 315.52 43.1619C315.236 43.2131 314.955 43.2585 314.676 43.2983C314.398 43.3381 314.156 43.3722 313.952 43.4006C313.491 43.4631 313.08 43.5653 312.716 43.7074C312.352 43.8494 312.065 44.0483 311.855 44.304C311.645 44.554 311.54 44.8778 311.54 45.2756C311.54 45.8438 311.747 46.2727 312.162 46.5625C312.577 46.8523 313.105 46.9972 313.747 46.9972ZM321.494 38.4403V35.9091H332.949V38.4403H328.713V49H325.73V38.4403H321.494ZM337.494 40.1705H341.354C343.025 40.1705 344.317 40.5767 345.232 41.3892C346.147 42.2017 346.607 43.267 346.613 44.5852C346.607 45.4432 346.397 46.2045 345.982 46.8693C345.573 47.5341 344.977 48.0568 344.192 48.4375C343.414 48.8125 342.468 49 341.354 49H335.406V35.9091H338.38V46.4688H341.354C342.025 46.4688 342.576 46.2983 343.008 45.9574C343.44 45.6108 343.656 45.1676 343.656 44.6278C343.656 44.0597 343.44 43.5966 343.008 43.2386C342.576 42.8807 342.025 42.7017 341.354 42.7017H337.494V40.1705ZM356.996 49V38.4148H354.2C353.49 38.4148 352.945 38.5795 352.564 38.9091C352.183 39.2386 351.996 39.6477 352.001 40.1364C351.996 40.625 352.175 41.0284 352.538 41.3466C352.902 41.6648 353.422 41.8239 354.098 41.8239H357.967V44.0739H354.098C353.053 44.0739 352.149 43.9091 351.388 43.5795C350.626 43.25 350.041 42.7841 349.632 42.1818C349.223 41.5795 349.018 40.875 349.018 40.0682C349.018 39.2273 349.226 38.4972 349.641 37.8778C350.061 37.2528 350.658 36.7699 351.43 36.429C352.209 36.0824 353.132 35.9091 354.2 35.9091H359.885V49H356.996ZM348.541 49L352.197 42.2841H355.24L351.575 49H348.541ZM371.983 41.1761V43.7074H365.011V41.1761H371.983ZM365.966 35.9091V49H362.991V35.9091H365.966ZM374.003 35.9091V49H371.037V35.9091H374.003ZM380.891 49.2642C380.062 49.2642 379.315 49.1165 378.65 48.821C377.991 48.5199 377.468 48.0767 377.082 47.4915C376.701 46.9062 376.511 46.1847 376.511 45.3267C376.511 44.5881 376.647 43.9773 376.92 43.4943C377.192 43.0114 377.565 42.625 378.036 42.3352C378.508 42.0455 379.039 41.8267 379.63 41.679C380.227 41.5256 380.843 41.4148 381.479 41.3466C382.246 41.267 382.869 41.196 383.346 41.1335C383.823 41.0653 384.17 40.9631 384.386 40.8267C384.607 40.6847 384.718 40.4659 384.718 40.1705V40.1193C384.718 39.4773 384.528 38.9801 384.147 38.6278C383.766 38.2756 383.218 38.0994 382.502 38.0994C381.746 38.0994 381.147 38.2642 380.704 38.5938C380.266 38.9233 379.971 39.3125 379.817 39.7614L376.937 39.3523C377.164 38.5568 377.539 37.892 378.062 37.358C378.585 36.8182 379.224 36.4148 379.979 36.1477C380.735 35.875 381.57 35.7386 382.485 35.7386C383.116 35.7386 383.744 35.8125 384.369 35.9602C384.994 36.108 385.565 36.3523 386.082 36.6932C386.599 37.0284 387.013 37.4858 387.326 38.0653C387.644 38.6449 387.803 39.3693 387.803 40.2386V49H384.837V47.2017H384.735C384.548 47.5653 384.283 47.9062 383.942 48.2244C383.607 48.5369 383.184 48.7898 382.673 48.983C382.167 49.1705 381.573 49.2642 380.891 49.2642ZM381.692 46.9972C382.312 46.9972 382.849 46.875 383.303 46.6307C383.758 46.3807 384.107 46.0511 384.352 45.642C384.602 45.233 384.727 44.7869 384.727 44.304V42.7614C384.63 42.8409 384.465 42.9148 384.232 42.983C384.005 43.0511 383.749 43.1108 383.465 43.1619C383.181 43.2131 382.9 43.2585 382.621 43.2983C382.343 43.3381 382.102 43.3722 381.897 43.4006C381.437 43.4631 381.025 43.5653 380.661 43.7074C380.298 43.8494 380.011 44.0483 379.8 44.304C379.59 44.554 379.485 44.8778 379.485 45.2756C379.485 45.8438 379.692 46.2727 380.107 46.5625C380.522 46.8523 381.05 46.9972 381.692 46.9972Z" fill="#C00045"/>
<path d="M467 26L470.817 37.0557H483.168L473.176 43.8885L476.992 54.9443L467 48.1115L457.008 54.9443L460.824 43.8885L450.832 37.0557H463.183L467 26Z" fill="#C00046"/>
<path d="M663 27.5322L666.344 37.2189L666.46 37.5557H666.817H677.551L668.893 43.4758L668.579 43.6911L668.703 44.0517L672.026 53.6779L663.282 47.6987L663 47.5057L662.718 47.6987L653.974 53.6779L657.297 44.0517L657.421 43.6911L657.107 43.4758L648.449 37.5557H659.183H659.54L659.656 37.2189L663 27.5322Z" fill="white" stroke="#C00046"/>
<path d="M614 26L617.817 37.0557H630.168L620.176 43.8885L623.992 54.9443L614 48.1115L604.008 54.9443L607.824 43.8885L597.832 37.0557H610.183L614 26Z" fill="#C00046"/>
<path d="M565 26L568.817 37.0557H581.168L571.176 43.8885L574.992 54.9443L565 48.1115L555.008 54.9443L558.824 43.8885L548.832 37.0557H561.183L565 26Z" fill="#C00046"/>
<path d="M516 26L519.817 37.0557H532.168L522.176 43.8885L525.992 54.9443L516 48.1115L506.008 54.9443L509.824 43.8885L499.832 37.0557H512.183L516 26Z" fill="#C00046"/>
</svg>
