<svg width="721" height="214" viewBox="0 0 721 214" fill="none" xmlns="http://www.w3.org/2000/svg">
<rect x="2" y="2" width="717" height="210" rx="28" fill="white" stroke="#C00046" stroke-width="4"/>
<path d="M117.5 58C117.5 75.3622 102.314 89.5 83.5 89.5C64.6862 89.5 49.5 75.3622 49.5 58C49.5 40.6378 64.6862 26.5 83.5 26.5C102.314 26.5 117.5 40.6378 117.5 58Z" fill="#E9E9E9" stroke="#C00046"/>
<path d="M165.173 109H162.531V96.6562H160.116C159.463 96.6562 158.926 96.7533 158.504 96.9474C158.088 97.1368 157.777 97.4162 157.574 97.7855C157.375 98.1501 157.276 98.5904 157.276 99.1065C157.276 99.6226 157.375 100.058 157.574 100.413C157.773 100.764 158.08 101.031 158.497 101.216C158.919 101.396 159.454 101.486 160.102 101.486H163.639V103.673H159.747C158.63 103.673 157.688 103.489 156.92 103.119C156.153 102.745 155.571 102.217 155.173 101.536C154.78 100.849 154.584 100.039 154.584 99.1065C154.584 98.1785 154.778 97.3665 155.166 96.6705C155.559 95.9697 156.137 95.4252 156.899 95.0369C157.661 94.6487 158.599 94.4545 159.712 94.4545H165.173V109ZM157.652 102.409H160.528L156.991 109H154.051L157.652 102.409ZM172.272 106.01H174.822C174.845 106.417 175.028 106.732 175.369 106.955C175.71 107.177 176.152 107.288 176.697 107.288C177.251 107.288 177.717 107.168 178.096 106.926C178.479 106.68 178.671 106.308 178.671 105.811C178.671 105.518 178.598 105.259 178.451 105.037C178.304 104.81 178.098 104.634 177.833 104.511C177.568 104.388 177.255 104.327 176.896 104.327H175.227V102.501H176.896C177.431 102.501 177.835 102.378 178.11 102.132C178.389 101.886 178.529 101.576 178.529 101.202C178.529 100.799 178.382 100.473 178.089 100.222C177.8 99.9706 177.4 99.8452 176.888 99.8452C176.377 99.8452 175.951 99.9612 175.61 100.193C175.274 100.425 175.099 100.723 175.085 101.088H172.549C172.558 100.454 172.748 99.902 173.117 99.4332C173.491 98.9645 173.993 98.5999 174.623 98.3395C175.257 98.0791 175.972 97.9489 176.768 97.9489C177.62 97.9489 178.356 98.0767 178.977 98.3324C179.597 98.5881 180.075 98.9455 180.411 99.4048C180.747 99.8594 180.915 100.394 180.915 101.01C180.915 101.602 180.731 102.092 180.362 102.48C179.992 102.864 179.495 103.138 178.87 103.304V103.418C179.301 103.441 179.689 103.564 180.035 103.787C180.38 104.005 180.655 104.301 180.859 104.675C181.062 105.049 181.164 105.482 181.164 105.974C181.164 106.642 180.972 107.22 180.589 107.707C180.205 108.19 179.677 108.562 179.005 108.822C178.337 109.083 177.573 109.213 176.711 109.213C175.873 109.213 175.122 109.088 174.46 108.837C173.801 108.581 173.278 108.214 172.89 107.736C172.502 107.258 172.296 106.682 172.272 106.01ZM186.327 109.22C185.636 109.22 185.013 109.097 184.46 108.851C183.91 108.6 183.475 108.231 183.153 107.743C182.835 107.255 182.677 106.654 182.677 105.939C182.677 105.323 182.79 104.814 183.018 104.412C183.245 104.009 183.555 103.688 183.948 103.446C184.341 103.205 184.784 103.022 185.276 102.899C185.773 102.771 186.287 102.679 186.817 102.622C187.457 102.556 187.975 102.497 188.373 102.445C188.771 102.388 189.059 102.303 189.239 102.189C189.424 102.071 189.516 101.888 189.516 101.642V101.599C189.516 101.064 189.358 100.65 189.04 100.357C188.723 100.063 188.266 99.9162 187.67 99.9162C187.04 99.9162 186.54 100.054 186.171 100.328C185.807 100.603 185.56 100.927 185.433 101.301L183.032 100.96C183.221 100.297 183.534 99.7434 183.969 99.2983C184.405 98.8485 184.938 98.5123 185.567 98.2898C186.197 98.0625 186.893 97.9489 187.656 97.9489C188.181 97.9489 188.704 98.0104 189.225 98.1335C189.746 98.2566 190.222 98.4602 190.653 98.7443C191.084 99.0237 191.429 99.4048 191.69 99.8878C191.955 100.371 192.087 100.974 192.087 101.699V109H189.616V107.501H189.531C189.374 107.804 189.154 108.089 188.87 108.354C188.591 108.614 188.238 108.825 187.812 108.986C187.39 109.142 186.896 109.22 186.327 109.22ZM186.995 107.331C187.511 107.331 187.959 107.229 188.337 107.026C188.716 106.817 189.007 106.543 189.211 106.202C189.419 105.861 189.523 105.489 189.523 105.087V103.801C189.443 103.867 189.306 103.929 189.112 103.986C188.922 104.043 188.709 104.092 188.472 104.135C188.236 104.178 188.001 104.215 187.769 104.249C187.537 104.282 187.336 104.31 187.165 104.334C186.782 104.386 186.439 104.471 186.136 104.589C185.833 104.708 185.594 104.874 185.418 105.087C185.243 105.295 185.156 105.565 185.156 105.896C185.156 106.37 185.328 106.727 185.674 106.969C186.02 107.21 186.46 107.331 186.995 107.331ZM194.673 109V98.0909H197.244V102.494H198.181L201.462 98.0909H204.559L200.518 103.446L204.602 109H201.491L198.501 104.888H197.244V109H194.673ZM209.199 109.22C208.507 109.22 207.885 109.097 207.331 108.851C206.781 108.6 206.346 108.231 206.024 107.743C205.707 107.255 205.548 106.654 205.548 105.939C205.548 105.323 205.662 104.814 205.889 104.412C206.116 104.009 206.426 103.688 206.819 103.446C207.212 103.205 207.655 103.022 208.147 102.899C208.645 102.771 209.158 102.679 209.689 102.622C210.328 102.556 210.846 102.497 211.244 102.445C211.642 102.388 211.931 102.303 212.11 102.189C212.295 102.071 212.387 101.888 212.387 101.642V101.599C212.387 101.064 212.229 100.65 211.912 100.357C211.594 100.063 211.137 99.9162 210.541 99.9162C209.911 99.9162 209.412 100.054 209.042 100.328C208.678 100.603 208.431 100.927 208.304 101.301L205.903 100.96C206.092 100.297 206.405 99.7434 206.841 99.2983C207.276 98.8485 207.809 98.5123 208.439 98.2898C209.068 98.0625 209.764 97.9489 210.527 97.9489C211.052 97.9489 211.575 98.0104 212.096 98.1335C212.617 98.2566 213.093 98.4602 213.524 98.7443C213.955 99.0237 214.3 99.4048 214.561 99.8878C214.826 100.371 214.958 100.974 214.958 101.699V109H212.487V107.501H212.402C212.245 107.804 212.025 108.089 211.741 108.354C211.462 108.614 211.109 108.825 210.683 108.986C210.261 109.142 209.767 109.22 209.199 109.22ZM209.866 107.331C210.382 107.331 210.83 107.229 211.208 107.026C211.587 106.817 211.878 106.543 212.082 106.202C212.29 105.861 212.395 105.489 212.395 105.087V103.801C212.314 103.867 212.177 103.929 211.983 103.986C211.793 104.043 211.58 104.092 211.343 104.135C211.107 104.178 210.872 104.215 210.64 104.249C210.408 104.282 210.207 104.31 210.037 104.334C209.653 104.386 209.31 104.471 209.007 104.589C208.704 104.708 208.465 104.874 208.289 105.087C208.114 105.295 208.027 105.565 208.027 105.896C208.027 106.37 208.199 106.727 208.545 106.969C208.891 107.21 209.331 107.331 209.866 107.331ZM216.94 106.01H219.49C219.513 106.417 219.696 106.732 220.037 106.955C220.377 107.177 220.82 107.288 221.365 107.288C221.919 107.288 222.385 107.168 222.764 106.926C223.147 106.68 223.339 106.308 223.339 105.811C223.339 105.518 223.266 105.259 223.119 105.037C222.972 104.81 222.766 104.634 222.501 104.511C222.236 104.388 221.923 104.327 221.564 104.327H219.895V102.501H221.564C222.099 102.501 222.503 102.378 222.778 102.132C223.057 101.886 223.197 101.576 223.197 101.202C223.197 100.799 223.05 100.473 222.757 100.222C222.468 99.9706 222.068 99.8452 221.556 99.8452C221.045 99.8452 220.619 99.9612 220.278 100.193C219.942 100.425 219.767 100.723 219.752 101.088H217.217C217.226 100.454 217.416 99.902 217.785 99.4332C218.159 98.9645 218.661 98.5999 219.291 98.3395C219.925 98.0791 220.64 97.9489 221.436 97.9489C222.288 97.9489 223.024 98.0767 223.645 98.3324C224.265 98.5881 224.743 98.9455 225.079 99.4048C225.415 99.8594 225.583 100.394 225.583 101.01C225.583 101.602 225.399 102.092 225.029 102.48C224.66 102.864 224.163 103.138 223.538 103.304V103.418C223.969 103.441 224.357 103.564 224.703 103.787C225.048 104.005 225.323 104.301 225.527 104.675C225.73 105.049 225.832 105.482 225.832 105.974C225.832 106.642 225.64 107.22 225.257 107.707C224.873 108.19 224.345 108.562 223.673 108.822C223.005 109.083 222.241 109.213 221.379 109.213C220.541 109.213 219.79 109.088 219.127 108.837C218.469 108.581 217.946 108.214 217.558 107.736C217.17 107.258 216.964 106.682 216.94 106.01ZM229.596 101.642H232.814C234.206 101.642 235.283 101.981 236.045 102.658C236.807 103.335 237.191 104.223 237.196 105.321C237.191 106.036 237.016 106.67 236.67 107.224C236.329 107.778 235.832 108.214 235.179 108.531C234.53 108.844 233.742 109 232.814 109H227.856V98.0909H230.335V106.891H232.814C233.372 106.891 233.832 106.749 234.191 106.464C234.551 106.176 234.731 105.806 234.731 105.357C234.731 104.883 234.551 104.497 234.191 104.199C233.832 103.901 233.372 103.751 232.814 103.751H229.596V101.642ZM238.552 109V98.0909H241.123V109H238.552ZM243.774 109V98.0909H248.355C249.648 98.0909 250.668 98.349 251.416 98.8651C252.169 99.3812 252.545 100.101 252.545 101.024C252.545 101.635 252.332 102.134 251.906 102.523C251.485 102.906 250.91 103.164 250.18 103.297C250.753 103.344 251.255 103.489 251.686 103.73C252.122 103.972 252.463 104.289 252.709 104.682C252.955 105.075 253.078 105.527 253.078 106.038C253.078 106.64 252.92 107.163 252.602 107.608C252.29 108.048 251.833 108.392 251.232 108.638C250.635 108.879 249.911 109 249.058 109H243.774ZM246.182 106.976H249.058C249.532 106.976 249.903 106.865 250.173 106.642C250.443 106.415 250.578 106.107 250.578 105.719C250.578 105.269 250.443 104.916 250.173 104.661C249.903 104.4 249.532 104.27 249.058 104.27H246.182V106.976ZM246.182 102.608H248.405C248.755 102.608 249.056 102.558 249.307 102.459C249.558 102.355 249.75 102.21 249.882 102.026C250.015 101.836 250.081 101.611 250.081 101.351C250.081 100.977 249.927 100.683 249.619 100.47C249.316 100.257 248.895 100.151 248.355 100.151H246.182V102.608ZM258.339 109.22C257.648 109.22 257.025 109.097 256.471 108.851C255.922 108.6 255.486 108.231 255.164 107.743C254.847 107.255 254.689 106.654 254.689 105.939C254.689 105.323 254.802 104.814 255.029 104.412C255.257 104.009 255.567 103.688 255.96 103.446C256.353 103.205 256.796 103.022 257.288 102.899C257.785 102.771 258.299 102.679 258.829 102.622C259.468 102.556 259.987 102.497 260.385 102.445C260.782 102.388 261.071 102.303 261.251 102.189C261.436 102.071 261.528 101.888 261.528 101.642V101.599C261.528 101.064 261.369 100.65 261.052 100.357C260.735 100.063 260.278 99.9162 259.681 99.9162C259.052 99.9162 258.552 100.054 258.183 100.328C257.818 100.603 257.572 100.927 257.444 101.301L255.044 100.96C255.233 100.297 255.546 99.7434 255.981 99.2983C256.417 98.8485 256.949 98.5123 257.579 98.2898C258.209 98.0625 258.905 97.9489 259.667 97.9489C260.193 97.9489 260.716 98.0104 261.237 98.1335C261.758 98.2566 262.234 98.4602 262.664 98.7443C263.095 99.0237 263.441 99.4048 263.701 99.8878C263.967 100.371 264.099 100.974 264.099 101.699V109H261.627V107.501H261.542C261.386 107.804 261.166 108.089 260.882 108.354C260.602 108.614 260.25 108.825 259.824 108.986C259.402 109.142 258.907 109.22 258.339 109.22ZM259.007 107.331C259.523 107.331 259.97 107.229 260.349 107.026C260.728 106.817 261.019 106.543 261.223 106.202C261.431 105.861 261.535 105.489 261.535 105.087V103.801C261.455 103.867 261.317 103.929 261.123 103.986C260.934 104.043 260.721 104.092 260.484 104.135C260.247 104.178 260.013 104.215 259.781 104.249C259.549 104.282 259.348 104.31 259.177 104.334C258.794 104.386 258.45 104.471 258.147 104.589C257.844 104.708 257.605 104.874 257.43 105.087C257.255 105.295 257.167 105.565 257.167 105.896C257.167 106.37 257.34 106.727 257.686 106.969C258.031 107.21 258.472 107.331 259.007 107.331ZM265.931 109L265.917 106.884H266.294C266.578 106.884 266.817 106.82 267.011 106.692C267.205 106.564 267.366 106.351 267.494 106.053C267.622 105.75 267.721 105.342 267.792 104.831C267.863 104.32 267.913 103.683 267.941 102.92L268.133 98.0909H276.088V109H273.602V100.2H270.47L270.299 103.716C270.257 104.625 270.155 105.413 269.994 106.081C269.838 106.744 269.615 107.291 269.326 107.722C269.042 108.152 268.685 108.474 268.254 108.688C267.823 108.896 267.314 109 266.727 109H265.931ZM281.816 109.22C281.124 109.22 280.502 109.097 279.948 108.851C279.399 108.6 278.963 108.231 278.641 107.743C278.324 107.255 278.165 106.654 278.165 105.939C278.165 105.323 278.279 104.814 278.506 104.412C278.733 104.009 279.043 103.688 279.436 103.446C279.829 103.205 280.272 103.022 280.765 102.899C281.262 102.771 281.775 102.679 282.306 102.622C282.945 102.556 283.463 102.497 283.861 102.445C284.259 102.388 284.548 102.303 284.728 102.189C284.912 102.071 285.005 101.888 285.005 101.642V101.599C285.005 101.064 284.846 100.65 284.529 100.357C284.212 100.063 283.755 99.9162 283.158 99.9162C282.528 99.9162 282.029 100.054 281.659 100.328C281.295 100.603 281.049 100.927 280.921 101.301L278.52 100.96C278.71 100.297 279.022 99.7434 279.458 99.2983C279.893 98.8485 280.426 98.5123 281.056 98.2898C281.685 98.0625 282.382 97.9489 283.144 97.9489C283.669 97.9489 284.193 98.0104 284.713 98.1335C285.234 98.2566 285.71 98.4602 286.141 98.7443C286.572 99.0237 286.917 99.4048 287.178 99.8878C287.443 100.371 287.576 100.974 287.576 101.699V109H285.104V107.501H285.019C284.863 107.804 284.642 108.089 284.358 108.354C284.079 108.614 283.726 108.825 283.3 108.986C282.879 109.142 282.384 109.22 281.816 109.22ZM282.483 107.331C282.999 107.331 283.447 107.229 283.826 107.026C284.204 106.817 284.496 106.543 284.699 106.202C284.908 105.861 285.012 105.489 285.012 105.087V103.801C284.931 103.867 284.794 103.929 284.6 103.986C284.41 104.043 284.197 104.092 283.961 104.135C283.724 104.178 283.489 104.215 283.257 104.249C283.025 104.282 282.824 104.31 282.654 104.334C282.27 104.386 281.927 104.471 281.624 104.589C281.321 104.708 281.082 104.874 280.907 105.087C280.731 105.295 280.644 105.565 280.644 105.896C280.644 106.37 280.817 106.727 281.162 106.969C281.508 107.21 281.948 107.331 282.483 107.331ZM296.72 113.091C296.369 113.091 296.045 113.063 295.747 113.006C295.453 112.954 295.219 112.892 295.044 112.821L295.64 110.818C296.014 110.927 296.348 110.979 296.642 110.974C296.935 110.97 297.193 110.877 297.416 110.697C297.643 110.522 297.835 110.229 297.991 109.817L298.211 109.227L294.255 98.0909H296.983L299.497 106.33H299.61L302.132 98.0909H304.866L300.498 110.321C300.295 110.899 300.025 111.393 299.689 111.805C299.352 112.222 298.94 112.539 298.453 112.757C297.97 112.98 297.392 113.091 296.72 113.091ZM311.606 109V98.0909H316.187C317.48 98.0909 318.5 98.349 319.248 98.8651C320.001 99.3812 320.377 100.101 320.377 101.024C320.377 101.635 320.164 102.134 319.738 102.523C319.317 102.906 318.742 103.164 318.012 103.297C318.585 103.344 319.087 103.489 319.518 103.73C319.954 103.972 320.295 104.289 320.541 104.682C320.787 105.075 320.91 105.527 320.91 106.038C320.91 106.64 320.752 107.163 320.434 107.608C320.122 108.048 319.665 108.392 319.064 108.638C318.467 108.879 317.743 109 316.89 109H311.606ZM314.014 106.976H316.89C317.364 106.976 317.735 106.865 318.005 106.642C318.275 106.415 318.41 106.107 318.41 105.719C318.41 105.269 318.275 104.916 318.005 104.661C317.735 104.4 317.364 104.27 316.89 104.27H314.014V106.976ZM314.014 102.608H316.237C316.587 102.608 316.888 102.558 317.139 102.459C317.39 102.355 317.582 102.21 317.714 102.026C317.847 101.836 317.913 101.611 317.913 101.351C317.913 100.977 317.759 100.683 317.451 100.47C317.148 100.257 316.727 100.151 316.187 100.151H314.014V102.608ZM326.171 109.22C325.48 109.22 324.857 109.097 324.303 108.851C323.754 108.6 323.318 108.231 322.996 107.743C322.679 107.255 322.521 106.654 322.521 105.939C322.521 105.323 322.634 104.814 322.862 104.412C323.089 104.009 323.399 103.688 323.792 103.446C324.185 103.205 324.628 103.022 325.12 102.899C325.617 102.771 326.131 102.679 326.661 102.622C327.3 102.556 327.819 102.497 328.217 102.445C328.614 102.388 328.903 102.303 329.083 102.189C329.268 102.071 329.36 101.888 329.36 101.642V101.599C329.36 101.064 329.201 100.65 328.884 100.357C328.567 100.063 328.11 99.9162 327.513 99.9162C326.884 99.9162 326.384 100.054 326.015 100.328C325.65 100.603 325.404 100.927 325.276 101.301L322.876 100.96C323.065 100.297 323.378 99.7434 323.813 99.2983C324.249 98.8485 324.781 98.5123 325.411 98.2898C326.041 98.0625 326.737 97.9489 327.499 97.9489C328.025 97.9489 328.548 98.0104 329.069 98.1335C329.59 98.2566 330.066 98.4602 330.496 98.7443C330.927 99.0237 331.273 99.4048 331.533 99.8878C331.799 100.371 331.931 100.974 331.931 101.699V109H329.46V107.501H329.374C329.218 107.804 328.998 108.089 328.714 108.354C328.434 108.614 328.082 108.825 327.656 108.986C327.234 109.142 326.739 109.22 326.171 109.22ZM326.839 107.331C327.355 107.331 327.802 107.229 328.181 107.026C328.56 106.817 328.851 106.543 329.055 106.202C329.263 105.861 329.367 105.489 329.367 105.087V103.801C329.287 103.867 329.149 103.929 328.955 103.986C328.766 104.043 328.553 104.092 328.316 104.135C328.079 104.178 327.845 104.215 327.613 104.249C327.381 104.282 327.18 104.31 327.009 104.334C326.626 104.386 326.282 104.471 325.979 104.589C325.676 104.708 325.437 104.874 325.262 105.087C325.087 105.295 324.999 105.565 324.999 105.896C324.999 106.37 325.172 106.727 325.518 106.969C325.863 107.21 326.304 107.331 326.839 107.331ZM339.275 109.213C338.186 109.213 337.251 108.974 336.469 108.496C335.693 108.018 335.094 107.357 334.673 106.514C334.256 105.667 334.048 104.691 334.048 103.588C334.048 102.48 334.261 101.502 334.687 100.655C335.113 99.8026 335.714 99.1397 336.491 98.6662C337.272 98.188 338.195 97.9489 339.261 97.9489C340.146 97.9489 340.93 98.1122 341.612 98.4389C342.298 98.7609 342.845 99.2178 343.252 99.8097C343.659 100.397 343.891 101.083 343.948 101.869H341.491C341.391 101.344 341.155 100.906 340.781 100.555C340.411 100.2 339.916 100.023 339.296 100.023C338.771 100.023 338.309 100.165 337.911 100.449C337.513 100.728 337.203 101.131 336.981 101.656C336.763 102.182 336.654 102.812 336.654 103.545C336.654 104.289 336.763 104.928 336.981 105.463C337.199 105.993 337.504 106.403 337.897 106.692C338.295 106.976 338.761 107.118 339.296 107.118C339.675 107.118 340.013 107.047 340.312 106.905C340.615 106.758 340.868 106.547 341.072 106.273C341.275 105.998 341.415 105.664 341.491 105.271H343.948C343.887 106.043 343.659 106.727 343.266 107.324C342.873 107.916 342.338 108.38 341.661 108.716C340.984 109.047 340.189 109.213 339.275 109.213ZM350.424 100.2V98.0909H359.969V100.2H356.439V109H353.953V100.2H350.424ZM366.326 109.213C365.26 109.213 364.337 108.979 363.556 108.51C362.775 108.041 362.168 107.385 361.738 106.543C361.311 105.7 361.098 104.715 361.098 103.588C361.098 102.461 361.311 101.474 361.738 100.626C362.168 99.7789 362.775 99.1207 363.556 98.652C364.337 98.1832 365.26 97.9489 366.326 97.9489C367.391 97.9489 368.314 98.1832 369.096 98.652C369.877 99.1207 370.48 99.7789 370.907 100.626C371.337 101.474 371.553 102.461 371.553 103.588C371.553 104.715 371.337 105.7 370.907 106.543C370.48 107.385 369.877 108.041 369.096 108.51C368.314 108.979 367.391 109.213 366.326 109.213ZM366.34 107.153C366.917 107.153 367.4 106.995 367.789 106.678C368.177 106.356 368.466 105.925 368.655 105.385C368.849 104.845 368.946 104.244 368.946 103.581C368.946 102.913 368.849 102.31 368.655 101.77C368.466 101.225 368.177 100.792 367.789 100.47C367.4 100.148 366.917 99.9872 366.34 99.9872C365.748 99.9872 365.256 100.148 364.863 100.47C364.474 100.792 364.183 101.225 363.989 101.77C363.8 102.31 363.705 102.913 363.705 103.581C363.705 104.244 363.8 104.845 363.989 105.385C364.183 105.925 364.474 106.356 364.863 106.678C365.256 106.995 365.748 107.153 366.34 107.153ZM373.735 113.091V98.0909H376.263V99.8949H376.413C376.545 99.6297 376.732 99.348 376.974 99.0497C377.215 98.7467 377.542 98.4886 377.954 98.2756C378.366 98.0578 378.891 97.9489 379.531 97.9489C380.373 97.9489 381.133 98.1643 381.81 98.5952C382.492 99.0213 383.032 99.6534 383.43 100.491C383.832 101.325 384.033 102.348 384.033 103.56C384.033 104.758 383.837 105.776 383.444 106.614C383.051 107.452 382.516 108.091 381.839 108.531C381.162 108.972 380.395 109.192 379.538 109.192C378.913 109.192 378.394 109.088 377.982 108.879C377.57 108.671 377.239 108.42 376.988 108.126C376.742 107.828 376.55 107.546 376.413 107.281H376.306V113.091H373.735ZM376.256 103.545C376.256 104.251 376.356 104.869 376.555 105.399C376.758 105.929 377.049 106.344 377.428 106.642C377.812 106.936 378.276 107.082 378.82 107.082C379.388 107.082 379.864 106.931 380.248 106.628C380.631 106.32 380.92 105.901 381.114 105.371C381.313 104.836 381.413 104.227 381.413 103.545C381.413 102.868 381.316 102.267 381.121 101.741C380.927 101.216 380.638 100.804 380.255 100.506C379.871 100.207 379.393 100.058 378.82 100.058C378.271 100.058 377.805 100.203 377.421 100.491C377.038 100.78 376.746 101.185 376.548 101.706C376.353 102.227 376.256 102.84 376.256 103.545ZM385.033 100.2V98.0909H394.578V100.2H391.049V109H388.563V100.2H385.033ZM409.08 102.48V104.589H403.27V102.48H409.08ZM404.065 98.0909V109H401.587V98.0909H404.065ZM410.763 98.0909V109H408.291V98.0909H410.763ZM416.503 109.22C415.812 109.22 415.189 109.097 414.635 108.851C414.086 108.6 413.65 108.231 413.328 107.743C413.011 107.255 412.853 106.654 412.853 105.939C412.853 105.323 412.966 104.814 413.194 104.412C413.421 104.009 413.731 103.688 414.124 103.446C414.517 103.205 414.96 103.022 415.452 102.899C415.949 102.771 416.463 102.679 416.993 102.622C417.632 102.556 418.151 102.497 418.549 102.445C418.946 102.388 419.235 102.303 419.415 102.189C419.6 102.071 419.692 101.888 419.692 101.642V101.599C419.692 101.064 419.533 100.65 419.216 100.357C418.899 100.063 418.442 99.9162 417.846 99.9162C417.216 99.9162 416.716 100.054 416.347 100.328C415.982 100.603 415.736 100.927 415.608 101.301L413.208 100.96C413.397 100.297 413.71 99.7434 414.145 99.2983C414.581 98.8485 415.114 98.5123 415.743 98.2898C416.373 98.0625 417.069 97.9489 417.831 97.9489C418.357 97.9489 418.88 98.0104 419.401 98.1335C419.922 98.2566 420.398 98.4602 420.828 98.7443C421.259 99.0237 421.605 99.4048 421.865 99.8878C422.131 100.371 422.263 100.974 422.263 101.699V109H419.792V107.501H419.706C419.55 107.804 419.33 108.089 419.046 108.354C418.766 108.614 418.414 108.825 417.988 108.986C417.566 109.142 417.071 109.22 416.503 109.22ZM417.171 107.331C417.687 107.331 418.134 107.229 418.513 107.026C418.892 106.817 419.183 106.543 419.387 106.202C419.595 105.861 419.699 105.489 419.699 105.087V103.801C419.619 103.867 419.481 103.929 419.287 103.986C419.098 104.043 418.885 104.092 418.648 104.135C418.411 104.178 418.177 104.215 417.945 104.249C417.713 104.282 417.512 104.31 417.341 104.334C416.958 104.386 416.614 104.471 416.311 104.589C416.008 104.708 415.769 104.874 415.594 105.087C415.419 105.295 415.331 105.565 415.331 105.896C415.331 106.37 415.504 106.727 415.85 106.969C416.195 107.21 416.636 107.331 417.171 107.331ZM428.843 112.168V106.884H429.71C429.942 106.704 430.136 106.46 430.292 106.152C430.449 105.839 430.576 105.473 430.676 105.051C430.78 104.625 430.865 104.149 430.931 103.624C430.998 103.093 431.057 102.523 431.109 101.912L431.422 98.0909H439.305V106.884H440.995V112.168H438.51V109H431.372V112.168H428.843ZM432.352 106.884H436.848V100.165H433.652L433.481 101.912C433.386 103.067 433.261 104.057 433.105 104.881C432.949 105.705 432.698 106.372 432.352 106.884ZM447.744 109.213C446.651 109.213 445.706 108.986 444.911 108.531C444.12 108.072 443.511 107.423 443.085 106.585C442.659 105.742 442.446 104.75 442.446 103.609C442.446 102.487 442.659 101.502 443.085 100.655C443.516 99.8026 444.117 99.1397 444.889 98.6662C445.661 98.188 446.568 97.9489 447.609 97.9489C448.282 97.9489 448.916 98.0578 449.513 98.2756C450.114 98.4886 450.644 98.8201 451.104 99.2699C451.568 99.7197 451.932 100.293 452.197 100.989C452.463 101.68 452.595 102.504 452.595 103.46V104.249H443.653V102.516H450.131C450.126 102.023 450.019 101.585 449.811 101.202C449.603 100.813 449.312 100.508 448.938 100.286C448.568 100.063 448.137 99.9517 447.645 99.9517C447.119 99.9517 446.658 100.08 446.26 100.335C445.862 100.586 445.552 100.918 445.33 101.33C445.112 101.737 445 102.184 444.996 102.672V104.185C444.996 104.819 445.112 105.364 445.344 105.818C445.576 106.268 445.9 106.614 446.317 106.855C446.733 107.092 447.221 107.21 447.78 107.21C448.154 107.21 448.492 107.158 448.795 107.054C449.098 106.945 449.361 106.786 449.584 106.578C449.806 106.37 449.974 106.112 450.088 105.804L452.489 106.074C452.337 106.708 452.048 107.262 451.622 107.736C451.201 108.205 450.661 108.569 450.003 108.83C449.345 109.085 448.592 109.213 447.744 109.213ZM462.263 102.48V104.589H456.453V102.48H462.263ZM457.249 98.0909V109H454.77V98.0909H457.249ZM463.946 98.0909V109H461.475V98.0909H463.946ZM468.288 101.642H471.505C472.897 101.642 473.974 101.981 474.737 102.658C475.499 103.335 475.882 104.223 475.887 105.321C475.882 106.036 475.707 106.67 475.362 107.224C475.021 107.778 474.523 108.214 473.87 108.531C473.221 108.844 472.433 109 471.505 109H466.548V98.0909H469.026V106.891H471.505C472.064 106.891 472.523 106.749 472.883 106.464C473.243 106.176 473.423 105.806 473.423 105.357C473.423 104.883 473.243 104.497 472.883 104.199C472.523 103.901 472.064 103.751 471.505 103.751H468.288V101.642ZM154.321 137.091V122.091H156.849V123.895H156.999C157.131 123.63 157.318 123.348 157.56 123.05C157.801 122.747 158.128 122.489 158.54 122.276C158.952 122.058 159.477 121.949 160.116 121.949C160.959 121.949 161.719 122.164 162.396 122.595C163.078 123.021 163.618 123.653 164.016 124.491C164.418 125.325 164.619 126.348 164.619 127.56C164.619 128.758 164.423 129.776 164.03 130.614C163.637 131.452 163.102 132.091 162.425 132.531C161.748 132.972 160.981 133.192 160.124 133.192C159.499 133.192 158.98 133.088 158.568 132.879C158.156 132.671 157.825 132.42 157.574 132.126C157.328 131.828 157.136 131.546 156.999 131.281H156.892V137.091H154.321ZM156.842 127.545C156.842 128.251 156.942 128.869 157.141 129.399C157.344 129.929 157.635 130.344 158.014 130.642C158.398 130.936 158.862 131.082 159.406 131.082C159.974 131.082 160.45 130.931 160.834 130.628C161.217 130.32 161.506 129.901 161.7 129.371C161.899 128.836 161.999 128.227 161.999 127.545C161.999 126.868 161.902 126.267 161.707 125.741C161.513 125.216 161.224 124.804 160.841 124.506C160.457 124.207 159.979 124.058 159.406 124.058C158.857 124.058 158.391 124.203 158.007 124.491C157.624 124.78 157.332 125.185 157.134 125.706C156.939 126.227 156.842 126.84 156.842 127.545ZM171.58 133.213C170.514 133.213 169.591 132.979 168.81 132.51C168.028 132.041 167.422 131.385 166.991 130.543C166.565 129.7 166.352 128.715 166.352 127.588C166.352 126.461 166.565 125.474 166.991 124.626C167.422 123.779 168.028 123.121 168.81 122.652C169.591 122.183 170.514 121.949 171.58 121.949C172.645 121.949 173.568 122.183 174.349 122.652C175.131 123.121 175.734 123.779 176.161 124.626C176.591 125.474 176.807 126.461 176.807 127.588C176.807 128.715 176.591 129.7 176.161 130.543C175.734 131.385 175.131 132.041 174.349 132.51C173.568 132.979 172.645 133.213 171.58 133.213ZM171.594 131.153C172.171 131.153 172.654 130.995 173.043 130.678C173.431 130.356 173.72 129.925 173.909 129.385C174.103 128.845 174.2 128.244 174.2 127.581C174.2 126.913 174.103 126.31 173.909 125.77C173.72 125.225 173.431 124.792 173.043 124.47C172.654 124.148 172.171 123.987 171.594 123.987C171.002 123.987 170.509 124.148 170.116 124.47C169.728 124.792 169.437 125.225 169.243 125.77C169.054 126.31 168.959 126.913 168.959 127.581C168.959 128.244 169.054 128.845 169.243 129.385C169.437 129.925 169.728 130.356 170.116 130.678C170.509 130.995 171.002 131.153 171.594 131.153ZM177.869 133L181.896 127.368L177.904 122.091H180.873L183.977 126.487H184.587V122.091H187.158V126.487H187.755L190.859 122.091H193.827L189.857 127.368L193.863 133H190.83L187.727 128.597H187.158V133H184.587V128.597H184.019L180.901 133H177.869ZM194.82 136.168V130.884H195.686C195.918 130.704 196.113 130.46 196.269 130.152C196.425 129.839 196.553 129.473 196.652 129.051C196.757 128.625 196.842 128.149 196.908 127.624C196.974 127.093 197.033 126.523 197.086 125.912L197.398 122.091H205.282V130.884H206.972V136.168H204.486V133H197.348V136.168H194.82ZM198.328 130.884H202.824V124.165H199.628L199.458 125.912C199.363 127.067 199.238 128.057 199.081 128.881C198.925 129.705 198.674 130.372 198.328 130.884ZM213.721 133.213C212.627 133.213 211.683 132.986 210.887 132.531C210.096 132.072 209.488 131.423 209.062 130.585C208.636 129.742 208.423 128.75 208.423 127.609C208.423 126.487 208.636 125.502 209.062 124.655C209.493 123.803 210.094 123.14 210.866 122.666C211.638 122.188 212.544 121.949 213.586 121.949C214.258 121.949 214.893 122.058 215.489 122.276C216.091 122.489 216.621 122.82 217.08 123.27C217.544 123.72 217.909 124.293 218.174 124.989C218.439 125.68 218.572 126.504 218.572 127.46V128.249H209.63V126.516H216.107C216.103 126.023 215.996 125.585 215.788 125.202C215.579 124.813 215.288 124.508 214.914 124.286C214.545 124.063 214.114 123.952 213.621 123.952C213.096 123.952 212.634 124.08 212.237 124.335C211.839 124.586 211.529 124.918 211.306 125.33C211.088 125.737 210.977 126.184 210.972 126.672V128.185C210.972 128.819 211.088 129.364 211.32 129.818C211.552 130.268 211.877 130.614 212.293 130.855C212.71 131.092 213.198 131.21 213.756 131.21C214.13 131.21 214.469 131.158 214.772 131.054C215.075 130.945 215.338 130.786 215.56 130.578C215.783 130.37 215.951 130.112 216.065 129.804L218.465 130.074C218.314 130.708 218.025 131.262 217.599 131.736C217.177 132.205 216.638 132.569 215.979 132.83C215.321 133.085 214.568 133.213 213.721 133.213ZM228.24 126.48V128.589H222.43V126.48H228.24ZM223.225 122.091V133H220.747V122.091H223.225ZM229.923 122.091V133H227.451V122.091H229.923ZM235.003 129.52L239.371 122.091H242.013V133H239.527V125.564L235.173 133H232.524V122.091H235.003V129.52ZM251.102 133V124.179H248.772C248.181 124.179 247.726 124.316 247.409 124.591C247.092 124.866 246.935 125.206 246.94 125.614C246.935 126.021 247.084 126.357 247.387 126.622C247.69 126.887 248.124 127.02 248.687 127.02H251.912V128.895H248.687C247.816 128.895 247.063 128.758 246.429 128.483C245.794 128.208 245.306 127.82 244.966 127.318C244.625 126.816 244.454 126.229 244.454 125.557C244.454 124.856 244.627 124.248 244.973 123.732C245.323 123.211 245.82 122.808 246.464 122.524C247.113 122.235 247.882 122.091 248.772 122.091H253.51V133H251.102ZM244.056 133L247.103 127.403H249.639L246.585 133H244.056ZM259.245 118.455L259.01 128.724H256.723L256.496 118.455H259.245ZM257.867 133.156C257.436 133.156 257.067 133.005 256.759 132.702C256.456 132.399 256.304 132.029 256.304 131.594C256.304 131.168 256.456 130.803 256.759 130.5C257.067 130.197 257.436 130.045 257.867 130.045C258.288 130.045 258.653 130.197 258.961 130.5C259.273 130.803 259.429 131.168 259.429 131.594C259.429 131.883 259.356 132.145 259.209 132.382C259.067 132.619 258.878 132.808 258.641 132.95C258.409 133.088 258.151 133.156 257.867 133.156ZM280.342 125.727C280.342 127.295 280.048 128.637 279.461 129.754C278.879 130.867 278.083 131.719 277.075 132.311C276.071 132.903 274.932 133.199 273.659 133.199C272.385 133.199 271.244 132.903 270.235 132.311C269.232 131.714 268.436 130.86 267.849 129.747C267.267 128.63 266.975 127.29 266.975 125.727C266.975 124.16 267.267 122.82 267.849 121.707C268.436 120.59 269.232 119.735 270.235 119.143C271.244 118.552 272.385 118.256 273.659 118.256C274.932 118.256 276.071 118.552 277.075 119.143C278.083 119.735 278.879 120.59 279.461 121.707C280.048 122.82 280.342 124.16 280.342 125.727ZM277.693 125.727C277.693 124.624 277.52 123.694 277.174 122.936C276.833 122.174 276.36 121.598 275.754 121.21C275.148 120.817 274.449 120.621 273.659 120.621C272.868 120.621 272.17 120.817 271.564 121.21C270.958 121.598 270.482 122.174 270.136 122.936C269.795 123.694 269.625 124.624 269.625 125.727C269.625 126.83 269.795 127.763 270.136 128.526C270.482 129.283 270.958 129.858 271.564 130.251C272.17 130.64 272.868 130.834 273.659 130.834C274.449 130.834 275.148 130.64 275.754 130.251C276.36 129.858 276.833 129.283 277.174 128.526C277.52 127.763 277.693 126.83 277.693 125.727ZM290.212 126.48V128.589H284.403V126.48H290.212ZM285.198 122.091V133H282.719V122.091H285.198ZM291.896 122.091V133H289.424V122.091H291.896ZM304.216 133.213C303.151 133.213 302.228 132.979 301.446 132.51C300.665 132.041 300.059 131.385 299.628 130.543C299.202 129.7 298.989 128.715 298.989 127.588C298.989 126.461 299.202 125.474 299.628 124.626C300.059 123.779 300.665 123.121 301.446 122.652C302.228 122.183 303.151 121.949 304.216 121.949C305.282 121.949 306.205 122.183 306.986 122.652C307.767 123.121 308.371 123.779 308.797 124.626C309.228 125.474 309.444 126.461 309.444 127.588C309.444 128.715 309.228 129.7 308.797 130.543C308.371 131.385 307.767 132.041 306.986 132.51C306.205 132.979 305.282 133.213 304.216 133.213ZM304.23 131.153C304.808 131.153 305.291 130.995 305.679 130.678C306.068 130.356 306.356 129.925 306.546 129.385C306.74 128.845 306.837 128.244 306.837 127.581C306.837 126.913 306.74 126.31 306.546 125.77C306.356 125.225 306.068 124.792 305.679 124.47C305.291 124.148 304.808 123.987 304.23 123.987C303.639 123.987 303.146 124.148 302.753 124.47C302.365 124.792 302.074 125.225 301.88 125.77C301.69 126.31 301.596 126.913 301.596 127.581C301.596 128.244 301.69 128.845 301.88 129.385C302.074 129.925 302.365 130.356 302.753 130.678C303.146 130.995 303.639 131.153 304.23 131.153ZM311.626 133V122.091H314.197V126.494H315.134L318.415 122.091H321.512L317.471 127.446L321.555 133H318.444L315.454 128.888H314.197V133H311.626ZM326.152 133.22C325.46 133.22 324.838 133.097 324.284 132.851C323.734 132.6 323.299 132.231 322.977 131.743C322.66 131.255 322.501 130.654 322.501 129.939C322.501 129.323 322.615 128.814 322.842 128.412C323.069 128.009 323.379 127.688 323.772 127.446C324.165 127.205 324.608 127.022 325.1 126.899C325.598 126.771 326.111 126.679 326.642 126.622C327.281 126.556 327.799 126.497 328.197 126.445C328.595 126.388 328.884 126.303 329.064 126.189C329.248 126.071 329.341 125.888 329.341 125.642V125.599C329.341 125.064 329.182 124.65 328.865 124.357C328.547 124.063 328.091 123.916 327.494 123.916C326.864 123.916 326.365 124.054 325.995 124.328C325.631 124.603 325.385 124.927 325.257 125.301L322.856 124.96C323.046 124.297 323.358 123.743 323.794 123.298C324.229 122.848 324.762 122.512 325.392 122.29C326.021 122.062 326.717 121.949 327.48 121.949C328.005 121.949 328.529 122.01 329.049 122.134C329.57 122.257 330.046 122.46 330.477 122.744C330.908 123.024 331.253 123.405 331.514 123.888C331.779 124.371 331.912 124.974 331.912 125.699V133H329.44V131.501H329.355C329.199 131.804 328.978 132.089 328.694 132.354C328.415 132.614 328.062 132.825 327.636 132.986C327.215 133.142 326.72 133.22 326.152 133.22ZM326.819 131.331C327.335 131.331 327.783 131.229 328.162 131.026C328.54 130.817 328.832 130.543 329.035 130.202C329.243 129.861 329.348 129.489 329.348 129.087V127.801C329.267 127.867 329.13 127.929 328.936 127.986C328.746 128.043 328.533 128.092 328.297 128.135C328.06 128.178 327.825 128.215 327.593 128.249C327.361 128.282 327.16 128.31 326.99 128.334C326.606 128.386 326.263 128.471 325.96 128.589C325.657 128.708 325.418 128.874 325.243 129.087C325.067 129.295 324.98 129.565 324.98 129.896C324.98 130.37 325.153 130.727 325.498 130.969C325.844 131.21 326.284 131.331 326.819 131.331ZM333.893 130.01H336.443C336.467 130.417 336.649 130.732 336.99 130.955C337.331 131.177 337.773 131.288 338.318 131.288C338.872 131.288 339.338 131.168 339.717 130.926C340.1 130.68 340.292 130.308 340.292 129.811C340.292 129.518 340.219 129.259 340.072 129.037C339.925 128.81 339.719 128.634 339.454 128.511C339.189 128.388 338.877 128.327 338.517 128.327H336.848V126.501H338.517C339.052 126.501 339.457 126.378 339.731 126.132C340.011 125.886 340.15 125.576 340.15 125.202C340.15 124.799 340.003 124.473 339.71 124.222C339.421 123.971 339.021 123.845 338.51 123.845C337.998 123.845 337.572 123.961 337.231 124.193C336.895 124.425 336.72 124.723 336.706 125.088H334.17C334.18 124.454 334.369 123.902 334.738 123.433C335.112 122.964 335.614 122.6 336.244 122.339C336.878 122.079 337.593 121.949 338.389 121.949C339.241 121.949 339.977 122.077 340.598 122.332C341.218 122.588 341.696 122.946 342.032 123.405C342.368 123.859 342.537 124.394 342.537 125.01C342.537 125.602 342.352 126.092 341.983 126.48C341.613 126.864 341.116 127.138 340.491 127.304V127.418C340.922 127.441 341.31 127.564 341.656 127.787C342.002 128.005 342.276 128.301 342.48 128.675C342.683 129.049 342.785 129.482 342.785 129.974C342.785 130.642 342.593 131.22 342.21 131.707C341.826 132.19 341.298 132.562 340.626 132.822C339.958 133.083 339.194 133.213 338.332 133.213C337.494 133.213 336.743 133.088 336.081 132.837C335.422 132.581 334.899 132.214 334.511 131.736C334.123 131.258 333.917 130.682 333.893 130.01ZM347.949 133.22C347.257 133.22 346.635 133.097 346.081 132.851C345.531 132.6 345.096 132.231 344.774 131.743C344.457 131.255 344.298 130.654 344.298 129.939C344.298 129.323 344.412 128.814 344.639 128.412C344.866 128.009 345.176 127.688 345.569 127.446C345.962 127.205 346.405 127.022 346.897 126.899C347.395 126.771 347.908 126.679 348.439 126.622C349.078 126.556 349.596 126.497 349.994 126.445C350.392 126.388 350.681 126.303 350.86 126.189C351.045 126.071 351.137 125.888 351.137 125.642V125.599C351.137 125.064 350.979 124.65 350.662 124.357C350.344 124.063 349.887 123.916 349.291 123.916C348.661 123.916 348.162 124.054 347.792 124.328C347.428 124.603 347.181 124.927 347.054 125.301L344.653 124.96C344.842 124.297 345.155 123.743 345.591 123.298C346.026 122.848 346.559 122.512 347.189 122.29C347.818 122.062 348.514 121.949 349.277 121.949C349.802 121.949 350.325 122.01 350.846 122.134C351.367 122.257 351.843 122.46 352.274 122.744C352.705 123.024 353.05 123.405 353.311 123.888C353.576 124.371 353.708 124.974 353.708 125.699V133H351.237V131.501H351.152C350.995 131.804 350.775 132.089 350.491 132.354C350.212 132.614 349.859 132.825 349.433 132.986C349.011 133.142 348.517 133.22 347.949 133.22ZM348.616 131.331C349.132 131.331 349.58 131.229 349.958 131.026C350.337 130.817 350.628 130.543 350.832 130.202C351.04 129.861 351.145 129.489 351.145 129.087V127.801C351.064 127.867 350.927 127.929 350.733 127.986C350.543 128.043 350.33 128.092 350.093 128.135C349.857 128.178 349.622 128.215 349.39 128.249C349.158 128.282 348.957 128.31 348.787 128.334C348.403 128.386 348.06 128.471 347.757 128.589C347.454 128.708 347.215 128.874 347.039 129.087C346.864 129.295 346.777 129.565 346.777 129.896C346.777 130.37 346.949 130.727 347.295 130.969C347.641 131.21 348.081 131.331 348.616 131.331ZM355.541 133L355.527 130.884H355.903C356.187 130.884 356.426 130.82 356.62 130.692C356.815 130.564 356.975 130.351 357.103 130.053C357.231 129.75 357.331 129.342 357.402 128.831C357.473 128.32 357.522 127.683 357.551 126.92L357.743 122.091H365.697V133H363.211V124.2H360.079L359.909 127.716C359.866 128.625 359.764 129.413 359.603 130.081C359.447 130.744 359.225 131.291 358.936 131.722C358.652 132.152 358.294 132.474 357.863 132.688C357.432 132.896 356.923 133 356.336 133H355.541ZM373.044 133.213C371.955 133.213 371.02 132.974 370.239 132.496C369.462 132.018 368.864 131.357 368.442 130.514C368.025 129.667 367.817 128.691 367.817 127.588C367.817 126.48 368.03 125.502 368.456 124.655C368.882 123.803 369.484 123.14 370.26 122.666C371.042 122.188 371.965 121.949 373.03 121.949C373.916 121.949 374.699 122.112 375.381 122.439C376.068 122.761 376.614 123.218 377.022 123.81C377.429 124.397 377.661 125.083 377.718 125.869H375.26C375.161 125.344 374.924 124.906 374.55 124.555C374.181 124.2 373.686 124.023 373.066 124.023C372.54 124.023 372.078 124.165 371.681 124.449C371.283 124.728 370.973 125.131 370.75 125.656C370.533 126.182 370.424 126.812 370.424 127.545C370.424 128.289 370.533 128.928 370.75 129.463C370.968 129.993 371.274 130.403 371.667 130.692C372.064 130.976 372.531 131.118 373.066 131.118C373.444 131.118 373.783 131.047 374.081 130.905C374.384 130.758 374.638 130.547 374.841 130.273C375.045 129.998 375.185 129.664 375.26 129.271H377.718C377.656 130.043 377.429 130.727 377.036 131.324C376.643 131.916 376.108 132.38 375.431 132.716C374.754 133.047 373.958 133.213 373.044 133.213ZM386.278 133V124.179H383.948C383.356 124.179 382.902 124.316 382.585 124.591C382.267 124.866 382.111 125.206 382.116 125.614C382.111 126.021 382.26 126.357 382.563 126.622C382.866 126.887 383.299 127.02 383.863 127.02H387.087V128.895H383.863C382.992 128.895 382.239 128.758 381.604 128.483C380.97 128.208 380.482 127.82 380.141 127.318C379.8 126.816 379.63 126.229 379.63 125.557C379.63 124.856 379.803 124.248 380.148 123.732C380.499 123.211 380.996 122.808 381.64 122.524C382.289 122.235 383.058 122.091 383.948 122.091H388.685V133H386.278ZM379.232 133L382.279 127.403H384.815L381.761 133H379.232ZM400.994 133.213C399.928 133.213 399.005 132.979 398.224 132.51C397.442 132.041 396.836 131.385 396.406 130.543C395.979 129.7 395.766 128.715 395.766 127.588C395.766 126.461 395.979 125.474 396.406 124.626C396.836 123.779 397.442 123.121 398.224 122.652C399.005 122.183 399.928 121.949 400.994 121.949C402.059 121.949 402.982 122.183 403.763 122.652C404.545 123.121 405.148 123.779 405.575 124.626C406.005 125.474 406.221 126.461 406.221 127.588C406.221 128.715 406.005 129.7 405.575 130.543C405.148 131.385 404.545 132.041 403.763 132.51C402.982 132.979 402.059 133.213 400.994 133.213ZM401.008 131.153C401.585 131.153 402.068 130.995 402.457 130.678C402.845 130.356 403.134 129.925 403.323 129.385C403.517 128.845 403.614 128.244 403.614 127.581C403.614 126.913 403.517 126.31 403.323 125.77C403.134 125.225 402.845 124.792 402.457 124.47C402.068 124.148 401.585 123.987 401.008 123.987C400.416 123.987 399.924 124.148 399.531 124.47C399.142 124.792 398.851 125.225 398.657 125.77C398.468 126.31 398.373 126.913 398.373 127.581C398.373 128.244 398.468 128.845 398.657 129.385C398.851 129.925 399.142 130.356 399.531 130.678C399.924 130.995 400.416 131.153 401.008 131.153ZM417.515 122.091V133H415.044V122.091H417.515ZM416.358 127.02V129.122C416.078 129.245 415.761 129.357 415.406 129.456C415.056 129.551 414.684 129.626 414.291 129.683C413.903 129.74 413.514 129.768 413.126 129.768C411.668 129.768 410.515 129.442 409.667 128.788C408.824 128.13 408.403 127.105 408.403 125.713V122.077H410.86V125.713C410.86 126.182 410.943 126.558 411.109 126.842C411.275 127.126 411.526 127.335 411.862 127.467C412.198 127.595 412.619 127.659 413.126 127.659C413.694 127.659 414.234 127.602 414.745 127.489C415.257 127.375 415.794 127.219 416.358 127.02ZM424.932 133.213C423.838 133.213 422.893 132.986 422.098 132.531C421.307 132.072 420.699 131.423 420.273 130.585C419.847 129.742 419.634 128.75 419.634 127.609C419.634 126.487 419.847 125.502 420.273 124.655C420.704 123.803 421.305 123.14 422.077 122.666C422.848 122.188 423.755 121.949 424.797 121.949C425.469 121.949 426.104 122.058 426.7 122.276C427.302 122.489 427.832 122.82 428.291 123.27C428.755 123.72 429.12 124.293 429.385 124.989C429.65 125.68 429.783 126.504 429.783 127.46V128.249H420.841V126.516H427.318C427.313 126.023 427.207 125.585 426.999 125.202C426.79 124.813 426.499 124.508 426.125 124.286C425.756 124.063 425.325 123.952 424.832 123.952C424.307 123.952 423.845 124.08 423.447 124.335C423.05 124.586 422.74 124.918 422.517 125.33C422.299 125.737 422.188 126.184 422.183 126.672V128.185C422.183 128.819 422.299 129.364 422.531 129.818C422.763 130.268 423.088 130.614 423.504 130.855C423.921 131.092 424.409 131.21 424.967 131.21C425.341 131.21 425.68 131.158 425.983 131.054C426.286 130.945 426.549 130.786 426.771 130.578C426.994 130.37 427.162 130.112 427.276 129.804L429.676 130.074C429.525 130.708 429.236 131.262 428.81 131.736C428.388 132.205 427.848 132.569 427.19 132.83C426.532 133.085 425.779 133.213 424.932 133.213ZM439.451 126.48V128.589H433.641V126.48H439.451ZM434.436 122.091V133H431.958V122.091H434.436ZM441.134 122.091V133H438.662V122.091H441.134ZM445.475 125.642H448.692C450.085 125.642 451.162 125.981 451.924 126.658C452.686 127.335 453.07 128.223 453.075 129.321C453.07 130.036 452.895 130.67 452.549 131.224C452.208 131.778 451.711 132.214 451.058 132.531C450.409 132.844 449.621 133 448.692 133H443.735V122.091H446.214V130.891H448.692C449.251 130.891 449.71 130.749 450.07 130.464C450.43 130.176 450.61 129.806 450.61 129.357C450.61 128.883 450.43 128.497 450.07 128.199C449.71 127.901 449.251 127.751 448.692 127.751H445.475V125.642ZM154.321 157V146.091H158.902C160.195 146.091 161.215 146.349 161.963 146.865C162.716 147.381 163.092 148.101 163.092 149.024C163.092 149.635 162.879 150.134 162.453 150.523C162.032 150.906 161.456 151.164 160.727 151.297C161.3 151.344 161.802 151.489 162.233 151.73C162.669 151.972 163.009 152.289 163.256 152.682C163.502 153.075 163.625 153.527 163.625 154.038C163.625 154.64 163.466 155.163 163.149 155.608C162.837 156.048 162.38 156.392 161.778 156.638C161.182 156.879 160.457 157 159.605 157H154.321ZM156.729 154.976H159.605C160.079 154.976 160.45 154.865 160.72 154.642C160.99 154.415 161.125 154.107 161.125 153.719C161.125 153.269 160.99 152.916 160.72 152.661C160.45 152.4 160.079 152.27 159.605 152.27H156.729V154.976ZM156.729 150.608H158.952C159.302 150.608 159.603 150.558 159.854 150.459C160.105 150.355 160.296 150.21 160.429 150.026C160.562 149.836 160.628 149.611 160.628 149.351C160.628 148.977 160.474 148.683 160.166 148.47C159.863 148.257 159.442 148.151 158.902 148.151H156.729V150.608ZM165.747 157V146.091H168.318V150.494H169.255L172.537 146.091H175.633L171.592 151.446L175.676 157H172.565L169.575 152.888H168.318V157H165.747ZM178.849 161.091C178.498 161.091 178.174 161.063 177.876 161.006C177.582 160.954 177.348 160.892 177.173 160.821L177.769 158.818C178.143 158.927 178.477 158.979 178.771 158.974C179.064 158.97 179.322 158.877 179.545 158.697C179.772 158.522 179.964 158.229 180.12 157.817L180.34 157.227L176.384 146.091H179.112L181.626 154.33H181.739L184.261 146.091H186.995L182.627 158.321C182.424 158.899 182.154 159.393 181.817 159.805C181.481 160.222 181.069 160.539 180.582 160.757C180.099 160.98 179.521 161.091 178.849 161.091ZM193.162 157.213C192.073 157.213 191.137 156.974 190.356 156.496C189.58 156.018 188.981 155.357 188.559 154.514C188.143 153.667 187.934 152.691 187.934 151.588C187.934 150.48 188.147 149.502 188.574 148.655C189 147.803 189.601 147.14 190.377 146.666C191.159 146.188 192.082 145.949 193.147 145.949C194.033 145.949 194.816 146.112 195.498 146.439C196.185 146.761 196.732 147.218 197.139 147.81C197.546 148.397 197.778 149.083 197.835 149.869H195.377C195.278 149.344 195.041 148.906 194.667 148.555C194.298 148.2 193.803 148.023 193.183 148.023C192.657 148.023 192.196 148.165 191.798 148.449C191.4 148.728 191.09 149.131 190.868 149.656C190.65 150.182 190.541 150.812 190.541 151.545C190.541 152.289 190.65 152.928 190.868 153.463C191.085 153.993 191.391 154.403 191.784 154.692C192.181 154.976 192.648 155.118 193.183 155.118C193.562 155.118 193.9 155.047 194.199 154.905C194.502 154.758 194.755 154.547 194.958 154.273C195.162 153.998 195.302 153.664 195.377 153.271H197.835C197.773 154.043 197.546 154.727 197.153 155.324C196.76 155.916 196.225 156.38 195.548 156.716C194.871 157.047 194.075 157.213 193.162 157.213ZM207.439 150.48V152.589H201.629V150.48H207.439ZM202.425 146.091V157H199.946V146.091H202.425ZM209.122 146.091V157H206.651V146.091H209.122ZM213.463 149.642H216.681C218.073 149.642 219.15 149.981 219.912 150.658C220.675 151.335 221.058 152.223 221.063 153.321C221.058 154.036 220.883 154.67 220.537 155.224C220.196 155.778 219.699 156.214 219.046 156.531C218.397 156.844 217.609 157 216.681 157H211.723V146.091H214.202V154.891H216.681C217.239 154.891 217.699 154.749 218.059 154.464C218.418 154.176 218.598 153.806 218.598 153.357C218.598 152.883 218.418 152.497 218.059 152.199C217.699 151.901 217.239 151.751 216.681 151.751H213.463V149.642ZM222.419 157V146.091H224.99V157H222.419ZM233.92 154.01L237.158 146.091H239.232L234.822 157H233.025L228.714 146.091H230.766L233.92 154.01ZM230.12 146.091V157H227.641V146.091H230.12ZM237.826 157V146.091H240.283V157H237.826ZM250.315 153.52L254.683 146.091H257.325V157H254.839V149.564L250.486 157H247.837V146.091H250.315V153.52ZM264.926 157V146.091H267.498V150.494H268.435L271.716 146.091H274.813L270.772 151.446L274.855 157H271.745L268.755 152.888H267.498V157H264.926ZM276.313 161.091V146.091H278.842V147.895H278.991C279.123 147.63 279.31 147.348 279.552 147.05C279.793 146.747 280.12 146.489 280.532 146.276C280.944 146.058 281.469 145.949 282.109 145.949C282.951 145.949 283.711 146.164 284.388 146.595C285.07 147.021 285.61 147.653 286.008 148.491C286.41 149.325 286.612 150.348 286.612 151.56C286.612 152.758 286.415 153.776 286.022 154.614C285.629 155.452 285.094 156.091 284.417 156.531C283.74 156.972 282.973 157.192 282.116 157.192C281.491 157.192 280.972 157.088 280.56 156.879C280.148 156.671 279.817 156.42 279.566 156.126C279.32 155.828 279.128 155.546 278.991 155.281H278.884V161.091H276.313ZM278.835 151.545C278.835 152.251 278.934 152.869 279.133 153.399C279.336 153.929 279.628 154.344 280.006 154.642C280.39 154.936 280.854 155.082 281.398 155.082C281.967 155.082 282.442 154.931 282.826 154.628C283.21 154.32 283.498 153.901 283.692 153.371C283.891 152.836 283.991 152.227 283.991 151.545C283.991 150.868 283.894 150.267 283.7 149.741C283.505 149.216 283.217 148.804 282.833 148.506C282.45 148.207 281.971 148.058 281.398 148.058C280.849 148.058 280.383 148.203 279.999 148.491C279.616 148.78 279.325 149.185 279.126 149.706C278.932 150.227 278.835 150.84 278.835 151.545ZM291.952 157.22C291.261 157.22 290.638 157.097 290.085 156.851C289.535 156.6 289.1 156.231 288.778 155.743C288.46 155.255 288.302 154.654 288.302 153.939C288.302 153.323 288.415 152.814 288.643 152.412C288.87 152.009 289.18 151.688 289.573 151.446C289.966 151.205 290.409 151.022 290.901 150.899C291.398 150.771 291.912 150.679 292.442 150.622C293.082 150.556 293.6 150.497 293.998 150.445C294.396 150.388 294.684 150.303 294.864 150.189C295.049 150.071 295.141 149.888 295.141 149.642V149.599C295.141 149.064 294.983 148.65 294.665 148.357C294.348 148.063 293.891 147.916 293.295 147.916C292.665 147.916 292.165 148.054 291.796 148.328C291.432 148.603 291.185 148.927 291.058 149.301L288.657 148.96C288.846 148.297 289.159 147.743 289.594 147.298C290.03 146.848 290.563 146.512 291.192 146.29C291.822 146.062 292.518 145.949 293.281 145.949C293.806 145.949 294.329 146.01 294.85 146.134C295.371 146.257 295.847 146.46 296.278 146.744C296.709 147.024 297.054 147.405 297.315 147.888C297.58 148.371 297.712 148.974 297.712 149.699V157H295.241V155.501H295.156C294.999 155.804 294.779 156.089 294.495 156.354C294.216 156.614 293.863 156.825 293.437 156.986C293.015 157.142 292.521 157.22 291.952 157.22ZM292.62 155.331C293.136 155.331 293.584 155.229 293.962 155.026C294.341 154.817 294.632 154.543 294.836 154.202C295.044 153.861 295.148 153.489 295.148 153.087V151.801C295.068 151.867 294.931 151.929 294.737 151.986C294.547 152.043 294.334 152.092 294.097 152.135C293.861 152.178 293.626 152.215 293.394 152.249C293.162 152.282 292.961 152.31 292.79 152.334C292.407 152.386 292.064 152.471 291.761 152.589C291.458 152.708 291.219 152.874 291.043 153.087C290.868 153.295 290.781 153.565 290.781 153.896C290.781 154.37 290.953 154.727 291.299 154.969C291.645 155.21 292.085 155.331 292.62 155.331ZM305.056 157.213C303.967 157.213 303.032 156.974 302.251 156.496C301.474 156.018 300.875 155.357 300.454 154.514C300.037 153.667 299.829 152.691 299.829 151.588C299.829 150.48 300.042 149.502 300.468 148.655C300.894 147.803 301.496 147.14 302.272 146.666C303.053 146.188 303.977 145.949 305.042 145.949C305.927 145.949 306.711 146.112 307.393 146.439C308.079 146.761 308.626 147.218 309.033 147.81C309.441 148.397 309.673 149.083 309.729 149.869H307.272C307.173 149.344 306.936 148.906 306.562 148.555C306.192 148.2 305.698 148.023 305.077 148.023C304.552 148.023 304.09 148.165 303.692 148.449C303.295 148.728 302.985 149.131 302.762 149.656C302.544 150.182 302.435 150.812 302.435 151.545C302.435 152.289 302.544 152.928 302.762 153.463C302.98 153.993 303.285 154.403 303.678 154.692C304.076 154.976 304.542 155.118 305.077 155.118C305.456 155.118 305.795 155.047 306.093 154.905C306.396 154.758 306.649 154.547 306.853 154.273C307.057 153.998 307.196 153.664 307.272 153.271H309.729C309.668 154.043 309.441 154.727 309.048 155.324C308.655 155.916 308.12 156.38 307.442 156.716C306.765 157.047 305.97 157.213 305.056 157.213ZM314.319 153.52L318.687 146.091H321.329V157H318.843V149.564L314.49 157H311.841V146.091H314.319V153.52ZM323.969 157V146.091H328.55C329.843 146.091 330.863 146.349 331.612 146.865C332.364 147.381 332.741 148.101 332.741 149.024C332.741 149.635 332.528 150.134 332.102 150.523C331.68 150.906 331.105 151.164 330.376 151.297C330.949 151.344 331.451 151.489 331.881 151.73C332.317 151.972 332.658 152.289 332.904 152.682C333.15 153.075 333.273 153.527 333.273 154.038C333.273 154.64 333.115 155.163 332.798 155.608C332.485 156.048 332.028 156.392 331.427 156.638C330.83 156.879 330.106 157 329.254 157H323.969ZM326.377 154.976H329.254C329.727 154.976 330.099 154.865 330.369 154.642C330.638 154.415 330.773 154.107 330.773 153.719C330.773 153.269 330.638 152.916 330.369 152.661C330.099 152.4 329.727 152.27 329.254 152.27H326.377V154.976ZM326.377 150.608H328.6C328.951 150.608 329.251 150.558 329.502 150.459C329.753 150.355 329.945 150.21 330.077 150.026C330.21 149.836 330.276 149.611 330.276 149.351C330.276 148.977 330.122 148.683 329.815 148.47C329.512 148.257 329.09 148.151 328.55 148.151H326.377V150.608ZM337.135 149.642H340.353C341.745 149.642 342.822 149.981 343.584 150.658C344.346 151.335 344.73 152.223 344.735 153.321C344.73 154.036 344.555 154.67 344.209 155.224C343.868 155.778 343.371 156.214 342.718 156.531C342.069 156.844 341.281 157 340.353 157H335.395V146.091H337.874V154.891H340.353C340.911 154.891 341.371 154.749 341.73 154.464C342.09 154.176 342.27 153.806 342.27 153.357C342.27 152.883 342.09 152.497 341.73 152.199C341.371 151.901 340.911 151.751 340.353 151.751H337.135V149.642ZM346.091 157V146.091H348.662V157H346.091ZM357.592 154.01L360.83 146.091H362.904L358.494 157H356.697L352.386 146.091H354.438L357.592 154.01ZM353.792 146.091V157H351.313V146.091H353.792ZM361.498 157V146.091H363.955V157H361.498ZM369.694 142.455L369.46 152.724H367.173L366.945 142.455H369.694ZM368.316 157.156C367.885 157.156 367.516 157.005 367.208 156.702C366.905 156.399 366.754 156.029 366.754 155.594C366.754 155.168 366.905 154.803 367.208 154.5C367.516 154.197 367.885 154.045 368.316 154.045C368.737 154.045 369.102 154.197 369.41 154.5C369.722 154.803 369.879 155.168 369.879 155.594C369.879 155.883 369.805 156.145 369.658 156.382C369.516 156.619 369.327 156.808 369.09 156.95C368.858 157.088 368.6 157.156 368.316 157.156ZM390.244 147.362H387.588C387.512 146.927 387.373 146.541 387.169 146.205C386.965 145.864 386.712 145.575 386.409 145.338C386.106 145.101 385.76 144.924 385.372 144.805C384.989 144.682 384.574 144.621 384.129 144.621C383.339 144.621 382.638 144.82 382.027 145.217C381.416 145.61 380.938 146.188 380.592 146.95C380.247 147.708 380.074 148.634 380.074 149.727C380.074 150.84 380.247 151.777 380.592 152.54C380.943 153.297 381.421 153.87 382.027 154.259C382.638 154.642 383.336 154.834 384.122 154.834C384.558 154.834 384.965 154.777 385.344 154.663C385.727 154.545 386.071 154.372 386.374 154.145C386.681 153.918 386.939 153.638 387.148 153.307C387.361 152.975 387.508 152.597 387.588 152.17L390.244 152.185C390.145 152.876 389.929 153.525 389.598 154.131C389.271 154.737 388.843 155.272 388.312 155.736C387.782 156.195 387.162 156.555 386.452 156.815C385.741 157.071 384.953 157.199 384.087 157.199C382.808 157.199 381.667 156.903 380.663 156.311C379.66 155.719 378.869 154.865 378.291 153.747C377.714 152.63 377.425 151.29 377.425 149.727C377.425 148.16 377.716 146.82 378.298 145.707C378.881 144.59 379.674 143.735 380.678 143.143C381.681 142.552 382.818 142.256 384.087 142.256C384.896 142.256 385.649 142.369 386.345 142.597C387.041 142.824 387.661 143.158 388.206 143.598C388.75 144.034 389.198 144.569 389.548 145.203C389.903 145.833 390.135 146.553 390.244 147.362ZM392.544 157V146.091H401.755V157H399.277V148.2H395.001V157H392.544ZM407.538 157.22C406.847 157.22 406.224 157.097 405.67 156.851C405.121 156.6 404.686 156.231 404.364 155.743C404.046 155.255 403.888 154.654 403.888 153.939C403.888 153.323 404.001 152.814 404.229 152.412C404.456 152.009 404.766 151.688 405.159 151.446C405.552 151.205 405.995 151.022 406.487 150.899C406.984 150.771 407.498 150.679 408.028 150.622C408.668 150.556 409.186 150.497 409.584 150.445C409.982 150.388 410.27 150.303 410.45 150.189C410.635 150.071 410.727 149.888 410.727 149.642V149.599C410.727 149.064 410.569 148.65 410.251 148.357C409.934 148.063 409.477 147.916 408.881 147.916C408.251 147.916 407.751 148.054 407.382 148.328C407.018 148.603 406.771 148.927 406.643 149.301L404.243 148.96C404.432 148.297 404.745 147.743 405.18 147.298C405.616 146.848 406.149 146.512 406.778 146.29C407.408 146.062 408.104 145.949 408.866 145.949C409.392 145.949 409.915 146.01 410.436 146.134C410.957 146.257 411.433 146.46 411.864 146.744C412.295 147.024 412.64 147.405 412.901 147.888C413.166 148.371 413.298 148.974 413.298 149.699V157H410.827V155.501H410.741C410.585 155.804 410.365 156.089 410.081 156.354C409.802 156.614 409.449 156.825 409.023 156.986C408.601 157.142 408.107 157.22 407.538 157.22ZM408.206 155.331C408.722 155.331 409.17 155.229 409.548 155.026C409.927 154.817 410.218 154.543 410.422 154.202C410.63 153.861 410.734 153.489 410.734 153.087V151.801C410.654 151.867 410.517 151.929 410.322 151.986C410.133 152.043 409.92 152.092 409.683 152.135C409.446 152.178 409.212 152.215 408.98 152.249C408.748 152.282 408.547 152.31 408.376 152.334C407.993 152.386 407.65 152.471 407.347 152.589C407.044 152.708 406.804 152.874 406.629 153.087C406.454 153.295 406.366 153.565 406.366 153.896C406.366 154.37 406.539 154.727 406.885 154.969C407.231 155.21 407.671 155.331 408.206 155.331ZM420.642 157.213C419.553 157.213 418.618 156.974 417.837 156.496C417.06 156.018 416.461 155.357 416.04 154.514C415.623 153.667 415.415 152.691 415.415 151.588C415.415 150.48 415.628 149.502 416.054 148.655C416.48 147.803 417.081 147.14 417.858 146.666C418.639 146.188 419.563 145.949 420.628 145.949C421.513 145.949 422.297 146.112 422.979 146.439C423.665 146.761 424.212 147.218 424.619 147.81C425.027 148.397 425.259 149.083 425.315 149.869H422.858C422.759 149.344 422.522 148.906 422.148 148.555C421.778 148.2 421.284 148.023 420.663 148.023C420.138 148.023 419.676 148.165 419.278 148.449C418.881 148.728 418.571 149.131 418.348 149.656C418.13 150.182 418.021 150.812 418.021 151.545C418.021 152.289 418.13 152.928 418.348 153.463C418.566 153.993 418.871 154.403 419.264 154.692C419.662 154.976 420.128 155.118 420.663 155.118C421.042 155.118 421.381 155.047 421.679 154.905C421.982 154.758 422.235 154.547 422.439 154.273C422.643 153.998 422.782 153.664 422.858 153.271H425.315C425.254 154.043 425.027 154.727 424.634 155.324C424.241 155.916 423.705 156.38 423.028 156.716C422.351 157.047 421.556 157.213 420.642 157.213ZM429.905 153.52L434.273 146.091H436.915V157H434.429V149.564L430.076 157H427.426V146.091H429.905V153.52ZM448.298 142.057L449.193 143.719C448.876 143.993 448.521 144.192 448.128 144.315C447.735 144.438 447.273 144.519 446.743 144.557C446.217 144.59 445.592 144.614 444.868 144.628C444.054 144.647 443.388 144.801 442.872 145.089C442.356 145.378 441.961 145.816 441.686 146.403C441.411 146.986 441.232 147.729 441.146 148.634H441.267C441.608 147.966 442.086 147.457 442.702 147.107C443.317 146.756 444.039 146.581 444.868 146.581C445.772 146.581 446.57 146.785 447.261 147.192C447.957 147.594 448.5 148.179 448.888 148.946C449.281 149.713 449.477 150.641 449.477 151.73C449.477 152.852 449.267 153.825 448.845 154.649C448.424 155.468 447.825 156.1 447.048 156.545C446.277 156.991 445.36 157.213 444.3 157.213C443.244 157.213 442.325 156.983 441.544 156.524C440.768 156.06 440.166 155.376 439.74 154.472C439.319 153.562 439.108 152.443 439.108 151.112V150.132C439.108 147.566 439.586 145.651 440.543 144.386C441.499 143.122 442.917 142.478 444.797 142.455C445.356 142.445 445.855 142.443 446.295 142.447C446.741 142.452 447.129 142.431 447.46 142.384C447.792 142.336 448.071 142.227 448.298 142.057ZM444.314 155.153C444.839 155.153 445.294 155.018 445.678 154.749C446.061 154.474 446.355 154.086 446.558 153.584C446.767 153.082 446.871 152.488 446.871 151.801C446.871 151.124 446.767 150.549 446.558 150.075C446.35 149.597 446.054 149.232 445.67 148.982C445.287 148.731 444.83 148.605 444.3 148.605C443.902 148.605 443.545 148.676 443.227 148.818C442.91 148.96 442.64 149.169 442.418 149.443C442.195 149.718 442.025 150.052 441.906 150.445C441.788 150.838 441.724 151.29 441.714 151.801C441.714 152.829 441.946 153.645 442.411 154.251C442.875 154.853 443.509 155.153 444.314 155.153ZM456.423 157.213C455.358 157.213 454.435 156.979 453.653 156.51C452.872 156.041 452.266 155.385 451.835 154.543C451.409 153.7 451.196 152.715 451.196 151.588C451.196 150.461 451.409 149.474 451.835 148.626C452.266 147.779 452.872 147.121 453.653 146.652C454.435 146.183 455.358 145.949 456.423 145.949C457.489 145.949 458.412 146.183 459.193 146.652C459.974 147.121 460.578 147.779 461.004 148.626C461.435 149.474 461.651 150.461 461.651 151.588C461.651 152.715 461.435 153.7 461.004 154.543C460.578 155.385 459.974 156.041 459.193 156.51C458.412 156.979 457.489 157.213 456.423 157.213ZM456.438 155.153C457.015 155.153 457.498 154.995 457.886 154.678C458.275 154.356 458.563 153.925 458.753 153.385C458.947 152.845 459.044 152.244 459.044 151.581C459.044 150.913 458.947 150.31 458.753 149.77C458.563 149.225 458.275 148.792 457.886 148.47C457.498 148.148 457.015 147.987 456.438 147.987C455.846 147.987 455.353 148.148 454.96 148.47C454.572 148.792 454.281 149.225 454.087 149.77C453.897 150.31 453.803 150.913 453.803 151.581C453.803 152.244 453.897 152.845 454.087 153.385C454.281 153.925 454.572 154.356 454.96 154.678C455.353 154.995 455.846 155.153 456.438 155.153ZM466.979 142.455L466.745 152.724H464.458L464.23 142.455H466.979ZM465.601 157.156C465.17 157.156 464.801 157.005 464.493 156.702C464.19 156.399 464.039 156.029 464.039 155.594C464.039 155.168 464.19 154.803 464.493 154.5C464.801 154.197 465.17 154.045 465.601 154.045C466.023 154.045 466.387 154.197 466.695 154.5C467.007 154.803 467.164 155.168 467.164 155.594C467.164 155.883 467.09 156.145 466.944 156.382C466.801 156.619 466.612 156.808 466.375 156.95C466.143 157.088 465.885 157.156 465.601 157.156Z" fill="#C00045"/>
<path d="M156.963 49H153.588L159.733 31.5455H163.636L169.79 49H166.415L161.753 35.125H161.616L156.963 49ZM157.074 42.1562H166.278V44.696H157.074V42.1562ZM171.049 49L171.032 46.4602H171.484C171.825 46.4602 172.112 46.3835 172.344 46.2301C172.577 46.0767 172.771 45.821 172.924 45.4631C173.077 45.0994 173.197 44.6108 173.282 43.9972C173.367 43.3835 173.427 42.6193 173.461 41.7045L173.691 35.9091H183.237V49H180.254V38.4403H176.495L176.29 42.6591C176.239 43.75 176.117 44.696 175.924 45.4972C175.737 46.2926 175.469 46.9489 175.123 47.4659C174.782 47.983 174.353 48.3693 173.836 48.625C173.319 48.875 172.708 49 172.004 49H171.049ZM192.138 49.2557C190.826 49.2557 189.692 48.983 188.738 48.4375C187.789 47.8864 187.059 47.108 186.548 46.1023C186.036 45.0909 185.781 43.9006 185.781 42.5312C185.781 41.1847 186.036 40.0028 186.548 38.9858C187.065 37.9631 187.786 37.1676 188.712 36.5994C189.638 36.0256 190.727 35.7386 191.977 35.7386C192.783 35.7386 193.545 35.8693 194.261 36.1307C194.982 36.3864 195.619 36.7841 196.17 37.3239C196.727 37.8636 197.164 38.5511 197.482 39.3864C197.8 40.2159 197.96 41.2045 197.96 42.3523V43.2983H187.229V41.2188H195.002C194.996 40.6278 194.869 40.1023 194.619 39.642C194.369 39.1761 194.019 38.8097 193.57 38.5426C193.127 38.2756 192.61 38.142 192.019 38.142C191.388 38.142 190.835 38.2955 190.357 38.6023C189.88 38.9034 189.508 39.3011 189.241 39.7955C188.979 40.2841 188.846 40.821 188.84 41.4062V43.2216C188.84 43.983 188.979 44.6364 189.258 45.1818C189.536 45.7216 189.925 46.1364 190.425 46.4261C190.925 46.7102 191.511 46.8523 192.181 46.8523C192.63 46.8523 193.036 46.7898 193.4 46.6648C193.763 46.5341 194.079 46.3438 194.346 46.0938C194.613 45.8438 194.815 45.5341 194.951 45.1648L197.832 45.4886C197.65 46.25 197.303 46.9148 196.792 47.483C196.286 48.0455 195.638 48.483 194.849 48.7955C194.059 49.1023 193.156 49.2557 192.138 49.2557ZM200.57 49V35.9091H203.655V41.1932H204.78L208.717 35.9091H212.433L207.584 42.3352L212.484 49H208.751L205.163 44.0653H203.655V49H200.57ZM219.405 49.2557C218.098 49.2557 216.976 48.9688 216.038 48.3949C215.107 47.821 214.388 47.0284 213.882 46.017C213.382 45 213.132 43.8295 213.132 42.5057C213.132 41.1761 213.388 40.0028 213.899 38.9858C214.411 37.9631 215.132 37.1676 216.064 36.5994C217.001 36.0256 218.109 35.7386 219.388 35.7386C220.45 35.7386 221.391 35.9347 222.209 36.3267C223.033 36.7131 223.689 37.2614 224.178 37.9716C224.666 38.6761 224.945 39.5 225.013 40.4432H222.064C221.945 39.8125 221.661 39.2869 221.212 38.8665C220.768 38.4403 220.175 38.2273 219.43 38.2273C218.8 38.2273 218.246 38.3977 217.768 38.7386C217.291 39.0739 216.919 39.5568 216.652 40.1875C216.391 40.8182 216.26 41.5739 216.26 42.4545C216.26 43.3466 216.391 44.1136 216.652 44.7557C216.913 45.392 217.28 45.8835 217.751 46.2301C218.229 46.571 218.788 46.7415 219.43 46.7415C219.885 46.7415 220.291 46.6562 220.649 46.4858C221.013 46.3097 221.317 46.0568 221.561 45.7273C221.805 45.3977 221.973 44.9972 222.064 44.5256H225.013C224.939 45.4517 224.666 46.2727 224.195 46.9886C223.723 47.6989 223.081 48.2557 222.268 48.6591C221.456 49.0568 220.501 49.2557 219.405 49.2557ZM231.313 49.2642C230.484 49.2642 229.737 49.1165 229.072 48.821C228.413 48.5199 227.89 48.0767 227.504 47.4915C227.123 46.9062 226.933 46.1847 226.933 45.3267C226.933 44.5881 227.069 43.9773 227.342 43.4943C227.614 43.0114 227.987 42.625 228.458 42.3352C228.93 42.0455 229.461 41.8267 230.052 41.679C230.648 41.5256 231.265 41.4148 231.901 41.3466C232.668 41.267 233.29 41.196 233.768 41.1335C234.245 41.0653 234.592 40.9631 234.808 40.8267C235.029 40.6847 235.14 40.4659 235.14 40.1705V40.1193C235.14 39.4773 234.95 38.9801 234.569 38.6278C234.188 38.2756 233.64 38.0994 232.924 38.0994C232.168 38.0994 231.569 38.2642 231.126 38.5938C230.688 38.9233 230.393 39.3125 230.239 39.7614L227.359 39.3523C227.586 38.5568 227.961 37.892 228.484 37.358C229.006 36.8182 229.646 36.4148 230.401 36.1477C231.157 35.875 231.992 35.7386 232.907 35.7386C233.538 35.7386 234.165 35.8125 234.79 35.9602C235.415 36.108 235.987 36.3523 236.504 36.6932C237.021 37.0284 237.435 37.4858 237.748 38.0653C238.066 38.6449 238.225 39.3693 238.225 40.2386V49H235.259V47.2017H235.157C234.969 47.5653 234.705 47.9062 234.364 48.2244C234.029 48.5369 233.606 48.7898 233.094 48.983C232.589 49.1705 231.995 49.2642 231.313 49.2642ZM232.114 46.9972C232.734 46.9972 233.271 46.875 233.725 46.6307C234.18 46.3807 234.529 46.0511 234.773 45.642C235.023 45.233 235.148 44.7869 235.148 44.304V42.7614C235.052 42.8409 234.887 42.9148 234.654 42.983C234.427 43.0511 234.171 43.1108 233.887 43.1619C233.603 43.2131 233.322 43.2585 233.043 43.2983C232.765 43.3381 232.523 43.3722 232.319 43.4006C231.859 43.4631 231.447 43.5653 231.083 43.7074C230.719 43.8494 230.433 44.0483 230.222 44.304C230.012 44.554 229.907 44.8778 229.907 45.2756C229.907 45.8438 230.114 46.2727 230.529 46.5625C230.944 46.8523 231.472 46.9972 232.114 46.9972ZM250.319 41.1761V43.7074H243.347V41.1761H250.319ZM244.302 35.9091V49H241.327V35.9091H244.302ZM252.339 35.9091V49H249.373V35.9091H252.339ZM254.301 52.8011V46.4602H255.341C255.619 46.2443 255.852 45.9517 256.04 45.5824C256.227 45.2074 256.381 44.767 256.5 44.2614C256.625 43.75 256.727 43.179 256.807 42.5483C256.886 41.9119 256.957 41.2273 257.02 40.4943L257.395 35.9091H266.855V46.4602H268.884V52.8011H265.901V49H257.335V52.8011H254.301ZM258.511 46.4602H263.906V38.3977H260.071L259.866 40.4943C259.753 41.8807 259.602 43.0682 259.415 44.0568C259.227 45.0455 258.926 45.8466 258.511 46.4602ZM271.187 53.9091V35.9091H274.221V38.0739H274.4C274.559 37.7557 274.783 37.4176 275.073 37.0597C275.363 36.696 275.755 36.3864 276.249 36.1307C276.744 35.8693 277.374 35.7386 278.141 35.7386C279.153 35.7386 280.065 35.9972 280.877 36.5142C281.695 37.0256 282.343 37.7841 282.82 38.7898C283.303 39.7898 283.545 41.017 283.545 42.4716C283.545 43.9091 283.309 45.1307 282.837 46.1364C282.366 47.142 281.724 47.9091 280.911 48.4375C280.099 48.9659 279.178 49.2301 278.15 49.2301C277.4 49.2301 276.778 49.1051 276.283 48.8551C275.789 48.6051 275.391 48.304 275.09 47.9517C274.795 47.5937 274.565 47.2557 274.4 46.9375H274.272V53.9091H271.187ZM274.212 42.4545C274.212 43.3011 274.332 44.0426 274.57 44.679C274.815 45.3153 275.164 45.8125 275.619 46.1705C276.079 46.5227 276.636 46.6989 277.289 46.6989C277.971 46.6989 278.542 46.517 279.002 46.1534C279.462 45.7841 279.809 45.2812 280.042 44.6449C280.281 44.0028 280.4 43.2727 280.4 42.4545C280.4 41.642 280.283 40.9205 280.05 40.2898C279.817 39.6591 279.471 39.1648 279.011 38.8068C278.55 38.4489 277.977 38.2699 277.289 38.2699C276.63 38.2699 276.07 38.4432 275.61 38.7898C275.15 39.1364 274.8 39.6222 274.562 40.2472C274.329 40.8722 274.212 41.608 274.212 42.4545ZM291.897 49.2557C290.619 49.2557 289.511 48.9744 288.573 48.4119C287.636 47.8494 286.908 47.0625 286.391 46.0511C285.88 45.0398 285.624 43.858 285.624 42.5057C285.624 41.1534 285.88 39.9687 286.391 38.9517C286.908 37.9347 287.636 37.1449 288.573 36.5824C289.511 36.0199 290.619 35.7386 291.897 35.7386C293.175 35.7386 294.283 36.0199 295.221 36.5824C296.158 37.1449 296.883 37.9347 297.394 38.9517C297.911 39.9687 298.17 41.1534 298.17 42.5057C298.17 43.858 297.911 45.0398 297.394 46.0511C296.883 47.0625 296.158 47.8494 295.221 48.4119C294.283 48.9744 293.175 49.2557 291.897 49.2557ZM291.914 46.7841C292.607 46.7841 293.187 46.5937 293.653 46.2131C294.119 45.8267 294.465 45.3097 294.692 44.6619C294.925 44.0142 295.042 43.2926 295.042 42.4972C295.042 41.696 294.925 40.9716 294.692 40.3239C294.465 39.6705 294.119 39.1506 293.653 38.7642C293.187 38.3778 292.607 38.1847 291.914 38.1847C291.204 38.1847 290.613 38.3778 290.141 38.7642C289.675 39.1506 289.326 39.6705 289.093 40.3239C288.866 40.9716 288.752 41.696 288.752 42.4972C288.752 43.2926 288.866 44.0142 289.093 44.6619C289.326 45.3097 289.675 45.8267 290.141 46.2131C290.613 46.5937 291.204 46.7841 291.914 46.7841ZM300.788 49V35.9091H306.286C307.837 35.9091 309.061 36.2187 309.959 36.8381C310.862 37.4574 311.314 38.321 311.314 39.429C311.314 40.1619 311.058 40.7614 310.547 41.2273C310.041 41.6875 309.351 41.9972 308.476 42.1562C309.163 42.2131 309.766 42.3864 310.283 42.6761C310.805 42.9659 311.214 43.3466 311.51 43.8182C311.805 44.2898 311.953 44.8324 311.953 45.446C311.953 46.1676 311.763 46.7955 311.382 47.3295C311.007 47.858 310.459 48.2699 309.737 48.5653C309.021 48.8551 308.152 49 307.129 49H300.788ZM303.678 46.571H307.129C307.697 46.571 308.143 46.4375 308.467 46.1705C308.791 45.8977 308.953 45.5284 308.953 45.0625C308.953 44.5227 308.791 44.0994 308.467 43.7926C308.143 43.4801 307.697 43.3239 307.129 43.3239H303.678V46.571ZM303.678 41.3295H306.345C306.766 41.3295 307.126 41.2699 307.428 41.1506C307.729 41.0256 307.959 40.8523 308.118 40.6307C308.277 40.4034 308.357 40.1335 308.357 39.821C308.357 39.3722 308.172 39.0199 307.803 38.7642C307.439 38.5085 306.933 38.3807 306.286 38.3807H303.678V41.3295ZM318.266 49.2642C317.437 49.2642 316.69 49.1165 316.025 48.821C315.366 48.5199 314.843 48.0767 314.457 47.4915C314.076 46.9062 313.886 46.1847 313.886 45.3267C313.886 44.5881 314.022 43.9773 314.295 43.4943C314.567 43.0114 314.94 42.625 315.411 42.3352C315.883 42.0455 316.414 41.8267 317.005 41.679C317.602 41.5256 318.218 41.4148 318.854 41.3466C319.621 41.267 320.244 41.196 320.721 41.1335C321.198 41.0653 321.545 40.9631 321.761 40.8267C321.982 40.6847 322.093 40.4659 322.093 40.1705V40.1193C322.093 39.4773 321.903 38.9801 321.522 38.6278C321.141 38.2756 320.593 38.0994 319.877 38.0994C319.121 38.0994 318.522 38.2642 318.079 38.5938C317.641 38.9233 317.346 39.3125 317.192 39.7614L314.312 39.3523C314.539 38.5568 314.914 37.892 315.437 37.358C315.96 36.8182 316.599 36.4148 317.354 36.1477C318.11 35.875 318.945 35.7386 319.86 35.7386C320.491 35.7386 321.119 35.8125 321.744 35.9602C322.369 36.108 322.94 36.3523 323.457 36.6932C323.974 37.0284 324.388 37.4858 324.701 38.0653C325.019 38.6449 325.178 39.3693 325.178 40.2386V49H322.212V47.2017H322.11C321.923 47.5653 321.658 47.9062 321.317 48.2244C320.982 48.5369 320.559 48.7898 320.048 48.983C319.542 49.1705 318.948 49.2642 318.266 49.2642ZM319.067 46.9972C319.687 46.9972 320.224 46.875 320.678 46.6307C321.133 46.3807 321.482 46.0511 321.727 45.642C321.977 45.233 322.102 44.7869 322.102 44.304V42.7614C322.005 42.8409 321.84 42.9148 321.607 42.983C321.38 43.0511 321.124 43.1108 320.84 43.1619C320.556 43.2131 320.275 43.2585 319.996 43.2983C319.718 43.3381 319.477 43.3722 319.272 43.4006C318.812 43.4631 318.4 43.5653 318.036 43.7074C317.673 43.8494 317.386 44.0483 317.175 44.304C316.965 44.554 316.86 44.8778 316.86 45.2756C316.86 45.8438 317.067 46.2727 317.482 46.5625C317.897 46.8523 318.425 46.9972 319.067 46.9972ZM344.827 49L339.083 41.3722H337.532V49H334.37V31.5455H337.532V38.7216H338.325L344.529 31.5455H348.424L341.529 39.5057L348.722 49H344.827ZM353.708 44.8239L358.95 35.9091H362.12V49H359.137V40.0767L353.913 49H350.734V35.9091H353.708V44.8239ZM365.288 53.9091V35.9091H368.322V38.0739H368.501C368.661 37.7557 368.885 37.4176 369.175 37.0597C369.464 36.696 369.857 36.3864 370.351 36.1307C370.845 35.8693 371.476 35.7386 372.243 35.7386C373.254 35.7386 374.166 35.9972 374.979 36.5142C375.797 37.0256 376.445 37.7841 376.922 38.7898C377.405 39.7898 377.646 41.017 377.646 42.4716C377.646 43.9091 377.411 45.1307 376.939 46.1364C376.467 47.142 375.825 47.9091 375.013 48.4375C374.2 48.9659 373.28 49.2301 372.251 49.2301C371.501 49.2301 370.879 49.1051 370.385 48.8551C369.891 48.6051 369.493 48.304 369.192 47.9517C368.896 47.5937 368.666 47.2557 368.501 46.9375H368.374V53.9091H365.288ZM368.314 42.4545C368.314 43.3011 368.433 44.0426 368.672 44.679C368.916 45.3153 369.266 45.8125 369.72 46.1705C370.18 46.5227 370.737 46.6989 371.391 46.6989C372.072 46.6989 372.643 46.517 373.104 46.1534C373.564 45.7841 373.911 45.2812 374.143 44.6449C374.382 44.0028 374.501 43.2727 374.501 42.4545C374.501 41.642 374.385 40.9205 374.152 40.2898C373.919 39.6591 373.572 39.1648 373.112 38.8068C372.652 38.4489 372.078 38.2699 371.391 38.2699C370.732 38.2699 370.172 38.4432 369.712 38.7898C369.251 39.1364 368.902 39.6222 368.663 40.2472C368.43 40.8722 368.314 41.608 368.314 42.4545ZM384.055 49.2642C383.226 49.2642 382.479 49.1165 381.814 48.821C381.155 48.5199 380.632 48.0767 380.246 47.4915C379.865 46.9062 379.675 46.1847 379.675 45.3267C379.675 44.5881 379.811 43.9773 380.084 43.4943C380.357 43.0114 380.729 42.625 381.2 42.3352C381.672 42.0455 382.203 41.8267 382.794 41.679C383.391 41.5256 384.007 41.4148 384.643 41.3466C385.411 41.267 386.033 41.196 386.51 41.1335C386.987 41.0653 387.334 40.9631 387.55 40.8267C387.771 40.6847 387.882 40.4659 387.882 40.1705V40.1193C387.882 39.4773 387.692 38.9801 387.311 38.6278C386.93 38.2756 386.382 38.0994 385.666 38.0994C384.911 38.0994 384.311 38.2642 383.868 38.5938C383.43 38.9233 383.135 39.3125 382.982 39.7614L380.101 39.3523C380.328 38.5568 380.703 37.892 381.226 37.358C381.749 36.8182 382.388 36.4148 383.143 36.1477C383.899 35.875 384.734 35.7386 385.649 35.7386C386.28 35.7386 386.908 35.8125 387.533 35.9602C388.158 36.108 388.729 36.3523 389.246 36.6932C389.763 37.0284 390.178 37.4858 390.49 38.0653C390.808 38.6449 390.967 39.3693 390.967 40.2386V49H388.001V47.2017H387.899C387.712 47.5653 387.447 47.9062 387.107 48.2244C386.771 48.5369 386.348 48.7898 385.837 48.983C385.331 49.1705 384.737 49.2642 384.055 49.2642ZM384.857 46.9972C385.476 46.9972 386.013 46.875 386.467 46.6307C386.922 46.3807 387.271 46.0511 387.516 45.642C387.766 45.233 387.891 44.7869 387.891 44.304V42.7614C387.794 42.8409 387.629 42.9148 387.396 42.983C387.169 43.0511 386.913 43.1108 386.629 43.1619C386.345 43.2131 386.064 43.2585 385.786 43.2983C385.507 43.3381 385.266 43.3722 385.061 43.4006C384.601 43.4631 384.189 43.5653 383.825 43.7074C383.462 43.8494 383.175 44.0483 382.964 44.304C382.754 44.554 382.649 44.8778 382.649 45.2756C382.649 45.8438 382.857 46.2727 383.271 46.5625C383.686 46.8523 384.214 46.9972 384.857 46.9972Z" fill="#C00045"/>
<path d="M467 26L470.817 37.0557H483.168L473.176 43.8885L476.992 54.9443L467 48.1115L457.008 54.9443L460.824 43.8885L450.832 37.0557H463.183L467 26Z" fill="#C00046"/>
<path d="M663 27.5322L666.344 37.2189L666.46 37.5557H666.817H677.551L668.893 43.4758L668.579 43.6911L668.703 44.0517L672.026 53.6779L663.282 47.6987L663 47.5057L662.718 47.6987L653.974 53.6779L657.297 44.0517L657.421 43.6911L657.107 43.4758L648.449 37.5557H659.183H659.54L659.656 37.2189L663 27.5322Z" fill="white" stroke="#C00046"/>
<path d="M614 26L617.817 37.0557H630.168L620.176 43.8885L623.992 54.9443L614 48.1115L604.008 54.9443L607.824 43.8885L597.832 37.0557H610.183L614 26Z" fill="#C00046"/>
<path d="M565 26L568.817 37.0557H581.168L571.176 43.8885L574.992 54.9443L565 48.1115L555.008 54.9443L558.824 43.8885L548.832 37.0557H561.183L565 26Z" fill="#C00046"/>
<path d="M516 26L519.817 37.0557H532.168L522.176 43.8885L525.992 54.9443L516 48.1115L506.008 54.9443L509.824 43.8885L499.832 37.0557H512.183L516 26Z" fill="#C00046"/>
</svg>
